#N canvas 656 160 1920 997 12;
#X obj 222 596 output~;
#X obj 222 432 r~ in;
#X obj 223 470 Schroeder1961;
#X msg 10 139 1;
#X msg 21 175 0;
#X obj 64 176 readsf~ 2;
#X text 334 133 impulse response;
#X obj 340 228 send~ in;
#X obj 468 154 pish~;
#X obj 341 155 Impulse~;
#X obj 93 624 vu 15 120 inmeter empty -1 -8 0 10 #404040 #000000 1 0;
#X obj 89 597 s inmeter;
#X obj 90 575 - 100;
#X obj 90 554 env~ 2048;
#X msg 78 83 open ../../sound/DavidCastelloLopezVoix.wav;
#X msg 79 108 open ../../sound/LittleWaltz.wav;
#X msg 81 131 open ../../sound/ForMark.wav;
#X msg 83 153 open ../../sound/Nocturnal.wav;
#X connect 1 0 2 0;
#X connect 2 0 0 0;
#X connect 2 0 0 1;
#X connect 2 0 13 0;
#X connect 3 0 5 0;
#X connect 4 0 5 0;
#X connect 5 0 7 0;
#X connect 8 0 7 0;
#X connect 9 0 7 0;
#X connect 12 0 11 0;
#X connect 13 0 12 0;
#X connect 14 0 5 0;
#X connect 14 0 3 0;
#X connect 15 0 5 0;
#X connect 15 0 3 0;
#X connect 16 0 5 0;
#X connect 16 0 3 0;
#X connect 17 0 5 0;
#X connect 17 0 3 0;
