#N canvas 40 6 958 988 12;
#X obj 319 370 receive~ input;
#X obj 319 412 allpass~ delay1 100;
#X obj 319 454 allpass~ delay2 68;
#X obj 319 496 allpass~ delay3 60;
#X obj 319 538 allpass~ delay4 19.7;
#X obj 319 580 allpass~ delay5 5.85;
#X obj 497 488 * -1;
#X obj 310 25 loadbang;
#X obj 161 731 expr 1 - $f1;
#X obj 128 753 *~;
#X obj 160 783 *~;
#X obj 128 782 +~;
#X floatatom 172 707 5 0 0 0 - - - 0;
#X obj 129 849 outlet~;
#X obj 166 671 r Mix;
#X obj 128 222 s Mix;
#X obj 374 167 s gain;
#X obj 356 52 r gain;
#X obj 101 100 cnv 19 250 100 empty empty Schroeder\ Colorless\ Reverb 20 12 0 12 #e0e0e0 #404040 0;
#X obj 133 174 hsl 162 19 0 1 0 0 empty empty Mix -2 -10 0 12 #fcfcfc #000000 #000000 0 1;
#X obj 134 135 hsl 162 19 0 1 0 0 empty empty Gain -2 -10 0 12 #fcfcfc #000000 #000000 0 1;
#X obj 72 33 inlet~;
#X obj 71 67 s~ input;
#X floatatom 309 134 5 0 0 0 - - - 0;
#X msg 310 51 0.7;
#X obj 502 421 r gain;
#X obj 129 619 r~ input;
#X connect 0 0 1 0;
#X connect 1 0 2 0;
#X connect 2 0 3 0;
#X connect 3 0 4 0;
#X connect 4 0 5 0;
#X connect 5 0 10 0;
#X connect 6 0 4 1;
#X connect 7 0 24 0;
#X connect 8 0 10 1;
#X connect 9 0 11 0;
#X connect 10 0 11 1;
#X connect 11 0 13 0;
#X connect 14 0 8 0;
#X connect 14 0 12 0;
#X connect 14 0 9 1;
#X connect 17 0 23 0;
#X connect 19 0 15 0;
#X connect 20 0 16 0;
#X connect 21 0 22 0;
#X connect 24 0 23 0;
#X connect 25 0 1 1;
#X connect 25 0 3 1;
#X connect 25 0 5 1;
#X connect 25 0 2 1;
#X connect 25 0 6 0;
#X connect 26 0 9 0;
#X coords 0 -1 1 1 250 100 1 100 100;
