#N canvas 953 0 958 988 12;
#X obj 97 492 lpalternateAPF~;
#X obj 221 369 RT60_gain;
#X floatatom 221 407 5 0 0 0 - - - 0;
#X obj 97 632 outlet~;
#X obj 97 346 inlet~;
#X obj 277 490 lpalternateAPF~;
#X obj 260 632 outlet~;
#X obj 196 339 r delay;
#X obj 279 339 r decay;
#X obj 222 431 r damping;
#X text 149 60 Simple low pass filtered APF delay;
#X obj 100 100 cnv 19 250 230 empty empty Lowpass\ APF\ Delay 20 12 0 15 #70fc1b #ffffff 0;
#X obj 114 160 hsl 162 19 20 2000 0 0 empty empty Delay\ Time\ (ms) -2 -10 0 12 #fcfcfc #000000 #000000 0 1;
#X floatatom 291 160 5 0 0 0 - - - 0;
#X obj 366 158 s delay;
#X obj 114 205 hsl 162 19 0 10000 0 0 empty empty Trail\ (ms) -2 -10 0 12 #fcfcfc #000000 #000000 0 1;
#X floatatom 291 204 5 0 0 0 - - - 0;
#X obj 366 204 s decay;
#X obj 114 250 hsl 162 19 0.05 0.9999 0 0 empty empty Damping -2 -10 0 12 #fcfcfc #000000 #000000 0 1;
#X floatatom 291 248 5 0 0 0 - - - 0;
#X obj 366 250 s damping;
#X obj 422 64 loadbang;
#X msg 422 88 1000;
#X msg 462 88 5000;
#X msg 504 88 0.25;
#X obj 114 288 hsl 162 19 0 1 0 0 empty empty Mix -2 -10 0 12 #fcfcfc #000000 #000000 0 1;
#X floatatom 291 286 5 0 0 0 - - - 0;
#X obj 164 556 expr 1 - $f1;
#X obj 164 580 *~;
#X obj 97 610 +~;
#X obj 259 610 +~;
#X obj 366 286 s mix;
#X obj 164 532 r mix;
#X obj 97 576 *~;
#X obj 277 564 *~;
#X connect 0 0 33 0;
#X connect 1 0 2 0;
#X connect 1 0 0 2;
#X connect 1 0 5 2;
#X connect 4 0 0 0;
#X connect 4 0 5 0;
#X connect 4 0 28 1;
#X connect 5 0 34 0;
#X connect 7 0 0 1;
#X connect 7 0 1 0;
#X connect 7 0 5 1;
#X connect 8 0 1 1;
#X connect 9 0 0 3;
#X connect 9 0 5 3;
#X connect 12 0 13 0;
#X connect 13 0 14 0;
#X connect 15 0 16 0;
#X connect 16 0 17 0;
#X connect 18 0 19 0;
#X connect 19 0 20 0;
#X connect 21 0 22 0;
#X connect 21 0 23 0;
#X connect 21 0 24 0;
#X connect 22 0 12 0;
#X connect 23 0 15 0;
#X connect 24 0 18 0;
#X connect 25 0 26 0;
#X connect 26 0 31 0;
#X connect 27 0 28 0;
#X connect 28 0 30 0;
#X connect 28 0 29 1;
#X connect 29 0 3 0;
#X connect 30 0 6 0;
#X connect 32 0 27 0;
#X connect 32 0 33 1;
#X connect 32 0 34 1;
#X connect 33 0 29 0;
#X connect 34 0 30 1;
#X coords 0 -1 1 1 250 230 1 100 100;
