#N canvas 654 257 482 572 12;
#X obj 42 314 +~;
#X obj 48 40 inlet~;
#X obj 48 65 s~ inEarl;
#X obj 48 94 r~ inEarl;
#X obj 92 407 expr 1 - $f1;
#X obj 42 446 *~;
#X obj 74 476 *~;
#X obj 42 476 +~;
#X obj 42 505 outlet~;
#X obj 168 39 inlet;
#X obj 168 63 s amount;
#X obj 60 372 r amount;
#X obj 73 446 r~ inEarl;
#X obj 130 194 fcomb~ \$0-comb4 38.9 0.635;
#X obj 172 225 fcomb~ \$0-comb5 41.4 0.719;
#X obj 246 277 fcomb~ \$0-comb7 79.6 0.242;
#X obj 216 254 fcomb~ \$0-comb6 69.9 0.267;
#X obj 83 157 fcomb~ \$0-comb3 35.4 0.818;
#X obj 41 125 fcomb~ \$0-comb2 19.9 0.82;
#X obj 42 346 *~ 0.5;
#X connect 0 0 19 0;
#X connect 1 0 2 0;
#X connect 3 0 13 0;
#X connect 3 0 14 0;
#X connect 3 0 15 0;
#X connect 3 0 16 0;
#X connect 3 0 17 0;
#X connect 3 0 18 0;
#X connect 4 0 6 1;
#X connect 5 0 7 0;
#X connect 6 0 7 1;
#X connect 7 0 8 0;
#X connect 9 0 10 0;
#X connect 11 0 4 0;
#X connect 11 0 5 1;
#X connect 12 0 6 0;
#X connect 13 0 0 1;
#X connect 14 0 0 1;
#X connect 15 0 0 1;
#X connect 16 0 0 1;
#X connect 17 0 0 1;
#X connect 18 0 0 0;
#X connect 19 0 5 0;
