#N canvas 903 205 764 531 12;
#X obj 83 68 inlet~;
#X text 85 41 Audio In;
#X text 440 107 \$1 subpatch comb filter name;
#X text 440 123 \$2 delay time;
#X obj 83 280 +~;
#X text 440 139 \$3 gain g;
#X obj 283 381 outlet~;
#X obj 100 196 rpole~;
#X obj 314 171 sqrt;
#X floatatom 314 195 5 0 0 0 - - - 0;
#X obj 314 218 * -1;
#X obj 314 242 + 1;
#X obj 100 234 *~;
#X obj 314 104 f \$2;
#X obj 303 43 loadbang;
#X floatatom 314 290 5 0 0 0 - - - 0;
#X text 365 194 g1;
#X text 356 290 loop gain;
#X obj 383 73 inlet;
#X obj 190 62 inlet;
#X text 179 34 delayTime(ms);
#X text 384 50 gain;
#X obj 358 346 outlet;
#X obj 382 99 t b f;
#X obj 314 147 / 250;
#X obj 314 266 *;
#X obj 446 259 f \$3;
#X obj 100 141 delread~ \$1-comb \$2;
#X obj 85 321 delwrite~ \$1-comb 100;
#X text 36 12 Comb Filter with Filter inside the loop (max 100 ms);
#X connect 0 0 4 0;
#X connect 4 0 28 0;
#X connect 7 0 12 0;
#X connect 8 0 9 0;
#X connect 9 0 7 1;
#X connect 9 0 10 0;
#X connect 10 0 11 0;
#X connect 11 0 25 0;
#X connect 12 0 4 1;
#X connect 13 0 24 0;
#X connect 14 0 13 0;
#X connect 14 0 24 0;
#X connect 14 0 26 0;
#X connect 15 0 12 1;
#X connect 18 0 23 0;
#X connect 19 0 24 0;
#X connect 19 0 27 0;
#X connect 23 0 25 0;
#X connect 23 1 25 1;
#X connect 24 0 8 0;
#X connect 25 0 15 0;
#X connect 26 0 25 1;
#X connect 26 0 22 0;
#X connect 27 0 6 0;
#X connect 27 0 7 0;
