#N canvas -7 0 958 988 12;
#X obj 72 111 inlet~;
#X obj 307 400 outlet~;
#X obj 352 132 inlet;
#X obj 90 244 *~;
#X obj 306 257 +~;
#X obj 326 221 *~;
#X text 61 84 input signal;
#X obj 70 270 +~;
#X obj 352 194 expr -$f1;
#X obj 352 163 clip -0.99 0.99;
#X obj 71 401 delwrite~ \$0-delay 100;
#X obj 137 133 inlet, f 7;
#X text 210 84 delay Time;
#X obj 401 131 f \$2;
#X obj 401 104 loadbang;
#X obj 91 187 delread~ \$0-delay;
#X obj 215 108 loadbang;
#X obj 215 134 f \$1;
#X obj 685 138 inlet;
#X obj 733 110 loadbang;
#X obj 685 178 delread~ \$0-delay;
#X obj 686 400 outlet~;
#X text 705 84 alternate tap;
#X text 281 422 main tap output;
#X text 686 420 alternate tap output;
#X text 38 420 max delay time set to 100 ms;
#X text 87 27 alternated APF struture (100ms) with added LPF in FB loop \, with additional tap;
#X obj 733 137 f \$4;
#X text 283 478 \$4 alternate delayRead Time, f 35;
#X obj 541 134 f \$3;
#X obj 71 358 rpole~;
#X obj 542 105 loadbang;
#X obj 481 135 inlet;
#X obj 481 163 clip -0.9999 0.9999;
#X text 284 441 \$1 sets the delay line length in (ms), f 40;
#X obj 90 304 expr 1-$f1;
#X obj 72 328 *~;
#X text 539 84 Damping coeff g;
#X text 399 84 gain g1;
#X text 396 349 g2 : calculation;
#X text 284 454 \$2 feedback gain g1, f 40;
#X text 284 466 \$3 damping coefficient set by the inlet RT60 value;
#X text 397 362 g2 = g*(1-g1);
#X obj 425 272 t b f;
#X floatatom 191 352 5 0 0 0 - - - 0;
#X obj 192 327 *;
#X obj 188 291 expr 1-$f1;
#X connect 0 0 7 0;
#X connect 2 0 9 0;
#X connect 3 0 7 1;
#X connect 4 0 1 0;
#X connect 5 0 4 1;
#X connect 7 0 5 0;
#X connect 7 0 36 0;
#X connect 8 0 5 1;
#X connect 9 0 8 0;
#X connect 9 0 3 1;
#X connect 9 0 46 0;
#X connect 11 0 15 0;
#X connect 13 0 9 0;
#X connect 14 0 13 0;
#X connect 15 0 3 0;
#X connect 15 0 4 0;
#X connect 16 0 17 0;
#X connect 17 0 15 0;
#X connect 18 0 20 0;
#X connect 19 0 27 0;
#X connect 20 0 21 0;
#X connect 27 0 20 0;
#X connect 29 0 33 0;
#X connect 30 0 10 0;
#X connect 31 0 29 0;
#X connect 32 0 33 0;
#X connect 33 0 43 0;
#X connect 35 0 36 1;
#X connect 36 0 30 0;
#X connect 43 0 45 0;
#X connect 43 1 45 1;
#X connect 44 0 30 1;
#X connect 44 0 35 0;
#X connect 45 0 44 0;
#X connect 46 0 45 0;
