#N canvas 182 182 1920 997 12;
#X obj 67 135 inlet~;
#X obj 49 359 outlet~;
#X obj 272 130 inlet;
#X obj 254 257 *~;
#X obj 49 331 +~;
#X obj 49 263 *~;
#X text 69 110 input signal;
#X text 104 365 output signal;
#X obj 272 158 / 100;
#X obj 67 163 +~;
#X obj 272 226 expr $f1;
#X obj 67 242 expr -$f1;
#X obj 273 186 clip -0.99 0.99;
#X text 278 110 gain;
#X obj 360 124 inlet;
#X obj 67 292 delread4~ \$0-delay;
#X obj 366 350 +~ \$1;
#X text 341 106 \$1 delay time;
#X obj 367 326 *~ \$2;
#X obj 367 301 osc~ \$3;
#X text 453 105 \$2 excursion;
#X text 569 108 \$3 modulation rate;
#X obj 466 124 inlet;
#X obj 597 125 inlet;
#X text 85 54 modulated APF with inlets or arguments;
#X obj 66 191 delwrite~ \$0-delay 1000;
#X connect 0 0 9 0;
#X connect 2 0 8 0;
#X connect 3 0 9 1;
#X connect 4 0 1 0;
#X connect 5 0 4 0;
#X connect 8 0 12 0;
#X connect 9 0 5 0;
#X connect 9 0 25 0;
#X connect 10 0 3 1;
#X connect 11 0 5 1;
#X connect 12 0 10 0;
#X connect 12 0 11 0;
#X connect 14 0 16 1;
#X connect 15 0 3 0;
#X connect 15 0 4 1;
#X connect 16 0 15 0;
#X connect 18 0 16 0;
#X connect 19 0 18 0;
#X connect 22 0 18 1;
#X connect 23 0 19 0;
