#N canvas -7 0 958 988 12;
#X obj 112 292 RT60_gain;
#X obj 32 319 fcomb~ comb1;
#X msg 72 292 50;
#X obj 284 292 RT60_gain;
#X obj 460 292 RT60_gain;
#X obj 647 292 RT60_gain;
#X obj 851 292 RT60_gain;
#X msg 244 292 56;
#X msg 607 292 68;
#X msg 810 292 72;
#X obj 1018 292 RT60_gain;
#X msg 977 292 78;
#X floatatom 1035 321 5 0 1 0 - - - 0;
#X floatatom 129 319 5 0 1 0 - - - 0;
#X obj 707 175 loadbang;
#X floatatom 308 319 5 0 1 0 - - - 0;
#X floatatom 494 319 5 0 1 0 - - - 0;
#X obj 204 319 fcomb~ comb2;
#X obj 380 319 fcomb~ comb3;
#X obj 567 319 fcomb~ comb4;
#X obj 770 319 fcomb~ comb5;
#X obj 937 319 fcomb~ comb6;
#X msg 420 292 61;
#X floatatom 665 319 5 0 1 0 - - - 0;
#X floatatom 867 319 5 0 1 0 - - - 0;
#X obj 33 51 inlet~;
#X obj 177 75 s ReverbTime;
#X obj 344 161 r ReverbTime;
#X obj 34 148 earlyReflex_7taps;
#X obj 707 208 t b;
#X obj 444 75 s Early;
#X obj 150 118 r Early;
#X obj 33 181 allpass~ apf1 6 0.7;
#X obj 31 370 outlet~;
#X obj 204 370 outlet~;
#X obj 379 370 outlet~;
#X obj 566 370 outlet~;
#X obj 771 376 outlet~;
#X obj 938 376 outlet~;
#X obj 177 51 inlet;
#X obj 444 51 inlet;
#X text 33 25 Audio in;
#X text 177 25 Reverberation time;
#X text 443 28 Reverberation Early Reflexion Amount;
#X connect 0 0 13 0;
#X connect 0 0 1 2;
#X connect 1 0 33 0;
#X connect 2 0 0 0;
#X connect 2 0 1 1;
#X connect 3 0 15 0;
#X connect 3 0 17 2;
#X connect 4 0 16 0;
#X connect 4 0 18 2;
#X connect 5 0 23 0;
#X connect 5 0 19 2;
#X connect 6 0 24 0;
#X connect 6 0 20 2;
#X connect 7 0 3 0;
#X connect 7 0 17 1;
#X connect 8 0 5 0;
#X connect 8 0 19 1;
#X connect 9 0 6 0;
#X connect 9 0 20 1;
#X connect 10 0 12 0;
#X connect 10 0 21 2;
#X connect 11 0 10 0;
#X connect 11 0 21 1;
#X connect 14 0 29 0;
#X connect 17 0 34 0;
#X connect 18 0 35 0;
#X connect 19 0 36 0;
#X connect 20 0 37 0;
#X connect 21 0 38 0;
#X connect 22 0 4 0;
#X connect 22 0 18 1;
#X connect 25 0 28 0;
#X connect 27 0 0 1;
#X connect 27 0 3 1;
#X connect 27 0 4 1;
#X connect 27 0 5 1;
#X connect 27 0 6 1;
#X connect 27 0 10 1;
#X connect 28 0 32 0;
#X connect 29 0 2 0;
#X connect 29 0 7 0;
#X connect 29 0 22 0;
#X connect 29 0 8 0;
#X connect 29 0 9 0;
#X connect 29 0 11 0;
#X connect 31 0 28 1;
#X connect 32 0 17 0;
#X connect 32 0 1 0;
#X connect 32 0 18 0;
#X connect 32 0 19 0;
#X connect 32 0 20 0;
#X connect 32 0 21 0;
#X connect 39 0 26 0;
#X connect 40 0 30 0;
#X coords 0 988 1 987 250 180 0;
