#N canvas 27 78 1920 997 12;
#X obj 194 400 RT60_gain;
#X obj 357 66 / 1000;
#X msg 154 400 50;
#X obj 366 400 RT60_gain;
#X obj 564 400 RT60_gain;
#X obj 751 401 RT60_gain;
#X obj 950 400 RT60_gain;
#X msg 326 400 56;
#X msg 700 400 68;
#X msg 904 400 72;
#X obj 1121 399 RT60_gain;
#X msg 1070 400 78;
#X floatatom 1134 428 5 0 1 0 - - - 0;
#X floatatom 229 426 5 0 1 0 - - - 0;
#X obj 530 333 loadbang;
#X floatatom 390 427 5 0 1 0 - - - 0;
#X floatatom 576 427 5 0 1 0 - - - 0;
#X obj 486 519 +~;
#X msg 513 400 61;
#X floatatom 762 426 5 0 1 0 - - - 0;
#X floatatom 966 427 5 0 1 0 - - - 0;
#X obj 273 715 expr 1 - $f1;
#X obj 223 754 *~;
#X obj 255 784 *~;
#X obj 223 784 +~;
#X obj 540 187 inlet~;
#X obj 223 813 outlet~;
#X obj 241 640 r Mix;
#X obj 412 186 s Mix;
#X obj 412 142 s ReverbTime;
#X obj 530 305 r ReverbTime;
#X obj 100 100 cnv 19 250 130 empty empty Moorer\ Simple\ Reverberator 10 12 0 15 #00faff #ffffff 0;
#X obj 123 146 hsl 162 19 10 10000 0 0 empty empty Reverb\ Time\ (ms) -2 -10 0 12 #fcfcfc #000000 #000000 0 1;
#X floatatom 291 146 5 0 0 0 - - - 0;
#X floatatom 291 192 5 0 0 0 - - - 0;
#X obj 123 192 hsl 162 19 0 1 0 0 empty empty Mix\  -2 -10 0 12 #fcfcfc #000000 #000000 0 1;
#X obj 190 28 loadbang;
#X msg 190 61 0.5;
#X msg 230 65 1000;
#X obj 486 549 throw~ 0$-processed;
#X obj 223 680 catch~ 0$-processed;
#X obj 540 214 s~ 0$-input;
#X obj 254 755 r~ 0$-input;
#X obj 114 266 r~ 0$-input;
#X obj 114 427 fcomb~ 0$-comb1;
#X obj 275 425 fcomb~ 0$-comb2;
#X obj 462 428 fcomb~ 0$-comb3;
#X obj 649 425 fcomb~ 0$-comb4;
#X obj 853 427 fcomb~ 0$-comb5;
#X obj 1019 427 fcomb~ 0$-comb6;
#X obj 114 288 allpass~ 0$-apf1 6 0.7;
#X connect 0 0 13 0;
#X connect 0 0 44 2;
#X connect 1 0 33 0;
#X connect 2 0 0 0;
#X connect 2 0 44 1;
#X connect 3 0 15 0;
#X connect 3 0 45 2;
#X connect 4 0 16 0;
#X connect 4 0 46 2;
#X connect 5 0 19 0;
#X connect 5 0 47 2;
#X connect 6 0 20 0;
#X connect 6 0 48 2;
#X connect 7 0 3 0;
#X connect 7 0 45 1;
#X connect 8 0 5 0;
#X connect 8 0 47 1;
#X connect 9 0 6 0;
#X connect 9 0 48 1;
#X connect 10 0 12 0;
#X connect 10 0 49 2;
#X connect 11 0 10 0;
#X connect 11 0 49 1;
#X connect 14 0 2 0;
#X connect 14 0 7 0;
#X connect 14 0 18 0;
#X connect 14 0 8 0;
#X connect 14 0 9 0;
#X connect 14 0 11 0;
#X connect 17 0 39 0;
#X connect 18 0 4 0;
#X connect 18 0 46 1;
#X connect 21 0 23 1;
#X connect 22 0 24 0;
#X connect 23 0 24 1;
#X connect 24 0 26 0;
#X connect 25 0 41 0;
#X connect 27 0 21 0;
#X connect 27 0 22 1;
#X connect 30 0 0 1;
#X connect 30 0 3 1;
#X connect 30 0 4 1;
#X connect 30 0 5 1;
#X connect 30 0 6 1;
#X connect 30 0 10 1;
#X connect 32 0 1 0;
#X connect 32 0 29 0;
#X connect 35 0 34 0;
#X connect 35 0 28 0;
#X connect 36 0 37 0;
#X connect 36 0 38 0;
#X connect 37 0 35 0;
#X connect 38 0 32 0;
#X connect 40 0 22 0;
#X connect 42 0 23 0;
#X connect 43 0 50 0;
#X connect 44 0 17 0;
#X connect 45 0 17 1;
#X connect 46 0 17 1;
#X connect 47 0 17 1;
#X connect 48 0 17 1;
#X connect 49 0 17 1;
#X connect 50 0 44 0;
#X connect 50 0 45 0;
#X connect 50 0 46 0;
#X connect 50 0 47 0;
#X connect 50 0 48 0;
#X connect 50 0 49 0;
#X coords 0 -1 1 1 250 130 1 100 100;
