#N canvas 429 111 868 821 12;
#X obj 357 66 / 1000;
#X obj 488 645 expr 1 - $f1;
#X obj 438 684 *~;
#X obj 470 714 *~;
#X obj 438 714 +~;
#X obj 438 610 catch~ processed;
#X obj 561 73 inlet~;
#X obj 438 743 outlet~;
#X obj 100 100 cnv 19 250 180 empty empty Moorer\ Reverberator\ Mono 10 12 0 15 #9ffdff #ffffff 0;
#X obj 123 146 hsl 162 19 10 10000 0 0 empty empty Reverb\ Time\ (s) -2 -10 0 12 #fcfcfc #000000 #000000 0 1;
#X floatatom 291 146 5 0 0 0 - - - 0;
#X floatatom 291 192 5 0 0 0 - - - 0;
#X obj 123 192 hsl 162 19 0 1 0 0 empty empty Mix\  -2 -10 0 12 #fcfcfc #000000 #000000 0 1;
#X obj 190 28 loadbang;
#X msg 190 61 0.5;
#X msg 230 65 1000;
#X floatatom 291 240 5 0 0 0 - - - 0;
#X obj 123 240 hsl 162 19 0 1 0 0 empty empty Early\ Reflexions -2 -10 0 12 #fcfcfc #000000 #000000 0 1;
#X text 118 262 7 Taps;
#X obj 592 299 MoorerReverb;
#X obj 592 363 *~ 0.16;
#X obj 591 340 +~;
#X obj 591 396 throw~ processed;
#X obj 592 185 r~ 0$-input;
#X obj 561 97 s~ 0$-input;
#X obj 469 684 r~ 0$-input;
#X obj 412 142 s 0$-ReverbTime;
#X obj 412 186 s 0$-Mix;
#X obj 413 241 s 0$-Early;
#X obj 632 232 r 0$-ReverbTime;
#X obj 673 270 r 0$-Early;
#X obj 456 570 r 0$-Mix;
#X connect 0 0 10 0;
#X connect 1 0 3 1;
#X connect 2 0 4 0;
#X connect 3 0 4 1;
#X connect 4 0 7 0;
#X connect 5 0 2 0;
#X connect 6 0 24 0;
#X connect 9 0 0 0;
#X connect 9 0 26 0;
#X connect 12 0 11 0;
#X connect 12 0 27 0;
#X connect 13 0 14 0;
#X connect 13 0 15 0;
#X connect 14 0 12 0;
#X connect 15 0 9 0;
#X connect 17 0 16 0;
#X connect 17 0 28 0;
#X connect 19 0 21 0;
#X connect 19 1 21 1;
#X connect 19 2 21 1;
#X connect 19 3 21 1;
#X connect 19 4 21 1;
#X connect 19 5 21 1;
#X connect 20 0 22 0;
#X connect 21 0 20 0;
#X connect 23 0 19 0;
#X connect 25 0 3 0;
#X connect 29 0 19 1;
#X connect 30 0 19 2;
#X connect 31 0 1 0;
#X connect 31 0 2 1;
#X coords 0 -1 1 1 250 180 1 100 100;
