#N canvas -7 0 958 988 12;
#X obj 358 429 RT60_gain;
#X obj 278 456 fcomb~ comb1;
#X msg 318 429 50;
#X obj 530 429 RT60_gain;
#X obj 706 429 RT60_gain;
#X obj 893 429 RT60_gain;
#X obj 1097 429 RT60_gain;
#X msg 490 429 56;
#X msg 853 429 68;
#X msg 1056 429 72;
#X obj 1264 429 RT60_gain;
#X msg 1223 429 78;
#X floatatom 1281 458 5 0 1 0 - - - 0;
#X floatatom 375 456 5 0 1 0 - - - 0;
#X obj 953 312 loadbang;
#X floatatom 554 456 5 0 1 0 - - - 0;
#X floatatom 740 456 5 0 1 0 - - - 0;
#X obj 450 456 fcomb~ comb2;
#X obj 626 456 fcomb~ comb3;
#X obj 813 456 fcomb~ comb4;
#X obj 1016 456 fcomb~ comb5;
#X obj 1183 456 fcomb~ comb6;
#X msg 666 429 61;
#X floatatom 911 456 5 0 1 0 - - - 0;
#X floatatom 1113 456 5 0 1 0 - - - 0;
#X obj 279 188 inlet~;
#X obj 423 212 s ReverbTime;
#X obj 590 298 r ReverbTime;
#X obj 280 285 earlyReflex_7taps;
#X obj 953 345 t b;
#X obj 690 212 s Early;
#X obj 396 255 r Early;
#X obj 279 318 allpass~ apf1 6 0.7;
#X obj 389 714 outlet~;
#X obj 1031 710 outlet~;
#X obj 423 188 inlet;
#X obj 690 188 inlet;
#X text 279 162 Audio in;
#X text 423 162 Reverberation time;
#X text 689 164 Reverberation Early Reflexion Amount;
#X obj 406 606 modAPF~ modAPF1, f 16;
#X obj 367 511 +~;
#X obj 365 548 *~ 0.33;
#X floatatom 438 535 5 0 99 0 - - - 0;
#X obj 433 559 / 100;
#X floatatom 490 556 5 0 0 0 - - - 0;
#X msg 546 564 4;
#X floatatom 597 562 5 0 100 0 - - - 0;
#X obj 594 585 / 100;
#X obj 883 500 +~;
#X obj 893 542 *~ 0.33;
#X floatatom 954 524 5 0 99 0 - - - 0;
#X obj 949 548 / 100;
#X floatatom 1006 545 5 0 0 0 - - - 0;
#X msg 1062 553 4;
#X floatatom 1113 551 5 0 100 0 - - - 0;
#X obj 1110 574 / 100;
#X obj 922 595 modAPF~ modAPF2, f 16;
#X connect 0 0 13 0;
#X connect 0 0 1 2;
#X connect 1 0 41 0;
#X connect 2 0 0 0;
#X connect 2 0 1 1;
#X connect 3 0 15 0;
#X connect 3 0 17 2;
#X connect 4 0 16 0;
#X connect 4 0 18 2;
#X connect 5 0 23 0;
#X connect 5 0 19 2;
#X connect 6 0 24 0;
#X connect 6 0 20 2;
#X connect 7 0 3 0;
#X connect 7 0 17 1;
#X connect 8 0 5 0;
#X connect 8 0 19 1;
#X connect 9 0 6 0;
#X connect 9 0 20 1;
#X connect 10 0 12 0;
#X connect 10 0 21 2;
#X connect 11 0 10 0;
#X connect 11 0 21 1;
#X connect 14 0 29 0;
#X connect 17 0 41 1;
#X connect 18 0 41 1;
#X connect 19 0 49 0;
#X connect 20 0 49 1;
#X connect 21 0 49 1;
#X connect 22 0 4 0;
#X connect 22 0 18 1;
#X connect 25 0 28 0;
#X connect 27 0 0 1;
#X connect 27 0 3 1;
#X connect 27 0 4 1;
#X connect 27 0 5 1;
#X connect 27 0 6 1;
#X connect 27 0 10 1;
#X connect 28 0 32 0;
#X connect 29 0 2 0;
#X connect 29 0 7 0;
#X connect 29 0 22 0;
#X connect 29 0 8 0;
#X connect 29 0 9 0;
#X connect 29 0 11 0;
#X connect 31 0 28 1;
#X connect 32 0 1 0;
#X connect 32 0 18 0;
#X connect 32 0 17 0;
#X connect 32 0 19 0;
#X connect 32 0 20 0;
#X connect 32 0 21 0;
#X connect 35 0 26 0;
#X connect 36 0 30 0;
#X connect 40 0 33 0;
#X connect 41 0 42 0;
#X connect 42 0 40 0;
#X connect 43 0 44 0;
#X connect 44 0 40 1;
#X connect 45 0 40 2;
#X connect 46 0 40 3;
#X connect 47 0 48 0;
#X connect 48 0 40 4;
#X connect 49 0 50 0;
#X connect 50 0 57 0;
#X connect 51 0 52 0;
#X connect 52 0 57 1;
#X connect 53 0 57 2;
#X connect 54 0 57 3;
#X connect 55 0 56 0;
#X connect 56 0 57 4;
#X connect 57 0 34 0;
