#N canvas 91 190 531 709 12;
#X obj 355 119 / 1000;
#X obj 200 570 expr 1 - $f1;
#X obj 102 613 *~;
#X obj 134 643 *~;
#X obj 102 643 +~;
#X obj 60 13 inlet~;
#X obj 102 672 outlet~;
#X obj 100 100 cnv 19 250 180 empty empty Moorer\ Reverberator\ Stereo 10 12 0 15 #9ffdff #ffffff 0;
#X obj 123 146 hsl 162 19 10 10000 0 0 empty empty Reverb\ Time\ (s) -2 -10 0 12 #fcfcfc #000000 #000000 0 1;
#X floatatom 291 146 5 0 0 0 - - - 0;
#X floatatom 291 192 5 0 0 0 - - - 0;
#X obj 123 192 hsl 162 19 0 1 0 0 empty empty Mix\  -2 -10 0 12 #fcfcfc #000000 #000000 0 1;
#X obj 190 28 loadbang;
#X msg 190 61 0.5;
#X msg 230 65 1000;
#X floatatom 291 240 5 0 0 0 - - - 0;
#X obj 123 240 hsl 162 19 0 1 0 0 empty empty Early\ Reflexions -2 -10 0 12 #fcfcfc #000000 #000000 0 1;
#X text 118 262 7 Taps;
#X obj 360 145 s 0$-ReverbTime;
#X obj 360 189 s 0$-Mix;
#X obj 361 244 s 0$-Early;
#X obj 200 540 r 0$-Mix;
#X obj 326 381 MoorerReverb;
#X obj 366 331 r 0$-ReverbTime;
#X obj 407 359 r 0$-Early;
#X obj 312 437 +~;
#X obj 314 499 +~;
#X obj 401 437 -~;
#X obj 429 436 -~;
#X obj 406 466 +~;
#X obj 341 437 +~;
#X obj 320 467 +~;
#X obj 370 437 +~;
#X obj 458 436 -~;
#X obj 314 522 *~ 0.16;
#X obj 102 521 *~ 0.16;
#X obj 307 18 inlet~;
#X obj 307 41 s~ 0$-inputR;
#X obj 60 37 s~ 0$-inputL;
#X obj 326 304 r~ 0$-inputR;
#X obj 133 613 r~ 0$-inputL;
#X obj 315 615 *~;
#X obj 347 645 *~;
#X obj 315 645 +~;
#X obj 315 674 outlet~;
#X obj 347 615 r~ 0$-inputR;
#X obj 117 378 MoorerReverb;
#X obj 157 328 r 0$-ReverbTime;
#X obj 198 356 r 0$-Early;
#X obj 103 434 +~;
#X obj 103 496 +~;
#X obj 192 434 -~;
#X obj 220 433 -~;
#X obj 197 463 +~;
#X obj 132 434 +~;
#X obj 111 464 +~;
#X obj 161 434 +~;
#X obj 249 433 -~;
#X obj 116 301 r~ 0$-inputL;
#X connect 0 0 9 0;
#X connect 1 0 3 1;
#X connect 1 0 42 1;
#X connect 2 0 4 0;
#X connect 3 0 4 1;
#X connect 4 0 6 0;
#X connect 5 0 38 0;
#X connect 8 0 0 0;
#X connect 8 0 18 0;
#X connect 11 0 10 0;
#X connect 11 0 19 0;
#X connect 12 0 13 0;
#X connect 12 0 14 0;
#X connect 13 0 11 0;
#X connect 14 0 8 0;
#X connect 16 0 15 0;
#X connect 16 0 20 0;
#X connect 21 0 1 0;
#X connect 21 0 2 1;
#X connect 21 0 41 1;
#X connect 22 0 25 0;
#X connect 22 0 27 0;
#X connect 22 1 25 1;
#X connect 22 1 27 1;
#X connect 22 2 30 0;
#X connect 22 2 28 0;
#X connect 22 3 30 1;
#X connect 22 3 28 1;
#X connect 22 4 32 0;
#X connect 22 4 33 0;
#X connect 22 5 32 1;
#X connect 22 5 33 1;
#X connect 23 0 22 1;
#X connect 24 0 22 2;
#X connect 25 0 31 0;
#X connect 26 0 34 0;
#X connect 27 0 29 0;
#X connect 28 0 29 1;
#X connect 29 0 50 0;
#X connect 30 0 31 1;
#X connect 31 0 26 1;
#X connect 32 0 31 1;
#X connect 33 0 29 1;
#X connect 34 0 41 0;
#X connect 35 0 2 0;
#X connect 36 0 37 0;
#X connect 39 0 22 0;
#X connect 40 0 3 0;
#X connect 41 0 43 0;
#X connect 42 0 43 1;
#X connect 43 0 44 0;
#X connect 45 0 42 0;
#X connect 46 0 49 0;
#X connect 46 0 51 0;
#X connect 46 1 49 1;
#X connect 46 1 51 1;
#X connect 46 2 54 0;
#X connect 46 2 52 0;
#X connect 46 3 54 1;
#X connect 46 3 52 1;
#X connect 46 4 56 0;
#X connect 46 4 57 0;
#X connect 46 5 56 1;
#X connect 46 5 57 1;
#X connect 47 0 46 1;
#X connect 48 0 46 2;
#X connect 49 0 55 0;
#X connect 50 0 35 0;
#X connect 51 0 53 0;
#X connect 52 0 53 1;
#X connect 53 0 26 0;
#X connect 54 0 55 1;
#X connect 55 0 50 1;
#X connect 56 0 55 1;
#X connect 57 0 53 1;
#X connect 58 0 46 0;
#X coords 0 -1 1 1 250 180 1 100 100;
