#N canvas 953 0 958 988 12;
#X obj 640 469 RT60_gain;
#X obj 357 66 / 1000;
#X obj 560 496 fcomb~ comb1;
#X msg 600 469 50;
#X obj 812 469 RT60_gain;
#X obj 988 469 RT60_gain;
#X obj 1175 469 RT60_gain;
#X obj 1379 469 RT60_gain;
#X msg 772 469 56;
#X msg 1135 469 68;
#X msg 1338 469 72;
#X obj 1546 469 RT60_gain;
#X msg 1505 469 78;
#X floatatom 1563 498 5 0 1 0 - - - 0;
#X floatatom 657 496 5 0 1 0 - - - 0;
#X obj 1235 352 loadbang;
#X floatatom 836 496 5 0 1 0 - - - 0;
#X floatatom 1022 496 5 0 1 0 - - - 0;
#X obj 732 496 fcomb~ comb2;
#X obj 908 496 fcomb~ comb3;
#X obj 1095 496 fcomb~ comb4;
#X obj 1298 496 fcomb~ comb5;
#X obj 1465 496 fcomb~ comb6;
#X obj 932 588 +~;
#X msg 948 469 61;
#X floatatom 1193 496 5 0 1 0 - - - 0;
#X floatatom 1395 496 5 0 1 0 - - - 0;
#X obj 488 645 expr 1 - $f1;
#X obj 438 684 *~;
#X obj 470 714 *~;
#X obj 438 714 +~;
#X obj 931 652 throw~ processed;
#X obj 438 610 catch~ processed;
#X obj 561 73 inlet~;
#X obj 438 743 outlet~;
#X obj 561 97 s~ input;
#X obj 469 684 r~ input;
#X obj 456 570 r Mix;
#X obj 412 186 s Mix;
#X obj 412 142 s ReverbTime;
#X obj 872 338 r ReverbTime;
#X obj 100 100 cnv 19 250 180 empty empty Moorer\ Reverberator 10 12 0 15 #9ffdff #ffffff 0;
#X obj 123 146 hsl 162 19 10 10000 0 0 empty empty Reverb\ Time\ (s) -2 -10 0 12 #fcfcfc #000000 #000000 0 1;
#X floatatom 291 146 5 0 0 0 - - - 0;
#X floatatom 291 192 5 0 0 0 - - - 0;
#X obj 123 192 hsl 162 19 0 1 0 0 empty empty Mix\  -2 -10 0 12 #fcfcfc #000000 #000000 0 1;
#X obj 190 28 loadbang;
#X msg 190 61 0.5;
#X msg 230 65 1000;
#X obj 559 143 r~ input;
#X obj 559 245 earlyReflex_7taps;
#X obj 1235 385 t b;
#X floatatom 291 240 5 0 0 0 - - - 0;
#X obj 123 240 hsl 162 19 0 1 0 0 empty empty Early\ Reflexions -2 -10 0 12 #fcfcfc #000000 #000000 0 1;
#X obj 413 241 s Early;
#X obj 675 215 r Early;
#X text 118 262 7 Taps;
#X obj 561 358 allpass~ apf1 6 0.7;
#X obj 931 619 *~ 0.32;
#X connect 0 0 14 0;
#X connect 0 0 2 2;
#X connect 1 0 43 0;
#X connect 2 0 23 0;
#X connect 3 0 0 0;
#X connect 3 0 2 1;
#X connect 4 0 16 0;
#X connect 4 0 18 2;
#X connect 5 0 17 0;
#X connect 5 0 19 2;
#X connect 6 0 25 0;
#X connect 6 0 20 2;
#X connect 7 0 26 0;
#X connect 7 0 21 2;
#X connect 8 0 4 0;
#X connect 8 0 18 1;
#X connect 9 0 6 0;
#X connect 9 0 20 1;
#X connect 10 0 7 0;
#X connect 10 0 21 1;
#X connect 11 0 13 0;
#X connect 11 0 22 2;
#X connect 12 0 11 0;
#X connect 12 0 22 1;
#X connect 15 0 51 0;
#X connect 18 0 23 1;
#X connect 19 0 23 1;
#X connect 20 0 23 1;
#X connect 21 0 23 1;
#X connect 22 0 23 1;
#X connect 23 0 58 0;
#X connect 24 0 5 0;
#X connect 24 0 19 1;
#X connect 27 0 29 1;
#X connect 28 0 30 0;
#X connect 29 0 30 1;
#X connect 30 0 34 0;
#X connect 32 0 28 0;
#X connect 33 0 35 0;
#X connect 36 0 29 0;
#X connect 37 0 27 0;
#X connect 37 0 28 1;
#X connect 40 0 0 1;
#X connect 40 0 4 1;
#X connect 40 0 5 1;
#X connect 40 0 6 1;
#X connect 40 0 7 1;
#X connect 40 0 11 1;
#X connect 42 0 1 0;
#X connect 42 0 39 0;
#X connect 45 0 44 0;
#X connect 45 0 38 0;
#X connect 46 0 47 0;
#X connect 46 0 48 0;
#X connect 47 0 45 0;
#X connect 48 0 42 0;
#X connect 49 0 50 0;
#X connect 50 0 57 0;
#X connect 51 0 3 0;
#X connect 51 0 8 0;
#X connect 51 0 24 0;
#X connect 51 0 9 0;
#X connect 51 0 10 0;
#X connect 51 0 12 0;
#X connect 53 0 52 0;
#X connect 53 0 54 0;
#X connect 55 0 50 1;
#X connect 57 0 2 0;
#X connect 57 0 19 0;
#X connect 57 0 18 0;
#X connect 57 0 20 0;
#X connect 57 0 21 0;
#X connect 57 0 22 0;
#X connect 58 0 31 0;
#X coords 0 -1 1 1 250 180 1 100 100;
