#N canvas 953 0 958 988 12;
#X obj 100 101 cnv 19 100 50 empty empty Pish 10 25 0 20 #ff8300 #404040 0;
#X obj 220 307 outlet~;
#X obj 160 112 bng 30 250 50 0 empty empty empty 0 -10 0 20 #fcfcfc #000000 #000000;
#X obj 282 248 noise~;
#X obj 162 207 vline~;
#X obj 162 231 *~;
#X obj 319 277 bp~, f 8;
#X obj 345 161 random 36;
#X obj 345 217 mtof;
#X obj 345 247 t f b;
#X msg 386 276 5;
#X obj 219 274 *~;
#X msg 160 174 1 0 \, 0 100;
#X obj 345 191 + 84;
#X connect 2 0 12 0;
#X connect 2 0 7 0;
#X connect 3 0 6 0;
#X connect 4 0 5 0;
#X connect 4 0 5 1;
#X connect 5 0 11 0;
#X connect 6 0 11 1;
#X connect 7 0 13 0;
#X connect 8 0 9 0;
#X connect 9 0 6 1;
#X connect 9 1 10 0;
#X connect 10 0 6 2;
#X connect 11 0 1 0;
#X connect 12 0 4 0;
#X connect 13 0 8 0;
#X coords 0 -1 1 1 100 50 1 100 100;
