#N canvas 91 0 1920 997 12;
#X obj 156 595 output~;
#X msg 101 126 1;
#X msg 101 149 0;
#X obj 157 165 readsf~ 2;
#X obj 391 225 samplerate~ 96000;
#X floatatom 391 249 5 0 0 0 - - - 0;
#X obj 391 202 loadbang;
#X text 150 193 impulse response;
#X obj 156 285 send~ in;
#X obj 281 215 pish~;
#X obj 157 215 Impulse~;
#X obj 251 666 vu 15 120 inmeter empty -1 -8 0 10 #404040 #000000 1 0;
#X obj 250 641 s inmeter;
#X obj 250 618 - 100;
#X obj 250 596 env~ 2048;
#X msg 158 95 open ../../sound/ForMark.wav;
#X msg 158 118 open ../../sound/LittleWaltz.wav;
#X msg 158 72 open ../../sound/DavidCastelloLopezVoix.wav;
#X msg 158 141 open ../../sound/Nocturnal.wav;
#X obj 156 344 MoorerSimpleReverb;
#X obj 156 313 r~ in;
#X obj 156 486 s~ out;
#X obj 156 569 r~ out;
#X text 69 150 STOP;
#X connect 1 0 3 0;
#X connect 2 0 3 0;
#X connect 3 0 8 0;
#X connect 4 0 5 0;
#X connect 6 0 4 0;
#X connect 9 0 8 0;
#X connect 10 0 8 0;
#X connect 13 0 12 0;
#X connect 14 0 13 0;
#X connect 15 0 3 0;
#X connect 15 0 1 0;
#X connect 16 0 3 0;
#X connect 16 0 1 0;
#X connect 17 0 3 0;
#X connect 17 0 1 0;
#X connect 18 0 3 0;
#X connect 18 0 1 0;
#X connect 19 0 21 0;
#X connect 20 0 19 0;
#X connect 22 0 0 0;
#X connect 22 0 0 1;
#X connect 22 0 14 0;
