#N canvas 874 525 429 353 12;
#X obj 125 99 * -60;
#X obj 125 160 /;
#X floatatom 125 194 5 0 0 0 Gain\ (dB) - - 0;
#X obj 144 127 t b f;
#X obj 125 217 + 100;
#X obj 124 241 dbtorms;
#X obj 125 67 inlet;
#X obj 124 279 outlet;
#X obj 221 68 inlet;
#X text 109 39 delayTime in ms;
#X text 239 42 reverbTime in ms;
#X connect 0 0 1 0;
#X connect 1 0 2 0;
#X connect 2 0 4 0;
#X connect 3 0 1 0;
#X connect 3 1 1 1;
#X connect 4 0 5 0;
#X connect 5 0 7 0;
#X connect 6 0 0 0;
#X connect 8 0 3 0;
