#N canvas 370 69 1600 817 12;
#X obj 67 135 inlet~;
#X obj 49 359 outlet~;
#X obj 235 135 inlet;
#X obj 217 262 *~;
#X obj 49 331 +~;
#X obj 26 252 *~;
#X text 112 134 input signal;
#X text 284 134 diffusion parameter;
#X text 104 365 output signal;
#X obj 235 163 / 100;
#X obj 68 262 delread~ \$1-delay \$2;
#X obj 67 191 delwrite~ \$1-delay \$2;
#X text 87 27 alternated APF struture;
#X obj 67 163 +~;
#X obj 235 231 expr $f1;
#X obj 44 231 expr -$f1;
#X obj 236 191 clip -0.99 0.99;
#X obj 308 296 delread~ \$1-delay \$3;
#X text 87 52 \$1-delay sets the delay line name \$2 sets the delay line length in (ms) \$3 alternate delayRead Time, f 35;
#X obj 307 334 outlet~;
#X text 368 335 alternative output signal;
#X connect 0 0 13 0;
#X connect 2 0 9 0;
#X connect 3 0 13 1;
#X connect 4 0 1 0;
#X connect 5 0 4 0;
#X connect 9 0 16 0;
#X connect 10 0 3 0;
#X connect 10 0 4 1;
#X connect 13 0 5 0;
#X connect 13 0 11 0;
#X connect 14 0 3 1;
#X connect 15 0 5 1;
#X connect 16 0 14 0;
#X connect 16 0 15 0;
#X connect 17 0 19 0;
