#N canvas 40 124 772 699 12;
#X obj 243 339 +~;
#X obj 304 446 outlet~;
#X obj 275 338 *~;
#X obj 305 339 delread~ \$1-comb \$2;
#X obj 243 371 delwrite~ \$1-comb \$2;
#X obj 242 233 inlet~;
#X obj 363 153 float \$3;
#X obj 363 114 loadbang;
#X connect 0 0 4 0;
#X connect 2 0 0 1;
#X connect 3 0 2 0;
#X connect 3 0 1 0;
#X connect 5 0 0 0;
#X connect 6 0 2 1;
#X connect 7 0 6 0;
