#N canvas 1329 79 1920 997 12;
#X obj 788 117 samplerate~ 96000;
#X floatatom 788 144 5 0 0 0 - - - 0;
#X obj 788 90 bng 19 250 50 0 empty empty empty 0 -10 0 12 #fcfcfc #000000 #000000;
#X obj 273 672 output~;
#X obj 280 372 r~ in;
#X obj 648 461 Schroeder1961;
#X obj 252 424 DattorroReverb;
#X msg 12 74 1;
#X msg 23 110 0;
#X msg 82 43 open ../sound/LittleWaltz.wav;
#X msg 83 66 open ../sound/ForMark.wav;
#X obj 66 111 readsf~ 2;
#X obj 375 45 samplerate~ 96000;
#X floatatom 375 72 5 0 0 0 - - - 0;
#X msg 85 88 open ../sound/Nocturnal.wav;
#X msg 80 18 open ../sound/DavidCastelloLopezVoix.wav;
#X obj 375 16 loadbang;
#X obj 159 157 vline~;
#X text 153 107 impulse response;
#X msg 159 131 1 0 \, 0 0 1;
#X obj 301 210 s bang;
#X obj 310 173 bang;
#X obj 65 177 send~ in;
#X connect 0 0 1 0;
#X connect 2 0 0 0;
#X connect 4 0 5 0;
#X connect 5 0 3 0;
#X connect 5 0 3 1;
#X connect 7 0 11 0;
#X connect 8 0 11 0;
#X connect 9 0 11 0;
#X connect 9 0 7 0;
#X connect 10 0 11 0;
#X connect 10 0 7 0;
#X connect 11 0 22 0;
#X connect 12 0 13 0;
#X connect 14 0 11 0;
#X connect 14 0 7 0;
#X connect 15 0 11 0;
#X connect 15 0 7 0;
#X connect 16 0 12 0;
#X connect 17 0 22 0;
#X connect 19 0 17 0;
#X connect 19 0 21 0;
#X connect 21 0 20 0;
