#N canvas 78 78 1920 997 12;
#X obj 837 382 expr $f1 / 1000;
#X msg 837 340 29800;
#X text 814 315 Sample Rate;
#X floatatom 909 417 5 0 0 0 - - - 0;
#X text 939 412 Samples / ms;
#X floatatom 904 495 5 0 0 0 - - - 0;
#X obj 748 462 *;
#X obj 905 461 /;
#X floatatom 701 461 5 0 0 0 - - - 0;
#X floatatom 748 517 9 0 0 0 - - - 0;
#X text 947 497 delay time (ms);
#X text 822 446 N samples;
#X text 790 493 N samples;
#X text 633 440 delay time (ms);
#X floatatom 850 462 5 0 0 0 - - - 0;
#X msg 888 340 44100, f 8;
#X msg 963 351 48000;
#X obj 963 457 t b b;
#X text 1096 331 N samples;
#X obj 1123 382 / 44.1;
#X obj 1123 426 * 48;
#X text 1095 469 N samples;
#X floatatom 1123 485 5 0 0 0 - - - 0;
#X floatatom 1123 347 5 0 0 0 - - - 0;
#X obj 1200 433 * 48;
#X text 1172 476 N samples;
#X floatatom 1200 492 5 0 0 0 - - - 0;
#X obj 1200 389 / 29.8;
#X connect 0 0 3 0;
#X connect 0 0 6 1;
#X connect 0 0 7 0;
#X connect 1 0 0 0;
#X connect 3 0 7 1;
#X connect 6 0 9 0;
#X connect 7 0 5 0;
#X connect 8 0 6 0;
#X connect 14 0 7 0;
#X connect 15 0 0 0;
#X connect 16 0 0 0;
#X connect 19 0 20 0;
#X connect 20 0 22 0;
#X connect 23 0 19 0;
#X connect 23 0 27 0;
#X connect 24 0 26 0;
#X connect 27 0 24 0;
