#N canvas 1004 580 1920 997 12;
#X floatatom 490 358 5 0 100 0 - - - 0;
#X msg 492 333 70;
#X obj 492 307 loadbang;
#X obj 358 262 receive~ input;
#X obj 365 465 output~;
#X msg 292 157 1;
#X msg 303 193 0;
#X msg 362 126 open ../sound/LittleWaltz.wav;
#X msg 363 149 open ../sound/ForMark.wav;
#X obj 346 194 readsf~ 2;
#X obj 345 220 send~ input;
#X msg 365 171 open ../sound/Nocturnal.wav;
#X msg 360 101 open ../sound/DavidCastelloLopezVoix.wav;
#X obj 366 364 vline~;
#X msg 365 323 1 0 \, 0 0 1;
#X obj 366 397 allpass~ delay1 30;
#X text 359 299 impulse response;
#X connect 0 0 15 1;
#X connect 1 0 0 0;
#X connect 2 0 1 0;
#X connect 5 0 9 0;
#X connect 6 0 9 0;
#X connect 7 0 9 0;
#X connect 7 0 5 0;
#X connect 8 0 9 0;
#X connect 8 0 5 0;
#X connect 9 0 10 0;
#X connect 11 0 9 0;
#X connect 11 0 5 0;
#X connect 12 0 9 0;
#X connect 12 0 5 0;
#X connect 13 0 15 0;
#X connect 14 0 13 0;
#X connect 15 0 4 0;
#X connect 15 0 4 1;
