#N canvas 851 162 1920 997 12;
#X obj 243 339 +~;
#X obj 443 528 +~;
#X obj 460 300 *~;
#X obj 641 256 / 100;
#X obj 242 233 inlet~ input;
#X obj 442 576 outlet~;
#X obj 243 371 delwrite~ \$1-delay \$2;
#X obj 305 339 delread~ \$1-delay \$2;
#X obj 323 453 expr 1 - ($f1*$f1);
#X obj 305 480 *~;
#X obj 641 226 inlet;
#X obj 641 289 send gain;
#X obj 293 302 receive gain;
#X obj 323 425 receive gain;
#X obj 478 250 receive gain;
#X obj 275 338 *~;
#X obj 478 274 expr -$f1;
#X connect 0 0 6 0;
#X connect 1 0 5 0;
#X connect 2 0 1 1;
#X connect 3 0 11 0;
#X connect 4 0 2 0;
#X connect 4 0 0 0;
#X connect 7 0 9 0;
#X connect 7 0 15 0;
#X connect 8 0 9 1;
#X connect 9 0 1 0;
#X connect 10 0 3 0;
#X connect 12 0 15 1;
#X connect 13 0 8 0;
#X connect 14 0 16 0;
#X connect 15 0 0 1;
#X connect 16 0 2 1;
