#N canvas 107 58 1600 817 12;
#X obj 67 135 inlet~;
#X obj 49 359 outlet~;
#X obj 272 130 inlet;
#X obj 254 257 *~;
#X obj 49 331 +~;
#X obj 26 252 *~;
#X text 87 52 \$1-delay sets the delay line name \$2 sets the delay line length in (ms);
#X text 112 134 input signal;
#X text 321 129 diffusion parameter;
#X text 104 365 output signal;
#X obj 272 158 / 100;
#X text 87 27 alternated APF struture;
#X obj 67 163 +~;
#X obj 272 226 expr $f1;
#X obj 44 231 expr -$f1;
#X obj 273 186 clip -0.99 0.99;
#X obj 66 191 delwrite~ \$1-delay 1000;
#X obj 252 383 +~ \$2;
#X obj 253 359 *~ \$3;
#X obj 67 292 delread4~ \$1-delay;
#X obj 253 334 osc~ \$4;
#X text 339 303 \$1 delay line name \$2 delay time \$3 excursion \$4 modulation rate, f 19;
#X connect 0 0 12 0;
#X connect 2 0 10 0;
#X connect 3 0 12 1;
#X connect 4 0 1 0;
#X connect 5 0 4 0;
#X connect 10 0 15 0;
#X connect 12 0 5 0;
#X connect 12 0 16 0;
#X connect 13 0 3 1;
#X connect 14 0 5 1;
#X connect 15 0 13 0;
#X connect 15 0 14 0;
#X connect 17 0 19 0;
#X connect 18 0 17 0;
#X connect 19 0 3 0;
#X connect 19 0 4 1;
#X connect 20 0 18 0;
