#N canvas 1076 160 772 699 12;
#X obj 243 339 +~;
#X obj 467 271 / 100;
#X obj 242 233 inlet~ input;
#X obj 304 446 outlet~;
#X obj 501 236 inlet;
#X obj 467 304 send gain;
#X obj 293 302 receive gain;
#X obj 275 338 *~;
#X obj 305 339 delread~ \$1-comb \$2;
#X obj 243 371 delwrite~ \$1-comb \$2;
#X obj 421 188 \$3;
#X floatatom 465 403 5 0 0 0 - - - 0;
#X obj 469 128 loadbang;
#X connect 0 0 9 0;
#X connect 1 0 5 0;
#X connect 2 0 0 0;
#X connect 4 0 1 0;
#X connect 6 0 7 1;
#X connect 7 0 0 1;
#X connect 8 0 7 0;
#X connect 8 0 3 0;
#X connect 10 0 5 0;
#X connect 10 0 11 0;
#X connect 12 0 10 0;
