#N canvas 500 0 1600 817 12;
#X msg 22 84 1;
#X msg 23 110 0;
#X obj 66 111 readsf~ 2;
#X obj 279 90 samplerate~ 96000;
#X floatatom 279 117 5 0 0 0 - - - 0;
#X obj 66 258 send~ input;
#X obj 252 207 vline~;
#X msg 252 181 1 0 \, 0 0 1;
#X obj 311 233 s bang;
#X obj 311 207 bang;
#X msg 66 39 open ../sound/Voice.wav;
#X obj 92 156 adc~;
#X obj 91 194 *~;
#X obj 132 157 tgl 19 0 empty empty empty 0 -10 0 12 #fcfcfc #000000 #000000 0 1;
#X text 158 157 ADC on/off;
#X text 255 162 impulse response (1ms);
#X obj 279 63 bng 19 250 50 0 empty empty empty 0 -10 0 12 #fcfcfc #000000 #000000;
#X obj 695 39 r~ input;
#X obj 65 517 vsl 19 60 0 1 0 1 empty empty Mix 0 -9 0 12 #fcfcfc #000000 #000000 0 1;
#X obj 80 588 expr 1 - $f1;
#X obj 47 610 *~;
#X obj 79 640 *~;
#X obj 47 639 +~;
#X floatatom 91 564 5 0 0 0 - - - 0;
#X obj 46 705 output~;
#X obj 48 476 r~ input;
#X obj 1179 593 s~ algorithmOutput;
#X obj 97 613 r~ algorithmOutput;
#X floatatom 976 58 5 0 99 1 in\ difussion\ 1 - - 0;
#X obj 1287 99 expr $f1 / 1000;
#X msg 1287 57 29800;
#X text 1264 32 Sample Rate;
#X floatatom 1345 130 5 0 0 0 - - - 0;
#X text 1389 129 Samples / ms;
#X floatatom 1354 212 5 0 0 0 - - - 0;
#X obj 1198 179 *;
#X obj 1355 178 /;
#X floatatom 1151 178 5 0 0 0 - - - 0;
#X floatatom 1198 210 9 0 0 0 - - - 0;
#X text 1397 214 delay time (ms);
#X text 1291 160 N samples;
#X text 1240 210 N samples;
#X text 1083 157 delay time (ms);
#X obj 976 83 * -1;
#X floatatom 975 187 5 0 99 1 in\ difussion\ 2 - - 0;
#X obj 975 212 * -1;
#X obj 791 207 alternateAPF~ APF4 9.3;
#X obj 789 110 alternateAPF~ APF1 4.93;
#X obj 790 171 alternateAPF~ APF3 12.7;
#X obj 790 143 alternateAPF~ APF2 3.6;
#X floatatom 564 315 5 0 99 2 decay\ difussion\ 1 - - 0;
#X obj 344 343 alternateAPF_modulated~ modAPF1 22.55 0.536 1, f 32;
#X obj 632 346 alternateAPF_modulated~ modAPF2 30.46 0.536 1, f 34;
#X obj 345 430 delread~ dline1 149.4;
#X obj 344 400 delwrite~ dline1 200;
#X floatatom 1305 175 5 0 0 0 - - - 0;
#X obj 344 743 +~;
#X obj 345 584 delwrite~ dline2 200;
#X obj 346 614 delread~ dline2 124.8;
#X obj 632 400 delwrite~ dline3 200;
#X obj 633 586 delwrite~ dline4 200;
#X obj 633 432 delread~ dline3 141.5;
#X obj 597 742 +~;
#X obj 788 237 s~ inputDiffusers;
#X obj 449 741 r~ inputDiffusers;
#X floatatom 816 445 5 0 99 2 decay\ difussion\ 2 - - 0;
#X msg 1338 57 44100, f 8;
#X text 312 430 a;
#X text 313 540 b;
#X text 317 612 c;
#X text 602 434 d;
#X text 603 544 e;
#X text 607 616 f;
#X obj 1178 333 delread~ dline1 8.926;
#X obj 1213 389 delread~ dline1 99.79;
#X obj 1214 455 delread~ dline2 66.94;
#X obj 1214 491 delread~ dline3 66.77;
#X obj 1270 531 delread~ dline4 35.77;
#X obj 1179 389 +~;
#X obj 1179 457 +~;
#X obj 1179 423 -~;
#X obj 1179 491 -~;
#X obj 1179 525 -~;
#X obj 1179 559 -~;
#X obj 633 539 alternateAPF~ APF6 89.12 66.81;
#X obj 345 537 alternateAPF~ APF5 60.4 64.19;
#X obj 564 248 loadbang;
#X obj 976 7 loadbang;
#X msg 976 35 75;
#X obj 975 134 loadbang;
#X msg 564 276 70;
#X obj 816 383 loadbang;
#X msg 816 411 50;
#X msg 975 162 62.5;
#X obj 789 84 lop~;
#X obj 343 488 lop~;
#X obj 633 494 lop~;
#X obj 875 37 vsl 19 60 0 21000 0 0 empty empty empty 0 -9 0 12 #fcfcfc #000000 #000000 0 1;
#X obj 552 421 vsl 19 60 0 20000 0 0 empty empty empty 0 -9 0 12 #fcfcfc #000000 #000000 0 1;
#X floatatom 900 83 5 0 0 0 - - - 0;
#X floatatom 552 494 6 0 0 0 - - - 0;
#X obj 634 616 delread~ dline4 105.2;
#X obj 348 645 *~;
#X obj 544 581 vsl 19 60 0 1 0 0 empty empty empty 0 -9 0 12 #fcfcfc #000000 #000000 0 1;
#X obj 625 655 *~;
#X floatatom 522 662 6 0 0 0 - - - 0;
#X connect 0 0 2 0;
#X connect 1 0 2 0;
#X connect 2 0 5 0;
#X connect 3 0 4 0;
#X connect 6 0 5 0;
#X connect 7 0 6 0;
#X connect 7 0 9 0;
#X connect 9 0 8 0;
#X connect 10 0 2 0;
#X connect 10 0 0 0;
#X connect 11 0 12 0;
#X connect 11 1 12 0;
#X connect 12 0 5 0;
#X connect 13 0 12 1;
#X connect 16 0 3 0;
#X connect 17 0 94 0;
#X connect 18 0 19 0;
#X connect 18 0 20 1;
#X connect 18 0 23 0;
#X connect 19 0 21 0;
#X connect 20 0 22 0;
#X connect 21 0 22 1;
#X connect 22 0 24 0;
#X connect 22 0 24 1;
#X connect 25 0 20 0;
#X connect 27 0 21 1;
#X connect 28 0 43 0;
#X connect 29 0 32 0;
#X connect 29 0 35 1;
#X connect 29 0 36 1;
#X connect 30 0 29 0;
#X connect 35 0 38 0;
#X connect 36 0 34 0;
#X connect 37 0 35 0;
#X connect 43 0 49 1;
#X connect 43 0 47 1;
#X connect 44 0 45 0;
#X connect 45 0 46 1;
#X connect 45 0 48 1;
#X connect 46 0 63 0;
#X connect 47 0 49 0;
#X connect 48 0 46 0;
#X connect 49 0 48 0;
#X connect 50 0 51 1;
#X connect 50 0 52 1;
#X connect 51 0 54 0;
#X connect 52 0 59 0;
#X connect 53 0 95 0;
#X connect 55 0 36 0;
#X connect 56 0 51 0;
#X connect 58 0 102 0;
#X connect 61 0 96 0;
#X connect 62 0 52 0;
#X connect 64 0 56 1;
#X connect 64 0 62 0;
#X connect 65 0 85 1;
#X connect 65 0 84 1;
#X connect 66 0 29 0;
#X connect 73 0 78 0;
#X connect 74 0 78 1;
#X connect 75 0 79 1;
#X connect 76 0 81 1;
#X connect 77 0 83 1;
#X connect 78 0 80 0;
#X connect 79 0 81 0;
#X connect 80 0 79 0;
#X connect 81 0 82 0;
#X connect 82 0 83 0;
#X connect 83 0 26 0;
#X connect 84 0 60 0;
#X connect 84 1 82 1;
#X connect 85 0 57 0;
#X connect 85 1 80 1;
#X connect 86 0 90 0;
#X connect 87 0 88 0;
#X connect 88 0 28 0;
#X connect 89 0 93 0;
#X connect 90 0 50 0;
#X connect 91 0 92 0;
#X connect 92 0 65 0;
#X connect 93 0 44 0;
#X connect 94 0 47 0;
#X connect 95 0 85 0;
#X connect 96 0 84 0;
#X connect 97 0 94 1;
#X connect 97 0 99 0;
#X connect 98 0 95 1;
#X connect 98 0 96 1;
#X connect 98 0 100 0;
#X connect 101 0 104 0;
#X connect 102 0 56 0;
#X connect 103 0 102 1;
#X connect 103 0 104 1;
#X connect 103 0 105 0;
#X connect 104 0 62 1;
