#N canvas 792 -8 800 817 12;
#X obj 205 188 inlet~;
#X obj 203 472 outlet~;
#X obj 204 307 delwrite~ \$1-oscComb \$2;
#X obj 204 341 delread~ \$1-oscComb \$2;
#X obj 204 379 delwrite~ \$1-oscComb \$2;
#X obj 204 417 delread~ \$1-oscComb \$2;
#X obj 205 226 +~;
#X obj 205 264 +~;
#X obj 403 372 *~ \$3;
#X obj 407 481 *~ \$4;
#X connect 0 0 6 0;
#X connect 3 0 4 0;
#X connect 3 0 8 0;
#X connect 5 0 9 0;
#X connect 5 0 1 0;
#X connect 6 0 7 0;
#X connect 7 0 2 0;
#X connect 8 0 6 1;
#X connect 9 0 7 1;
