#N canvas 630 68 772 699 12;
#X floatatom 471 338 5 0 100 0 gain - - 0;
#X obj 294 570 output~;
#X msg 12 74 1;
#X msg 23 110 0;
#X msg 82 43 open ../sound/LittleWaltz.wav;
#X msg 83 66 open ../sound/ForMark.wav;
#X obj 66 111 readsf~ 2;
#X obj 524 117 samplerate~ 96000;
#X floatatom 524 144 5 0 0 0 - - - 0;
#X obj 65 137 send~ input;
#X msg 85 88 open ../sound/Nocturnal.wav;
#X msg 80 18 open ../sound/DavidCastelloLopezVoix.wav;
#X obj 524 88 loadbang;
#X obj 291 302 receive~ input;
#X floatatom 471 386 5 -100 100 0 gain - - 0;
#X obj 291 344 allpass~ delay1 100;
#X floatatom 472 428 5 0 100 0 gain - - 0;
#X obj 291 386 allpass~ delay2 68;
#X obj 291 428 allpass~ delay3 60;
#X obj 291 470 allpass~ delay4 19.7;
#X obj 562 312 loadbang;
#X msg 471 316 70;
#X msg 472 407 70;
#X msg 472 362 -70;
#X floatatom 474 469 5 -100 100 0 gain - - 0;
#X msg 472 448 70;
#X floatatom 476 515 5 -100 100 0 gain - - 0;
#X msg 476 493 70;
#X obj 291 512 allpass~ delay5 5.85;
#X connect 0 0 15 1;
#X connect 2 0 6 0;
#X connect 3 0 6 0;
#X connect 4 0 6 0;
#X connect 4 0 2 0;
#X connect 5 0 6 0;
#X connect 5 0 2 0;
#X connect 6 0 9 0;
#X connect 7 0 8 0;
#X connect 10 0 6 0;
#X connect 10 0 2 0;
#X connect 11 0 6 0;
#X connect 12 0 7 0;
#X connect 13 0 15 0;
#X connect 14 0 17 1;
#X connect 15 0 17 0;
#X connect 16 0 18 1;
#X connect 17 0 18 0;
#X connect 18 0 19 0;
#X connect 19 0 28 0;
#X connect 20 0 21 0;
#X connect 20 0 23 0;
#X connect 20 0 22 0;
#X connect 20 0 27 0;
#X connect 20 0 25 0;
#X connect 21 0 0 0;
#X connect 22 0 16 0;
#X connect 23 0 14 0;
#X connect 24 0 19 1;
#X connect 25 0 24 0;
#X connect 26 0 28 1;
#X connect 27 0 26 0;
#X connect 28 0 1 0;
#X connect 28 0 1 1;
