#N canvas 652 117 1600 817 12;
#X obj 328 619 output~;
#X obj 524 117 samplerate~ 96000;
#X floatatom 524 144 5 0 0 0 - - - 0;
#X obj 524 88 loadbang;
#X obj 64 317 receive~ input;
#X obj 64 359 allpass~ delay1 100;
#X obj 64 401 allpass~ delay2 68;
#X obj 64 443 allpass~ delay3 60;
#X obj 64 485 allpass~ delay4 19.7;
#X obj 64 527 allpass~ delay5 5.85;
#X floatatom 208 309 5 0 100 0 - - - 0;
#X obj 211 401 * -1;
#X msg 210 284 70;
#X obj 210 258 loadbang;
#X obj 532 398 allpass~ delay1 100;
#X floatatom 657 360 5 0 100 0 - - - 0;
#X msg 659 335 70;
#X obj 659 309 loadbang;
#X obj 532 367 receive~ input;
#X msg 12 74 1;
#X msg 23 110 0;
#X msg 82 43 open ../sound/LittleWaltz.wav;
#X msg 83 66 open ../sound/ForMark.wav;
#X obj 66 111 readsf~ 2;
#X obj 375 45 samplerate~ 96000;
#X floatatom 375 72 5 0 0 0 - - - 0;
#X obj 65 177 send~ input;
#X msg 85 88 open ../sound/Nocturnal.wav;
#X msg 80 18 open ../sound/DavidCastelloLopezVoix.wav;
#X obj 375 16 loadbang;
#X obj 159 157 vline~;
#X text 153 107 impulse response;
#X msg 159 131 1 0 \, 0 0 1;
#X obj 301 210 s bang;
#X obj 310 173 bang;
#X connect 1 0 2 0;
#X connect 3 0 1 0;
#X connect 4 0 5 0;
#X connect 5 0 6 0;
#X connect 6 0 7 0;
#X connect 7 0 8 0;
#X connect 8 0 9 0;
#X connect 9 0 0 0;
#X connect 9 0 0 1;
#X connect 10 0 5 1;
#X connect 10 0 7 1;
#X connect 10 0 8 1;
#X connect 10 0 9 1;
#X connect 10 0 11 0;
#X connect 11 0 6 1;
#X connect 12 0 10 0;
#X connect 13 0 12 0;
#X connect 15 0 14 1;
#X connect 16 0 15 0;
#X connect 17 0 16 0;
#X connect 18 0 14 0;
#X connect 19 0 23 0;
#X connect 20 0 23 0;
#X connect 21 0 23 0;
#X connect 21 0 19 0;
#X connect 22 0 23 0;
#X connect 22 0 19 0;
#X connect 23 0 26 0;
#X connect 24 0 25 0;
#X connect 27 0 23 0;
#X connect 27 0 19 0;
#X connect 28 0 23 0;
#X connect 28 0 19 0;
#X connect 29 0 24 0;
#X connect 30 0 26 0;
#X connect 32 0 30 0;
#X connect 32 0 34 0;
#X connect 34 0 33 0;
