#N canvas -152 101 1604 861 12;
#X obj 481 336 *~;
#X obj 540 334 *~;
#X obj 498 286 line~;
#X msg 559 249 \$1 20;
#X msg 498 249 \$1 20;
#X obj 559 286 line~;
#X obj 338 185 inlet~;
#X obj 406 185 inlet~;
#X obj 605 96 inlet;
#X obj 488 436 outlet~;
#X obj 497 188 == 0;
#X obj 560 188 == 1;
#X obj 630 189 == 2;
#X obj 643 342 *~;
#X msg 629 224 0;
#X connect 0 0 9 0;
#X connect 1 0 9 0;
#X connect 2 0 0 1;
#X connect 3 0 5 0;
#X connect 4 0 2 0;
#X connect 5 0 1 1;
#X connect 6 0 0 0;
#X connect 6 0 13 0;
#X connect 7 0 1 0;
#X connect 8 0 10 0;
#X connect 8 0 11 0;
#X connect 8 0 12 0;
#X connect 10 0 4 0;
#X connect 11 0 3 0;
#X connect 12 0 14 0;
#X connect 13 0 9 0;
#X connect 14 0 13 1;
