#N canvas 1870 1031 1920 997 12;
#X obj 292 493 delread~ tap1;
#X text 294 363 delay line 1, f 13;
#X obj 293 614 *~;
#X floatatom 426 463 5 0 0 2 Delay\ (ms) - - 0;
#X obj 426 493 delread~ tap1;
#X obj 427 614 *~;
#X floatatom 554 466 5 0 0 2 Delay\ (ms) - - 0;
#X obj 554 493 delread~ tap1;
#X obj 555 614 *~;
#X floatatom 674 466 5 0 0 2 Delay\ (ms) - - 0;
#X obj 674 493 delread~ tap1;
#X obj 675 614 *~;
#X text 427 363 delay line 2, f 13;
#X text 552 363 delay line 3;
#X text 676 363 delay line 4;
#X obj 294 706 +~;
#X obj 328 706 +~;
#X obj 364 706 +~;
#X floatatom 481 739 5 0 0 0 - - - 0;
#X obj 481 649 b;
#X obj 363 739 /~;
#X obj 481 679 expr $f1 + $f2 +$f3 +$f4;
#X obj 481 709 clip 1 4;
#X obj 445 574 line~ \$1 20;
#X obj 572 574 line~ \$1 20;
#X obj 693 574 line~ \$1 20;
#X obj 311 574 line~ \$1 10;
#X obj 397 739 line \$1 20;
#X obj 334 462 * 1.618;
#X obj 470 463 * 1.618;
#X obj 595 466 * 1.618;
#X obj 100 100 cnv 19 610 200 empty empty Analog\ Multitap\ Delay 20 12 0 12 #e0e0e0 #404040 0;
#X obj 116 263 hsl 100 19 0.001 0.125 1 0 empty empty noise\ level -2 -10 0 12 #fcfcfc #000000 #000000 0 1;
#X msg 224 264 0;
#X msg 258 264 0.125;
#X obj 322 140 hsl 100 19 0 1 0 0 empty empty Input\ Level -2 -10 0 12 #fcfcfc #000000 #000000 0 1;
#X floatatom 223 177 5 0 0 2 Delay\ (ms) - - 0;
#X floatatom 434 178 5 0 100 2 - - - 0;
#X obj 298 308 s inLvl;
#X obj 323 221 hsl 100 19 20 15000 1 0 empty empty Low-pass -2 -10 0 12 #fcfcfc #000000 #000000 0 1;
#X floatatom 434 221 6 0 0 0 - - - 0;
#X obj 376 307 s lowpass;
#X obj 323 264 hsl 100 19 20 15000 1 0 empty empty High-pass -2 -10 0 12 #fcfcfc #000000 #000000 0 1;
#X floatatom 434 264 6 0 0 0 - - - 0;
#X obj 377 330 s highpass;
#X obj 116 225 hsl 100 19 1 3 0 0 empty empty Saturation -2 -10 0 12 #fcfcfc #000000 #000000 0 1;
#X obj 9 248 s saturation;
#X obj 9 286 s noiseLvl;
#X obj 115 139 hsl 100 19 0 1 0 0 empty empty Mix -2 -10 0 12 #fcfcfc #000000 #000000 0 1;
#X obj 9 172 s mix;
#X floatatom 223 139 6 0 0 0 - - - 0;
#X obj 323 178 hsl 100 19 0 1 0 0 empty empty Feedback -2 -10 0 12 #fcfcfc #000000 #000000 0 1;
#X obj 298 330 s feedback;
#X obj 9 210 s delay;
#X obj 115 177 hsl 100 19 100 10000 1 0 empty empty Delay\ (ms) -2 -10 0 12 #fcfcfc #000000 #000000 0 1;
#X floatatom 224 226 6 0 0 0 - - - 0;
#X floatatom 434 140 6 0 0 0 - - - 0;
#X obj 80 46 loadbang;
#X msg 80 70 1;
#X obj 171 22 inlet~;
#X text 24 486 writing to delay buffer;
#X obj 31 438 r~ outDelay;
#X obj 13 463 +~;
#X obj 37 390 r inLvl;
#X obj 13 506 delwrite~ tap1 10000;
#X obj 171 46 s~ input;
#X obj 13 356 r~ input;
#X obj 12 416 *~ 1;
#X obj 18 753 outlet~;
#X obj 52 650 expr 1 - $f1;
#X obj 19 672 *~;
#X obj 51 702 *~;
#X obj 19 701 +~;
#X obj 37 615 r mix;
#X obj 19 592 r~ outDelay;
#X obj 70 674 r~ input;
#X obj 919 550 noise~;
#X obj 989 606 *~;
#X obj 919 574 lop~ 890;
#X obj 989 633 s~ noise;
#X obj 989 574 hip~ 6600;
#X obj 1024 606 r noiseLvl;
#X text 919 528 Noise generation;
#X obj 810 841 *~;
#X text 910 739 log;
#X text 914 671 log;
#X floatatom 892 495 5 0 0 0 - - - 0;
#X obj 892 468 expr 1 / $f1;
#X obj 811 516 *~;
#X obj 811 469 clip~ -1 1;
#X obj 847 550 r~ noise;
#X obj 810 870 s~ outDelay;
#X obj 857 644 r lowpass;
#X obj 857 711 r highpass;
#X obj 836 412 r saturation;
#X obj 828 811 r feedback;
#X text 841 392 Saturation generation;
#X text 823 620 Filtering;
#X text 832 790 Feedback;
#X obj 811 442 *~ 1;
#X obj 811 739 hip~ 20;
#X obj 811 672 lop~ 20000;
#X obj 445 536 r taplvl2;
#X obj 574 536 r taplvl3;
#X obj 693 536 r taplvl4;
#X obj 712 132 s taplvl1;
#X obj 712 156 s taplvl2;
#X obj 712 180 s taplvl3;
#X obj 712 204 s taplvl4;
#X obj 499 125 vsl 19 100 0 1 0 0 empty empty Tap\ 1 -9 -9 0 12 #fcfcfc #000000 #000000 0 1;
#X obj 544 125 vsl 19 100 0 1 0 0 empty empty Tap\ 2 -9 -9 0 12 #fcfcfc #000000 #000000 0 1;
#X obj 586 125 vsl 19 100 0 1 0 0 empty empty Tap\ 3 -9 -9 0 12 #fcfcfc #000000 #000000 0 1;
#X obj 633 125 vsl 19 100 0 1 0 0 empty empty Tap\ 4 -9 -9 0 12 #fcfcfc #000000 #000000 0 1;
#X msg 499 233 0;
#X msg 544 233 0;
#X msg 586 233 0;
#X msg 633 233 0;
#X obj 549 276 hsl 100 19 1 3 0 1 empty empty Time\ Ratio -2 -10 0 12 #fcfcfc #000000 #000000 3059 1;
#X floatatom 656 276 6 0 0 0 - - - 0;
#X obj 551 315 s timeRatio;
#X obj 502 392 r timeRatio;
#X obj 267 462 r delay;
#X obj 311 536 r taplvl1;
#X obj 502 414 t b f;
#X text 524 741 normalizing the sum of tap level;
#X obj 364 775 s~ outTaps;
#X obj 812 366 r~ outTaps;
#X obj 810 550 +~;
#X msg 116 70 0;
#X msg 57 176 1000;
#X text 102 623 wet / dry;
#X msg 496 276 1.618;
#X connect 0 0 2 0;
#X connect 2 0 15 0;
#X connect 3 0 4 0;
#X connect 3 0 29 0;
#X connect 4 0 5 0;
#X connect 5 0 15 1;
#X connect 6 0 7 0;
#X connect 6 0 30 0;
#X connect 7 0 8 0;
#X connect 8 0 16 1;
#X connect 9 0 10 0;
#X connect 10 0 11 0;
#X connect 11 0 17 1;
#X connect 15 0 16 0;
#X connect 16 0 17 0;
#X connect 17 0 20 0;
#X connect 19 0 21 0;
#X connect 20 0 125 0;
#X connect 21 0 22 2;
#X connect 21 0 22 0;
#X connect 22 0 18 0;
#X connect 22 0 27 0;
#X connect 23 0 5 1;
#X connect 24 0 8 1;
#X connect 25 0 11 1;
#X connect 26 0 2 1;
#X connect 27 0 20 1;
#X connect 28 0 3 0;
#X connect 29 0 6 0;
#X connect 30 0 9 0;
#X connect 32 0 47 0;
#X connect 33 0 32 0;
#X connect 34 0 32 0;
#X connect 35 0 38 0;
#X connect 35 0 56 0;
#X connect 39 0 40 0;
#X connect 39 0 41 0;
#X connect 42 0 43 0;
#X connect 42 0 44 0;
#X connect 45 0 46 0;
#X connect 45 0 55 0;
#X connect 48 0 49 0;
#X connect 48 0 50 0;
#X connect 51 0 37 0;
#X connect 51 0 52 0;
#X connect 54 0 36 0;
#X connect 54 0 53 0;
#X connect 57 0 58 0;
#X connect 57 0 128 0;
#X connect 57 0 129 0;
#X connect 58 0 48 0;
#X connect 58 0 45 0;
#X connect 58 0 35 0;
#X connect 58 0 109 0;
#X connect 59 0 65 0;
#X connect 61 0 62 1;
#X connect 62 0 64 0;
#X connect 63 0 67 1;
#X connect 66 0 67 0;
#X connect 67 0 62 0;
#X connect 69 0 71 0;
#X connect 70 0 72 0;
#X connect 71 0 72 1;
#X connect 72 0 68 0;
#X connect 73 0 69 0;
#X connect 73 0 70 1;
#X connect 74 0 70 0;
#X connect 75 0 71 1;
#X connect 76 0 78 0;
#X connect 77 0 79 0;
#X connect 78 0 80 0;
#X connect 80 0 77 0;
#X connect 81 0 77 1;
#X connect 83 0 91 0;
#X connect 87 0 86 0;
#X connect 87 0 88 1;
#X connect 88 0 127 0;
#X connect 89 0 88 0;
#X connect 90 0 127 1;
#X connect 92 0 101 1;
#X connect 93 0 100 1;
#X connect 94 0 87 0;
#X connect 94 0 99 1;
#X connect 95 0 83 1;
#X connect 99 0 89 0;
#X connect 100 0 83 0;
#X connect 101 0 100 0;
#X connect 102 0 23 0;
#X connect 102 0 21 1;
#X connect 102 0 19 0;
#X connect 103 0 24 0;
#X connect 103 0 19 0;
#X connect 103 0 21 2;
#X connect 104 0 25 0;
#X connect 104 0 19 0;
#X connect 104 0 21 3;
#X connect 109 0 105 0;
#X connect 110 0 106 0;
#X connect 111 0 107 0;
#X connect 112 0 108 0;
#X connect 113 0 109 0;
#X connect 114 0 110 0;
#X connect 115 0 111 0;
#X connect 116 0 112 0;
#X connect 117 0 118 0;
#X connect 117 0 119 0;
#X connect 120 0 123 0;
#X connect 121 0 0 0;
#X connect 121 0 28 0;
#X connect 122 0 26 0;
#X connect 122 0 19 0;
#X connect 122 0 21 0;
#X connect 123 0 28 0;
#X connect 123 0 29 0;
#X connect 123 0 30 0;
#X connect 123 1 29 1;
#X connect 123 1 30 1;
#X connect 123 1 28 1;
#X connect 126 0 99 0;
#X connect 127 0 101 0;
#X connect 128 0 32 0;
#X connect 129 0 54 0;
#X connect 131 0 117 0;
#X coords 0 -1 1 1 610 200 1 100 100;
