#N canvas 1917 0 1920 997 12;
#X obj 744 361 noise~;
#X obj 814 417 *~;
#X obj 744 389 lop~ 890;
#X obj 813 448 s~ noise;
#X obj 813 390 hip~ 6600;
#X obj 848 417 r noiseLvl;
#X obj 141 370 inlet~;
#X obj 634 880 outlet~;
#X obj 101 100 cnv 19 400 200 empty empty Analog\ Delay 20 12 0 12 #dfdfdf #404040 0;
#X obj 116 263 hsl 100 19 0.001 0.125 1 0 empty empty noise\ level -2 -10 0 12 #fcfcfc #000000 #000000 0 1;
#X msg 224 264 0;
#X msg 258 264 0.125;
#X text 151 563 writing to delay buffer;
#X obj 668 777 expr 1 - $f1;
#X obj 635 799 *~;
#X obj 667 829 *~;
#X obj 635 828 +~;
#X obj 158 515 r~ outDelay;
#X obj 140 540 +~;
#X obj 322 140 hsl 100 19 0 1 0 0 empty empty Input\ Level -2 -10 0 12 #fcfcfc #000000 #000000 0 1;
#X floatatom 223 177 5 0 0 2 Delay\ (ms) - - 0;
#X obj 634 657 *~;
#X floatatom 434 178 5 0 100 2 - - - 0;
#X text 734 555 log;
#X text 738 487 log;
#X floatatom 717 311 5 0 0 0 - - - 0;
#X obj 717 284 expr 1 / $f1;
#X obj 636 332 *~;
#X obj 636 285 clip~ -1 1;
#X obj 671 366 r~ noise;
#X obj 636 168 delread~ tap1;
#X obj 528 164 s inLvl;
#X obj 164 467 r inLvl;
#X obj 634 686 s~ outDelay;
#X obj 681 460 r lowpass;
#X obj 323 221 hsl 100 19 20 15000 1 0 empty empty Low-pass -2 -10 0 12 #fcfcfc #000000 #000000 0 1;
#X floatatom 434 221 6 0 0 0 - - - 0;
#X obj 528 243 s lowpass;
#X obj 681 527 r highpass;
#X obj 323 264 hsl 100 19 20 15000 1 0 empty empty High-pass -2 -10 0 12 #fcfcfc #000000 #000000 0 1;
#X floatatom 434 264 6 0 0 0 - - - 0;
#X obj 529 285 s highpass;
#X obj 654 231 r saturation;
#X obj 116 225 hsl 100 19 1 3 0 0 empty empty Saturation -2 -10 0 12 #fcfcfc #000000 #000000 0 1;
#X obj 9 248 s saturation;
#X obj 9 286 s noiseLvl;
#X obj 653 742 r mix;
#X obj 115 139 hsl 100 19 0 1 0 0 empty empty Mix -2 -10 0 12 #fcfcfc #000000 #000000 0 1;
#X obj 9 172 s mix;
#X floatatom 223 139 6 0 0 0 - - - 0;
#X obj 323 178 hsl 100 19 0 1 0 0 empty empty Feedback -2 -10 0 12 #fcfcfc #000000 #000000 0 1;
#X obj 528 200 s feedback;
#X obj 652 627 r feedback;
#X obj 9 210 s delay;
#X obj 636 142 r delay;
#X obj 115 177 hsl 100 19 100 10000 1 0 empty empty Delay\ (ms) -2 -10 0 12 #fcfcfc #000000 #000000 0 1;
#X floatatom 224 226 6 0 0 0 - - - 0;
#X floatatom 434 140 6 0 0 0 - - - 0;
#X text 743 339 Noise generation;
#X text 689 213 Saturation generation;
#X text 718 750 Output Mixer (wet / dry);
#X text 668 436 Filtering;
#X text 656 606 Feedback;
#X obj 140 583 delwrite~ tap1 10000;
#X obj 141 394 s~ input;
#X obj 140 433 r~ input;
#X obj 139 493 *~ 1;
#X obj 635 719 r~ outDelay;
#X obj 686 801 r~ input;
#X obj 636 258 *~ 1;
#X obj 635 555 hip~ 20;
#X obj 635 488 lop~ 20000;
#X obj 634 366 +~ 0;
#X obj 80 46 loadbang;
#X msg 80 70 1;
#X connect 0 0 2 0;
#X connect 1 0 3 0;
#X connect 2 0 4 0;
#X connect 4 0 1 0;
#X connect 5 0 1 1;
#X connect 6 0 64 0;
#X connect 9 0 45 0;
#X connect 10 0 9 0;
#X connect 11 0 9 0;
#X connect 13 0 15 0;
#X connect 14 0 16 0;
#X connect 15 0 16 1;
#X connect 16 0 7 0;
#X connect 17 0 18 1;
#X connect 18 0 63 0;
#X connect 19 0 31 0;
#X connect 19 0 57 0;
#X connect 21 0 33 0;
#X connect 26 0 25 0;
#X connect 26 0 27 1;
#X connect 27 0 72 0;
#X connect 28 0 27 0;
#X connect 29 0 72 1;
#X connect 30 0 69 0;
#X connect 32 0 66 1;
#X connect 34 0 71 1;
#X connect 35 0 36 0;
#X connect 35 0 37 0;
#X connect 38 0 70 1;
#X connect 39 0 40 0;
#X connect 39 0 41 0;
#X connect 42 0 26 0;
#X connect 42 0 69 1;
#X connect 43 0 44 0;
#X connect 43 0 56 0;
#X connect 46 0 13 0;
#X connect 46 0 14 1;
#X connect 47 0 48 0;
#X connect 47 0 49 0;
#X connect 50 0 22 0;
#X connect 50 0 51 0;
#X connect 52 0 21 1;
#X connect 54 0 30 0;
#X connect 55 0 20 0;
#X connect 55 0 53 0;
#X connect 65 0 66 0;
#X connect 66 0 18 0;
#X connect 67 0 14 0;
#X connect 68 0 15 1;
#X connect 69 0 28 0;
#X connect 70 0 21 0;
#X connect 71 0 70 0;
#X connect 72 0 71 0;
#X connect 73 0 74 0;
#X connect 74 0 47 0;
#X connect 74 0 43 0;
#X connect 74 0 19 0;
#X coords 0 -1 1 1 400 200 1 100 100;
