#N canvas 151 -12 1920 997 12;
#X msg 12 74 1;
#X msg 23 110 0;
#X text 156 526 writing to delay buffer;
#X obj 145 546 delwrite~ tap1 1000;
#X floatatom 352 430 5 0 0 2 Delay\ (ms) - - 0;
#X obj 352 847 *~;
#X floatatom 384 822 5 0 100 2 Feedback\ (%) - - 0;
#X text 354 386 delay line 1, f 16;
#X obj 153 624 vsl 19 60 0 1 0 1 empty empty Mix 0 -9 0 12 #fcfcfc #000000 #000000 0 1;
#X obj 168 694 expr 1 - $f1;
#X obj 135 716 *~;
#X obj 167 746 *~;
#X obj 135 745 +~;
#X floatatom 179 670 5 0 0 0 - - - 0;
#X obj 134 811 output~;
#X msg 82 43 open ../sound/LittleWaltz.wav;
#X msg 83 66 open ../sound/ForMark.wav;
#X obj 66 111 readsf~ 2;
#X obj 524 117 samplerate~ 96000;
#X floatatom 524 144 5 0 0 0 - - - 0;
#X obj 384 846 / 100;
#X obj 65 137 send~ input;
#X obj 134 409 receive~ input;
#X obj 185 721 r~ outDelay;
#X obj 133 487 *~;
#X obj 165 487 r~ outDelay;
#X obj 134 512 +~;
#X obj 174 459 hsl 60 19 0 1 0 0 empty empty Input\ Level -2 -10 0 12 #fcfcfc #000000 #000000 0 1;
#X obj 351 717 lop~;
#X obj 351 784 hip~;
#X obj 398 693 hsl 162 19 20 15000 1 0 empty empty low-cut -2 -10 0 12 #fcfcfc #000000 #000000 0 1;
#X floatatom 395 718 6 0 0 0 - - - 0;
#X obj 398 758 hsl 162 19 20 15000 1 0 empty empty hig-pass -2 -10 0 12 #fcfcfc #000000 #000000 0 1;
#X floatatom 395 784 6 0 0 0 - - - 0;
#X text 476 721 log;
#X text 465 674 log;
#X obj 352 546 *~;
#X obj 373 516 hsl 162 19 1 3 0 0 empty empty Saturation -2 -10 0 12 #fcfcfc #000000 #000000 0 1;
#X msg 85 88 open ../sound/Nocturnal.wav;
#X floatatom 443 573 5 0 0 0 - - - 0;
#X obj 443 546 expr 1 / $f1;
#X obj 352 620 *~;
#X obj 352 573 clip~ -1 1;
#X obj 143 233 noise~;
#X obj 350 654 +~;
#X obj 219 313 hsl 162 19 0.001 0.125 1 0 empty empty noise\ level -2 -10 0 12 #fcfcfc #000000 #000000 0 1;
#X obj 144 316 *~;
#X msg 80 18 open ../sound/DavidCastelloLopezVoix.wav;
#X obj 143 261 lop~ 890;
#X obj 143 347 s~ noise;
#X obj 380 653 r~ noise;
#X obj 524 88 loadbang;
#X msg 370 477 1;
#X msg 215 274 0;
#X floatatom 1015 122 5 30 1000 2 Delay\ (ms) - - 0;
#X obj 1093 850 *~;
#X floatatom 1125 826 5 0 100 2 Feedback\ (%) - - 0;
#X obj 1015 190 delread~ tap1;
#X text 1017 78 delay line 1, f 13;
#X obj 1092 720 lop~;
#X obj 1092 787 hip~;
#X obj 1139 693 hsl 162 19 20 15000 1 0 empty empty low-pass -2 -10 0 12 #fcfcfc #000000 #000000 0 1;
#X floatatom 1136 721 6 0 0 0 - - - 0;
#X obj 1139 761 hsl 162 19 20 15000 1 0 empty empty hig-pass -2 -10 0 12 #fcfcfc #000000 #000000 0 1;
#X floatatom 1136 787 6 0 0 0 - - - 0;
#X text 1217 724 log;
#X text 1206 677 log;
#X obj 1093 549 *~;
#X obj 1114 519 hsl 162 19 1 3 0 0 empty empty Saturation -2 -10 0 12 #fcfcfc #000000 #000000 0 1;
#X floatatom 1184 576 5 0 0 0 - - - 0;
#X obj 1184 549 expr 1 / $f1;
#X obj 1093 623 *~;
#X obj 1093 576 clip~ -1 1;
#X obj 1091 657 +~;
#X obj 1121 656 r~ noise;
#X msg 1111 480 1;
#X obj 1016 287 *~;
#X obj 1113 224 vsl 19 60 0 1 0 0 empty empty Tap\ Lvl 0 -9 0 12 #fcfcfc #000000 #000000 0 1;
#X floatatom 1149 123 5 0 0 2 Delay\ (ms) - - 0;
#X obj 1149 191 delread~ tap1;
#X obj 1150 269 *~;
#X obj 1243 228 vsl 19 60 0 1 0 0 empty empty Tap\ Lvl 0 -9 0 12 #fcfcfc #000000 #000000 0 1;
#X floatatom 1277 125 5 0 0 2 Delay\ (ms) - - 0;
#X obj 1277 193 delread~ tap1;
#X obj 1278 271 *~;
#X obj 1370 226 vsl 19 60 0 1 0 0 empty empty Tap\ Lvl 0 -9 0 12 #fcfcfc #000000 #000000 0 1;
#X floatatom 1397 125 5 0 0 2 Delay\ (ms) - - 0;
#X obj 1397 193 delread~ tap1;
#X obj 1398 271 *~;
#X obj 1488 228 vsl 19 60 0 1 0 0 empty empty Tap\ Lvl 0 -9 0 12 #fcfcfc #000000 #000000 0 1;
#X text 1151 78 delay line 2, f 13;
#X text 1275 78 delay line 3;
#X text 1399 78 delay line 4;
#X obj 1024 422 +~;
#X obj 1058 421 +~;
#X obj 1094 422 +~;
#X obj 352 456 delread~ tap;
#X floatatom 1245 471 5 0 0 0 - - - 0;
#X obj 1245 385 b;
#X obj 1093 455 /~;
#X obj 1244 415 expr $f1 + $f2 +$f3 +$f4;
#X obj 1245 445 clip 1 4;
#X msg 1073 221 0;
#X obj 1158 240 line~ \$1 20;
#X obj 1285 239 line~ \$1 20;
#X obj 1404 239 line~ \$1 20;
#X obj 1028 247 line~ \$1 10;
#X obj 1143 449 line \$1 20;
#X obj 1094 876 s~ outDelay;
#X obj 1125 849 / 100;
#X obj 1037 159 * 1.618;
#X obj 1171 160 * 1.618;
#X obj 1299 162 * 1.618;
#X obj 80 438 adc~;
#X msg 298 270 0.125;
#X obj 143 289 hip~ 6600;
#X connect 0 0 17 0;
#X connect 1 0 17 0;
#X connect 4 0 96 0;
#X connect 6 0 20 0;
#X connect 8 0 9 0;
#X connect 8 0 10 1;
#X connect 8 0 13 0;
#X connect 9 0 11 0;
#X connect 10 0 12 0;
#X connect 11 0 12 1;
#X connect 12 0 14 0;
#X connect 12 0 14 1;
#X connect 15 0 17 0;
#X connect 15 0 0 0;
#X connect 16 0 17 0;
#X connect 16 0 0 0;
#X connect 17 0 21 0;
#X connect 18 0 19 0;
#X connect 20 0 5 1;
#X connect 23 0 11 1;
#X connect 24 0 26 0;
#X connect 25 0 26 1;
#X connect 26 0 3 0;
#X connect 26 0 10 0;
#X connect 27 0 24 1;
#X connect 28 0 29 0;
#X connect 29 0 5 0;
#X connect 30 0 28 1;
#X connect 30 0 31 0;
#X connect 32 0 33 0;
#X connect 32 0 29 1;
#X connect 36 0 42 0;
#X connect 37 0 36 1;
#X connect 37 0 40 0;
#X connect 38 0 17 0;
#X connect 38 0 0 0;
#X connect 39 0 41 1;
#X connect 40 0 39 0;
#X connect 41 0 44 0;
#X connect 42 0 41 0;
#X connect 43 0 48 0;
#X connect 44 0 28 0;
#X connect 45 0 46 1;
#X connect 46 0 49 0;
#X connect 47 0 17 0;
#X connect 48 0 115 0;
#X connect 50 0 44 1;
#X connect 51 0 18 0;
#X connect 52 0 37 0;
#X connect 53 0 45 0;
#X connect 54 0 57 0;
#X connect 54 0 110 0;
#X connect 55 0 108 0;
#X connect 56 0 109 0;
#X connect 57 0 76 0;
#X connect 59 0 60 0;
#X connect 60 0 55 0;
#X connect 61 0 59 1;
#X connect 61 0 62 0;
#X connect 63 0 64 0;
#X connect 63 0 60 1;
#X connect 67 0 72 0;
#X connect 68 0 67 1;
#X connect 68 0 70 0;
#X connect 69 0 71 1;
#X connect 70 0 69 0;
#X connect 71 0 73 0;
#X connect 72 0 71 0;
#X connect 73 0 59 0;
#X connect 74 0 73 1;
#X connect 75 0 68 0;
#X connect 76 0 93 0;
#X connect 77 0 100 0;
#X connect 77 0 98 0;
#X connect 77 0 106 0;
#X connect 78 0 79 0;
#X connect 78 0 111 0;
#X connect 79 0 80 0;
#X connect 80 0 93 1;
#X connect 81 0 100 1;
#X connect 81 0 98 0;
#X connect 81 0 103 0;
#X connect 82 0 83 0;
#X connect 82 0 112 0;
#X connect 83 0 84 0;
#X connect 84 0 94 1;
#X connect 85 0 100 2;
#X connect 85 0 98 0;
#X connect 85 0 104 0;
#X connect 86 0 87 0;
#X connect 87 0 88 0;
#X connect 88 0 95 1;
#X connect 89 0 88 1;
#X connect 89 0 100 3;
#X connect 89 0 98 0;
#X connect 89 0 105 0;
#X connect 93 0 94 0;
#X connect 94 0 95 0;
#X connect 95 0 99 0;
#X connect 96 0 36 0;
#X connect 97 0 107 0;
#X connect 98 0 100 0;
#X connect 99 0 67 0;
#X connect 100 0 101 2;
#X connect 100 0 101 0;
#X connect 101 0 97 0;
#X connect 102 0 77 0;
#X connect 103 0 80 1;
#X connect 104 0 84 1;
#X connect 105 0 88 1;
#X connect 106 0 76 1;
#X connect 107 0 99 1;
#X connect 109 0 55 1;
#X connect 110 0 78 0;
#X connect 111 0 82 0;
#X connect 112 0 86 0;
#X connect 113 0 24 0;
#X connect 113 1 24 0;
#X connect 114 0 45 0;
#X connect 115 0 46 0;
