#N canvas 300 119 958 750 12;
#X msg 58 105 1;
#X msg 69 141 0;
#X msg 128 74 open ../sound/LittleWaltz.wav;
#X msg 129 97 open ../sound/ForMark.wav;
#X obj 112 142 readsf~ 2;
#X msg 131 119 open ../sound/Nocturnal.wav;
#X msg 126 49 open ../sound/DavidCastelloLopezVoix.wav;
#X obj 255 177 adc~;
#X obj 297 178 tgl 19 0 empty empty empty 0 -10 0 12 #fcfcfc #000000 #000000 0 1;
#X obj 255 201 *~;
#X obj 275 565 output~;
#X obj 113 232 send~ in;
#X obj 286 263 r~ in;
#X obj 276 308 analogMultiTapDelay;
#X connect 0 0 4 0;
#X connect 1 0 4 0;
#X connect 2 0 4 0;
#X connect 2 0 0 0;
#X connect 3 0 4 0;
#X connect 3 0 0 0;
#X connect 4 0 11 0;
#X connect 5 0 4 0;
#X connect 5 0 0 0;
#X connect 6 0 4 0;
#X connect 7 0 9 0;
#X connect 8 0 9 1;
#X connect 9 0 11 0;
#X connect 12 0 13 0;
#X connect 13 0 10 0;
#X connect 13 0 10 1;
