#N canvas 984 95 798 808 12;
#X obj 243 339 +~;
#X obj 443 528 +~;
#X obj 460 300 *~;
#X obj 442 576 outlet~;
#X obj 305 480 *~;
#X obj 275 338 *~;
#X obj 464 256 expr -$f1;
#X obj 244 239 inlet~;
#X obj 323 453 expr (1 - ($f1*$f1));
#X obj 465 190 loadbang;
#X obj 533 191 inlet;
#X text 580 190 Gain;
#X text 533 390 \$1 delay name \$2 delay time \$3 feedback Gain;
#X text 300 151 Allpass filter;
#X obj 465 229 float \$2;
#X obj 305 339 delread~ \$0-delay \$1;
#X obj 243 371 delwrite~ \$0-delay 100;
#X connect 0 0 16 0;
#X connect 1 0 3 0;
#X connect 2 0 1 1;
#X connect 4 0 1 0;
#X connect 5 0 0 1;
#X connect 6 0 2 1;
#X connect 7 0 2 0;
#X connect 7 0 0 0;
#X connect 8 0 4 1;
#X connect 9 0 14 0;
#X connect 10 0 14 0;
#X connect 14 0 5 1;
#X connect 14 0 6 0;
#X connect 14 0 8 0;
#X connect 15 0 4 0;
#X connect 15 0 5 0;
