#N canvas 307 234 787 532 12;
#X obj 72 83 inlet~;
#X obj 296 298 outlet~;
#X obj 316 135 inlet;
#X obj 90 244 *~;
#X obj 296 258 +~;
#X obj 316 222 *~;
#X text 117 82 input signal;
#X obj 71 270 +~;
#X obj 316 197 expr -$f1;
#X obj 316 166 clip -0.99 0.99;
#X obj 71 298 delwrite~ \$0-delay 100;
#X text 364 134 gain g;
#X obj 91 156 inlet;
#X text 78 135 delay Time;
#X text 223 401 \$1 sets the delay line length in (ms), f 40;
#X obj 418 134 f \$2;
#X text 222 429 \$3 alternate delayRead Time, f 35;
#X obj 418 107 loadbang;
#X obj 91 187 delread~ \$0-delay;
#X obj 169 131 loadbang;
#X text 223 414 \$2 feedback gain, f 40;
#X obj 505 137 inlet;
#X obj 553 109 loadbang;
#X obj 553 136 f \$3;
#X obj 505 177 delread~ \$0-delay;
#X obj 506 298 outlet~;
#X text 525 81 alternate tap;
#X text 296 318 main tap output;
#X text 506 318 alternate tap output;
#X text 87 27 alternated APF struture (100ms) \, with additional tap;
#X text 55 318 max delay time set to 100 ms;
#X obj 423 215 f \$21;
#X obj 167 157 f \$1;
#X connect 0 0 7 0;
#X connect 2 0 9 0;
#X connect 3 0 7 1;
#X connect 4 0 1 0;
#X connect 5 0 4 1;
#X connect 7 0 5 0;
#X connect 7 0 10 0;
#X connect 8 0 5 1;
#X connect 9 0 8 0;
#X connect 9 0 3 1;
#X connect 12 0 18 0;
#X connect 15 0 9 0;
#X connect 17 0 15 0;
#X connect 18 0 3 0;
#X connect 18 0 4 0;
#X connect 21 0 24 0;
#X connect 22 0 23 0;
#X connect 23 0 24 0;
#X connect 24 0 25 0;
