#N canvas 137 313 813 559 12;
#X floatatom 223 81 5 0 99 1 in\ difussion\ 1 - - 0;
#X obj 223 126 * -1;
#X floatatom 222 230 5 0 99 1 in\ difussion\ 2 - - 0;
#X obj 222 275 * -1;
#X obj 223 30 loadbang;
#X msg 223 58 75;
#X obj 222 177 loadbang;
#X msg 222 205 62.5;
#X obj 36 45 inlet~;
#X obj 28 346 outlet~;
#X obj 35 95 lop~;
#X obj 109 7 hsl 162 19 0 10000 0 0 empty empty empty -2 -10 0 12 #fcfcfc #000000 #000000 0 1;
#X obj 222 253 / 100;
#X obj 223 104 / 100;
#X msg 77 117 4.93;
#X msg 78 171 3.6;
#X obj 36 143 alternateAPF~ APF1;
#X obj 37 196 alternateAPF~ APF2;
#X obj 37 254 alternateAPF~ APF3;
#X msg 78 225 12.7;
#X msg 84 286 9.3;
#X obj 36 318 alternateAPF~ APF4;
#X msg 341 43 10000;
#X connect 0 0 13 0;
#X connect 1 0 16 2;
#X connect 1 0 17 2;
#X connect 2 0 12 0;
#X connect 3 0 18 2;
#X connect 3 0 21 2;
#X connect 4 0 5 0;
#X connect 4 0 14 0;
#X connect 4 0 15 0;
#X connect 4 0 19 0;
#X connect 4 0 20 0;
#X connect 4 0 22 0;
#X connect 5 0 0 0;
#X connect 6 0 7 0;
#X connect 7 0 2 0;
#X connect 8 0 10 0;
#X connect 10 0 16 0;
#X connect 11 0 10 1;
#X connect 12 0 3 0;
#X connect 13 0 1 0;
#X connect 14 0 16 1;
#X connect 15 0 17 1;
#X connect 16 0 17 0;
#X connect 17 0 18 0;
#X connect 18 0 21 0;
#X connect 19 0 18 1;
#X connect 20 0 21 1;
#X connect 21 0 9 0;
#X connect 22 0 11 0;
