#N canvas 953 0 958 988 12;
#X floatatom 267 273 5 0 99 1 in\ difussion\ 1 - - 0;
#X obj 267 318 * -1;
#X floatatom 562 269 5 0 99 1 in\ difussion\ 2 - - 0;
#X obj 562 314 * -1;
#X obj 267 222 loadbang;
#X obj 562 216 loadbang;
#X obj 36 10 inlet~;
#X obj 377 875 outlet~;
#X obj 545 39 hsl 100 19 0 10000 0 0 empty empty empty -2 -10 0 12 #fcfcfc #000000 #000000 0 1;
#X obj 562 292 / 100;
#X obj 267 296 / 100;
#X obj 134 398 alternateAPF~ APF1;
#X obj 295 394 alternateAPF~ APF2;
#X obj 450 394 alternateAPF~ APF3;
#X obj 596 395 alternateAPF~ APF4;
#X obj 131 526 *~;
#X floatatom 251 451 5 0 100 0 - - - 0;
#X obj 251 475 / 100;
#X obj 56 113 lop~;
#X obj 773 6 loadbang;
#X obj 103 84 +~;
#X obj 102 113 lop~;
#X obj 156 82 +~;
#X obj 155 113 lop~;
#X obj 197 84 +~;
#X obj 199 113 lop~;
#X obj 243 526 *~, f 2;
#X obj 451 530 *~;
#X obj 608 530 *~;
#X msg 250 428 25;
#X obj 404 579 +~;
#X obj 397 824 *~;
#X obj 485 812 hsl 162 19 0 1 0 0 empty empty empty -2 -10 0 12 #fcfcfc #000000 #000000 0 1;
#X obj 481 840 exp 1 - $f1;
#X obj 42 672 *~;
#X floatatom 541 64 5 0 0 0 - - - 0;
#X floatatom 823 505 5 0 99 1 in\ difussion\ 3 - - 0;
#X obj 823 550 * -1;
#X obj 823 452 loadbang;
#X obj 823 528 / 100;
#X obj 651 695 *~;
#X obj 651 648 +~;
#X floatatom 732 701 5 0 100 0 - - - 0;
#X obj 732 725 / 100;
#X msg 240 364 14.7;
#X msg 402 359 5.8;
#X msg 824 480 35;
#X msg 731 678 15;
#X msg 267 250 45;
#X msg 562 244 53;
#X msg 723 6 3400;
#X msg 552 362 5.6;
#X obj 306 806 +~;
#X obj 651 624 fcomb~ comb1;
#X obj 813 626 fcomb~ comb2;
#X msg 713 362 2.45;
#X msg 691 581 61.547;
#X msg 853 591 74.689;
#X msg 491 366 5.647;
#X msg 645 363 6.389;
#X msg 336 369 19.75;
#X msg 172 371 15.67;
#X connect 0 0 10 0;
#X connect 1 0 11 2;
#X connect 1 0 12 2;
#X connect 2 0 9 0;
#X connect 3 0 13 2;
#X connect 3 0 14 2;
#X connect 4 0 48 0;
#X connect 4 0 61 0;
#X connect 4 0 58 0;
#X connect 4 0 59 0;
#X connect 4 0 44 0;
#X connect 4 0 45 0;
#X connect 4 0 51 0;
#X connect 4 0 55 0;
#X connect 4 0 60 0;
#X connect 5 0 49 0;
#X connect 6 0 34 0;
#X connect 6 0 20 1;
#X connect 6 0 22 0;
#X connect 6 0 24 0;
#X connect 6 0 18 0;
#X connect 8 0 23 1;
#X connect 8 0 25 1;
#X connect 8 0 35 0;
#X connect 8 0 18 1;
#X connect 8 0 21 1;
#X connect 9 0 3 0;
#X connect 10 0 1 0;
#X connect 11 0 15 0;
#X connect 11 1 30 0;
#X connect 12 0 26 0;
#X connect 12 1 30 1;
#X connect 13 0 27 0;
#X connect 13 1 30 1;
#X connect 14 0 28 0;
#X connect 14 1 30 1;
#X connect 15 0 20 0;
#X connect 16 0 17 0;
#X connect 17 0 15 1;
#X connect 17 0 26 1;
#X connect 17 0 27 1;
#X connect 17 0 28 1;
#X connect 18 0 11 0;
#X connect 19 0 50 0;
#X connect 20 0 21 0;
#X connect 22 0 23 0;
#X connect 23 0 13 0;
#X connect 24 0 25 0;
#X connect 25 0 14 0;
#X connect 26 0 22 1;
#X connect 27 0 24 1;
#X connect 29 0 16 0;
#X connect 30 0 53 0;
#X connect 30 0 54 0;
#X connect 30 0 52 1;
#X connect 31 0 7 0;
#X connect 32 0 31 1;
#X connect 32 0 33 0;
#X connect 33 0 34 1;
#X connect 34 0 7 0;
#X connect 36 0 39 0;
#X connect 37 0 53 2;
#X connect 37 0 54 2;
#X connect 38 0 46 0;
#X connect 38 0 56 0;
#X connect 38 0 57 0;
#X connect 39 0 37 0;
#X connect 40 0 52 0;
#X connect 41 0 40 0;
#X connect 42 0 43 0;
#X connect 43 0 40 1;
#X connect 44 0 11 3;
#X connect 45 0 12 3;
#X connect 46 0 36 0;
#X connect 47 0 42 0;
#X connect 48 0 0 0;
#X connect 49 0 2 0;
#X connect 50 0 8 0;
#X connect 51 0 13 3;
#X connect 52 0 31 0;
#X connect 53 0 41 0;
#X connect 54 0 41 1;
#X connect 55 0 14 3;
#X connect 56 0 53 1;
#X connect 57 0 54 1;
#X connect 58 0 13 1;
#X connect 59 0 14 1;
#X connect 60 0 12 1;
#X connect 61 0 11 1;
