#N canvas 606 237 1127 452 12;
#X obj 263 35 inlet~;
#X obj 329 96 / 100;
#X obj 343 391 outlet~;
#X obj 466 96 / 100;
#X obj 613 90 / 100;
#X obj 752 96 / 100;
#X obj 922 96 / 100;
#X obj 1082 96 / 100;
#X obj 430 232 +~;
#X obj 447 25 loadbang;
#X obj 430 298 lpalternateAPF~;
#X msg 483 243 0.7;
#X obj 259 118 fcomb~ comb1;
#X obj 394 117 fcomb~ comb2;
#X obj 540 117 fcomb~ comb3;
#X obj 680 117 fcomb~ comb4;
#X obj 850 117 fcomb~ comb5;
#X obj 1010 117 fcomb~ comb6;
#X obj 547 270 hsl 162 19 0 1 0 0 empty empty empty -2 -10 0 12 #fcfcfc #000000 #000000 0 1;
#X msg 558 246 0.75;
#X obj 203 95 / 100;
#X obj 133 117 fcomb~ comb0;
#X msg 163 71 0;
#X msg 204 68 1;
#X obj 429 336 *~;
#X obj 463 329 hsl 162 19 0 1 0 0 empty empty empty -2 -10 0 12 #fcfcfc #000000 #000000 0 1;
#X obj 460 353 expr 1 - $f1;
#X obj 137 274 *~;
#X obj 344 352 +~;
#X obj 168 144 *~;
#X obj 272 144 *~;
#X obj 397 144 *~;
#X obj 535 144 *~;
#X obj 680 144 *~;
#X obj 851 140 *~;
#X obj 1015 144 *~;
#X msg 276 69 19.9;
#X msg 413 69 35.4;
#X msg 568 71 38.9;
#X msg 710 69 41.4;
#X msg 869 69 69.9;
#X msg 1028 69 79.6;
#X msg 614 69 63.5;
#X msg 922 69 26.7;
#X msg 1086 69 24.2;
#X msg 330 69 20;
#X msg 474 69 62;
#X msg 757 69 0.6;
#X msg 455 268 3;
#X connect 0 0 21 0;
#X connect 1 0 12 2;
#X connect 1 0 30 1;
#X connect 3 0 13 2;
#X connect 3 0 31 1;
#X connect 4 0 14 2;
#X connect 4 0 32 1;
#X connect 5 0 15 2;
#X connect 5 0 33 1;
#X connect 6 0 16 2;
#X connect 6 0 34 1;
#X connect 7 0 17 2;
#X connect 7 0 35 1;
#X connect 8 0 10 0;
#X connect 9 0 45 0;
#X connect 9 0 36 0;
#X connect 9 0 37 0;
#X connect 9 0 46 0;
#X connect 9 0 38 0;
#X connect 9 0 42 0;
#X connect 9 0 39 0;
#X connect 9 0 47 0;
#X connect 9 0 40 0;
#X connect 9 0 43 0;
#X connect 9 0 41 0;
#X connect 9 0 48 0;
#X connect 9 0 11 0;
#X connect 9 0 19 0;
#X connect 9 0 23 0;
#X connect 9 0 22 0;
#X connect 10 0 24 0;
#X connect 11 0 10 2;
#X connect 12 0 30 0;
#X connect 12 0 13 0;
#X connect 13 0 8 1;
#X connect 13 0 14 0;
#X connect 13 0 31 0;
#X connect 14 0 15 0;
#X connect 14 0 32 0;
#X connect 15 0 16 0;
#X connect 15 0 33 0;
#X connect 16 0 17 0;
#X connect 16 0 34 0;
#X connect 17 0 35 0;
#X connect 18 0 10 3;
#X connect 19 0 18 0;
#X connect 20 0 21 2;
#X connect 20 0 29 1;
#X connect 21 0 27 0;
#X connect 21 0 29 0;
#X connect 21 0 12 0;
#X connect 22 0 21 1;
#X connect 23 0 20 0;
#X connect 24 0 28 1;
#X connect 25 0 24 1;
#X connect 25 0 26 0;
#X connect 26 0 27 1;
#X connect 27 0 28 0;
#X connect 28 0 2 0;
#X connect 29 0 8 0;
#X connect 30 0 8 1;
#X connect 31 0 8 1;
#X connect 32 0 8 1;
#X connect 33 0 8 1;
#X connect 34 0 8 1;
#X connect 35 0 8 1;
#X connect 36 0 12 1;
#X connect 37 0 13 1;
#X connect 38 0 14 1;
#X connect 39 0 15 1;
#X connect 40 0 16 1;
#X connect 41 0 17 1;
#X connect 42 0 4 0;
#X connect 43 0 6 0;
#X connect 44 0 7 0;
#X connect 45 0 1 0;
#X connect 46 0 3 0;
#X connect 47 0 5 0;
#X connect 48 0 10 1;
