#N canvas 422 105 692 713 12;
#X floatatom 244 153 5 0 99 1 in\ difussion\ 1 - - 0;
#X obj 244 198 * -1;
#X floatatom 307 310 5 0 99 1 in\ difussion\ 2 - - 0;
#X obj 307 355 * -1;
#X obj 244 108 loadbang;
#X obj 307 262 loadbang;
#X obj 14 36 inlet~;
#X obj 141 669 outlet~;
#X obj 307 333 / 100;
#X obj 244 176 / 100;
#X obj 14 382 *~;
#X obj 14 105 lop~;
#X obj 247 78 loadbang;
#X obj 16 171 +~;
#X obj 46 171 lop~;
#X obj 41 270 +~;
#X obj 71 270 lop~;
#X obj 80 328 +~;
#X obj 110 328 lop~;
#X obj 43 382 *~;
#X obj 73 382 *~;
#X obj 109 382 *~;
#X msg 70 419 25;
#X obj 140 420 +~;
#X floatatom 158 78 5 0 0 0 - - - 0;
#X floatatom 367 441 5 0 99 1 late\ diffusion - - 0;
#X obj 367 486 * -1;
#X obj 367 388 loadbang;
#X obj 367 464 / 100;
#X obj 199 617 *~;
#X obj 199 540 +~;
#X floatatom 280 593 5 0 100 0 - - - 0;
#X obj 280 617 / 100;
#X msg 151 130 14.7;
#X msg 196 197 5.8;
#X msg 368 416 35;
#X msg 279 570 15;
#X msg 244 130 45;
#X msg 307 285 53;
#X msg 204 78 3400;
#X msg 206 294 5.6;
#X obj 141 642 +~;
#X msg 248 354 2.45;
#X text 23 416 decay;
#X text 146 8 absorption;
#X text 324 595 late diffusion amount;
#X text 306 28 Early Reflexion Block;
#X obj 15 130 alternateAPF~ APF1;
#X msg 56 105 15.67;
#X obj 44 196 alternateAPF~ APF2;
#X msg 89 169 19.75;
#X obj 71 294 alternateAPF~ APF3;
#X msg 112 270 5.647;
#X obj 109 354 alternateAPF~ APF4;
#X msg 186 328 6.38;
#X obj 199 516 fcomb~ comb1;
#X msg 239 493 61.547;
#X obj 370 516 fcomb~ comb2;
#X msg 410 493 74.689;
#X obj 150 36 inlet;
#X connect 0 0 9 0;
#X connect 1 0 47 2;
#X connect 1 0 49 2;
#X connect 2 0 8 0;
#X connect 3 0 51 2;
#X connect 3 0 53 2;
#X connect 4 0 37 0;
#X connect 4 0 33 0;
#X connect 4 0 34 0;
#X connect 4 0 48 0;
#X connect 4 0 50 0;
#X connect 5 0 38 0;
#X connect 5 0 40 0;
#X connect 5 0 42 0;
#X connect 5 0 52 0;
#X connect 5 0 54 0;
#X connect 6 0 13 1;
#X connect 6 0 15 0;
#X connect 6 0 17 0;
#X connect 6 0 11 0;
#X connect 8 0 3 0;
#X connect 9 0 1 0;
#X connect 10 0 13 0;
#X connect 11 0 47 0;
#X connect 12 0 39 0;
#X connect 13 0 14 0;
#X connect 14 0 49 0;
#X connect 15 0 16 0;
#X connect 16 0 51 0;
#X connect 17 0 18 0;
#X connect 18 0 53 0;
#X connect 19 0 15 1;
#X connect 20 0 17 1;
#X connect 22 0 21 1;
#X connect 22 0 20 1;
#X connect 22 0 19 1;
#X connect 22 0 10 1;
#X connect 23 0 41 0;
#X connect 23 0 55 0;
#X connect 23 0 57 0;
#X connect 24 0 11 1;
#X connect 24 0 14 1;
#X connect 24 0 16 1;
#X connect 24 0 18 1;
#X connect 25 0 28 0;
#X connect 26 0 55 2;
#X connect 26 0 57 2;
#X connect 27 0 35 0;
#X connect 27 0 36 0;
#X connect 27 0 56 0;
#X connect 27 0 58 0;
#X connect 28 0 26 0;
#X connect 29 0 41 1;
#X connect 30 0 29 0;
#X connect 31 0 32 0;
#X connect 32 0 29 1;
#X connect 33 0 47 3;
#X connect 34 0 49 3;
#X connect 35 0 25 0;
#X connect 36 0 31 0;
#X connect 37 0 0 0;
#X connect 38 0 2 0;
#X connect 39 0 24 0;
#X connect 40 0 51 3;
#X connect 41 0 7 0;
#X connect 42 0 53 3;
#X connect 47 0 10 0;
#X connect 47 1 23 0;
#X connect 48 0 47 1;
#X connect 49 0 19 0;
#X connect 49 1 23 1;
#X connect 50 0 49 1;
#X connect 51 0 20 0;
#X connect 51 1 23 1;
#X connect 52 0 51 1;
#X connect 53 0 21 0;
#X connect 53 1 23 1;
#X connect 54 0 53 1;
#X connect 55 0 30 0;
#X connect 56 0 55 1;
#X connect 57 0 30 1;
#X connect 58 0 57 1;
#X connect 59 0 24 0;
