#N canvas 1200 0 711 988 12;
#X floatatom 360 306 5 0 99 1 in\ difussion\ 1 - - 0;
#X floatatom 274 165 5 0 99 1 in\ difussion\ 2 - - 0;
#X obj 274 210 * -1;
#X obj 360 260 loadbang;
#X obj 274 117 loadbang;
#X obj 14 36 inlet~;
#X obj 63 741 outlet~;
#X obj 274 188 / 100;
#X obj 360 328 / 100;
#X obj 9 151 *~;
#X obj 130 257 lop~;
#X obj 247 78 loadbang;
#X obj 132 323 +~;
#X obj 162 323 lop~;
#X obj 38 125 lop~;
#X obj 47 183 +~;
#X obj 77 183 lop~;
#X obj 97 285 *~;
#X obj 130 346 *~;
#X obj 48 206 *~;
#X obj 62 492 +~;
#X floatatom 158 78 5 0 0 0 - - - 0;
#X floatatom 255 483 5 0 99 1 late\ diffusion - - 0;
#X obj 255 430 loadbang;
#X obj 255 506 / 100;
#X obj 121 689 *~;
#X obj 121 612 +~;
#X floatatom 202 665 5 0 100 0 - - - 0;
#X obj 202 689 / 100;
#X msg 267 282 14.7;
#X msg 312 349 5.8;
#X msg 256 458 35;
#X msg 201 642 15;
#X msg 360 282 45;
#X msg 274 140 53;
#X msg 204 78 3400;
#X msg 173 149 5.6;
#X obj 63 714 +~;
#X msg 215 209 2.45;
#X text 38 349 decay;
#X text 146 8 absorption;
#X text 246 667 late diffusion amount;
#X text 306 28 Early Reflexion Block;
#X msg 172 257 15.67;
#X msg 79 125 5.647;
#X msg 153 183 6.38;
#X msg 140 563 61.547;
#X msg 220 560 74.689;
#X obj 150 36 inlet;
#X obj 94 256 +~;
#X obj 121 587 fcomb~;
#X obj 201 587 fcomb~;
#X obj 131 282 alternateAPF~;
#X obj 77 209 alternateAPF~;
#X obj 38 149 alternateAPF~;
#X obj 0 125 +~ 0;
#X obj 362 357 * 1;
#X msg 36 297 0.25;
#X obj 162 348 alternateAPF~;
#X obj 43 327 hsl 50 19 0 1 0 0 empty empty empty -2 -10 0 12 #fcfcfc #000000 #000000 0 1;
#X msg 205 321 16.75;
#X connect 0 0 8 0;
#X connect 1 0 7 0;
#X connect 2 0 53 2;
#X connect 2 0 54 2;
#X connect 3 0 33 0;
#X connect 3 0 29 0;
#X connect 3 0 30 0;
#X connect 3 0 43 0;
#X connect 3 0 60 0;
#X connect 3 0 57 0;
#X connect 4 0 34 0;
#X connect 4 0 36 0;
#X connect 4 0 38 0;
#X connect 4 0 44 0;
#X connect 4 0 45 0;
#X connect 5 0 12 1;
#X connect 5 0 15 0;
#X connect 5 0 49 0;
#X connect 5 0 55 0;
#X connect 7 0 2 0;
#X connect 8 0 56 0;
#X connect 9 0 15 1;
#X connect 10 0 52 0;
#X connect 11 0 35 0;
#X connect 12 0 13 0;
#X connect 13 0 58 0;
#X connect 14 0 54 0;
#X connect 15 0 16 0;
#X connect 16 0 53 0;
#X connect 17 0 12 0;
#X connect 19 0 49 1;
#X connect 20 0 37 0;
#X connect 20 0 50 0;
#X connect 20 0 51 0;
#X connect 21 0 10 1;
#X connect 21 0 13 1;
#X connect 21 0 14 1;
#X connect 21 0 16 1;
#X connect 22 0 24 0;
#X connect 23 0 31 0;
#X connect 23 0 32 0;
#X connect 23 0 46 0;
#X connect 23 0 47 0;
#X connect 24 0 50 2;
#X connect 24 0 51 2;
#X connect 25 0 37 1;
#X connect 26 0 25 0;
#X connect 27 0 28 0;
#X connect 28 0 25 1;
#X connect 29 0 52 3;
#X connect 30 0 58 3;
#X connect 31 0 22 0;
#X connect 32 0 27 0;
#X connect 33 0 0 0;
#X connect 34 0 1 0;
#X connect 35 0 21 0;
#X connect 36 0 54 3;
#X connect 37 0 6 0;
#X connect 38 0 53 3;
#X connect 43 0 52 1;
#X connect 44 0 54 1;
#X connect 45 0 53 1;
#X connect 46 0 50 1;
#X connect 47 0 51 1;
#X connect 48 0 21 0;
#X connect 49 0 10 0;
#X connect 50 0 26 0;
#X connect 51 0 26 1;
#X connect 52 0 17 0;
#X connect 52 0 20 1;
#X connect 53 0 19 0;
#X connect 53 0 20 1;
#X connect 54 0 9 0;
#X connect 54 0 20 0;
#X connect 55 0 14 0;
#X connect 56 0 52 2;
#X connect 56 0 58 2;
#X connect 57 0 59 0;
#X connect 58 0 18 0;
#X connect 58 0 20 1;
#X connect 59 0 9 1;
#X connect 59 0 19 1;
#X connect 59 0 17 1;
#X connect 59 0 18 1;
#X connect 60 0 58 1;
