#N canvas 948 215 963 452 12;
#X obj 60 37 inlet~;
#X obj 126 98 / 100;
#X obj 193 326 outlet~;
#X msg 73 71 79.6;
#X obj 263 98 / 100;
#X obj 410 98 / 100;
#X obj 549 98 / 100;
#X obj 719 98 / 100;
#X obj 879 98 / 100;
#X obj 194 172 +~;
#X msg 210 71 69.9;
#X msg 357 93 41.4;
#X msg 496 98 38.9;
#X msg 666 71 35.4;
#X msg 826 71 19.9;
#X msg 127 71 24.2;
#X msg 271 71 26.7;
#X msg 554 71 63;
#X msg 719 71 82;
#X obj 244 27 loadbang;
#X obj 194 238 lpalternateAPF~;
#X msg 219 208 6;
#X msg 247 183 0.7;
#X obj 56 120 fcomb~ comb1;
#X obj 191 119 fcomb~ comb2;
#X obj 337 119 fcomb~ comb3;
#X obj 477 119 fcomb~ comb4;
#X obj 647 119 fcomb~ comb5;
#X obj 807 119 fcomb~ comb6;
#X msg 883 71 102;
#X msg 411 71 82;
#X connect 0 0 23 0;
#X connect 0 0 24 0;
#X connect 0 0 25 0;
#X connect 0 0 26 0;
#X connect 0 0 27 0;
#X connect 0 0 28 0;
#X connect 1 0 23 2;
#X connect 3 0 23 1;
#X connect 4 0 24 2;
#X connect 5 0 25 2;
#X connect 6 0 26 2;
#X connect 7 0 27 2;
#X connect 8 0 28 2;
#X connect 9 0 20 0;
#X connect 10 0 24 1;
#X connect 11 0 25 1;
#X connect 12 0 26 1;
#X connect 13 0 27 1;
#X connect 14 0 28 1;
#X connect 15 0 1 0;
#X connect 16 0 4 0;
#X connect 17 0 6 0;
#X connect 18 0 7 0;
#X connect 19 0 15 0;
#X connect 19 0 3 0;
#X connect 19 0 10 0;
#X connect 19 0 16 0;
#X connect 19 0 11 0;
#X connect 19 0 30 0;
#X connect 19 0 12 0;
#X connect 19 0 17 0;
#X connect 19 0 13 0;
#X connect 19 0 18 0;
#X connect 19 0 14 0;
#X connect 19 0 21 0;
#X connect 19 0 22 0;
#X connect 21 0 20 1;
#X connect 22 0 20 2;
#X connect 23 0 9 0;
#X connect 24 0 9 1;
#X connect 25 0 9 1;
#X connect 26 0 9 1;
#X connect 27 0 9 1;
#X connect 28 0 9 1;
#X connect 29 0 8 0;
#X connect 30 0 5 0;
