#N canvas 1260 211 636 569 12;
#X obj 41 198 inlet~;
#X obj 37 519 outlet~;
#X obj 0 1 cnv 19 250 80 empty empty Plate\ Reverb\ 1 20 12 0 12 #9c00ff #ffffff 0;
#X floatatom 208 52 5 0 0 0 - - - 0;
#X obj 29 50 hsl 162 19 0 10000 0 0 empty empty Absorption -2 -10 0 12 #fcfcfc #000000 #000000 0 1;
#X obj 261 52 s absorption;
#X obj 151 205 r absorption;
#X obj 45 435 tank1;
#X obj 100 519 outlet~;
#X obj 79 328 *~;
#X obj 65 277 hsl 162 19 0 1 0 0 empty empty empty -2 -10 0 12 #fcfcfc #000000 #000000 0 1;
#X obj 62 301 expr 1 - $f1;
#X obj 44 326 *~;
#X obj 44 353 +~;
#X obj 42 233 earlyReflexions3;
#X obj 169 424 *~;
#X obj 155 373 hsl 162 19 0 1 0 0 empty empty empty -2 -10 0 12 #fcfcfc #000000 #000000 0 1;
#X obj 189 398 expr 1 - $f1;
#X obj 100 467 *~;
#X obj 100 494 +~;
#X obj 38 467 *~;
#X obj 38 494 +~;
#X connect 0 0 12 0;
#X connect 0 0 14 0;
#X connect 0 0 15 0;
#X connect 3 0 5 0;
#X connect 4 0 3 0;
#X connect 6 0 14 1;
#X connect 7 0 20 0;
#X connect 7 1 18 0;
#X connect 9 0 13 1;
#X connect 10 0 9 1;
#X connect 10 0 11 0;
#X connect 11 0 12 1;
#X connect 12 0 13 0;
#X connect 13 0 7 0;
#X connect 14 0 9 0;
#X connect 15 0 19 1;
#X connect 15 0 21 1;
#X connect 16 0 17 0;
#X connect 16 0 20 1;
#X connect 16 0 18 1;
#X connect 17 0 15 1;
#X connect 18 0 19 0;
#X connect 19 0 8 0;
#X connect 20 0 21 0;
#X connect 21 0 1 0;
#X coords 0 -1 1 1 250 80 1 0 0;
