#N canvas 1013 186 926 326 12;
#X obj 48 360 inlet~;
#X obj 48 760 outlet~;
#X obj 0 1 cnv 19 250 310 empty empty Abyssal\ Plate\ Reverb\ 1 20 12 0 12 #9c00ff #ffffff 0;
#X floatatom 208 38 5 0 0 0 - - - 0;
#X obj 29 38 hsl 162 19 0 10000 0 0 empty empty Absorption -2 -10 0 12 #fcfcfc #000000 #000000 0 1;
#X obj 300 38 s absorption;
#X obj 166 367 r absorption;
#X obj 111 760 outlet~;
#X obj 86 488 *~;
#X obj 29 76 hsl 162 19 0 1 0 0 empty empty Early\ Reflexions -2 -10 0 12 #fcfcfc #000000 #000000 0 1;
#X obj 91 445 expr 1 - $f1;
#X obj 51 488 *~;
#X obj 51 515 +~;
#X obj 28 671 *~;
#X obj 29 278 hsl 162 19 0 1 0 0 empty empty Mix -2 -10 0 12 #fcfcfc #000000 #000000 0 1;
#X obj 46 645 expr 1 - $f1;
#X obj 111 708 *~;
#X obj 111 735 +~;
#X obj 49 708 *~;
#X obj 49 735 +~;
#X obj 29 118 hsl 162 19 0 1 0 0 empty empty Decay -2 -10 0 12 #fcfcfc #000000 #000000 0 1;
#X obj 29 158 hsl 162 19 0 0.99 0 0 empty empty Damping -2 -10 0 12 #fcfcfc #000000 #000000 0 1;
#X obj 29 198 hsl 100 19 0.1 3 0 0 empty empty Vibrato\ Rate\ (Hz) -2 -10 0 12 #fcfcfc #000000 #000000 0 1;
#X floatatom 208 198 5 0 0 0 - - - 0;
#X msg 264 179 0.5;
#X floatatom 208 238 5 0 0 0 - - - 0;
#X obj 29 238 hsl 100 19 0 10 0 0 empty empty Vibrato\ Depth -2 -10 0 12 #fcfcfc #000000 #000000 0 1;
#X msg 264 221 0, f 2;
#X floatatom 208 118 5 0 0 0 - - - 0;
#X floatatom 208 158 5 0 0 0 - - - 0;
#X obj 354 168 loadbang;
#X msg 264 95 0.2;
#X msg 264 137 0.005;
#X msg 258 13 3400;
#X obj 265 261 s mix;
#X obj 46 619 r mix;
#X floatatom 208 278 5 0 0 0 - - - 0;
#X floatatom 208 78 5 0 0 0 - - - 0;
#X obj 332 75 s earlyReflex;
#X obj 90 419 r earlyReflex;
#X msg 267 70 1;
#X obj 192 593 tank1, f 14;
#X obj 80 395 earlyReflexions3;
#X connect 0 0 11 0;
#X connect 0 0 13 0;
#X connect 0 0 42 0;
#X connect 3 0 5 0;
#X connect 4 0 3 0;
#X connect 6 0 42 1;
#X connect 8 0 12 1;
#X connect 9 0 37 0;
#X connect 10 0 11 1;
#X connect 11 0 12 0;
#X connect 12 0 41 0;
#X connect 13 0 17 1;
#X connect 13 0 19 1;
#X connect 14 0 34 0;
#X connect 14 0 36 0;
#X connect 15 0 13 1;
#X connect 16 0 17 0;
#X connect 17 0 7 0;
#X connect 18 0 19 0;
#X connect 19 0 1 0;
#X connect 20 0 28 0;
#X connect 20 0 41 1;
#X connect 21 0 29 0;
#X connect 21 0 41 2;
#X connect 22 0 23 0;
#X connect 22 0 41 3;
#X connect 24 0 22 0;
#X connect 26 0 25 0;
#X connect 26 0 41 4;
#X connect 27 0 26 0;
#X connect 30 0 27 0;
#X connect 30 0 24 0;
#X connect 30 0 31 0;
#X connect 30 0 32 0;
#X connect 30 0 33 0;
#X connect 30 0 40 0;
#X connect 31 0 20 0;
#X connect 32 0 21 0;
#X connect 33 0 4 0;
#X connect 35 0 15 0;
#X connect 35 0 16 1;
#X connect 35 0 18 1;
#X connect 37 0 38 0;
#X connect 39 0 10 0;
#X connect 39 0 8 1;
#X connect 40 0 9 0;
#X connect 41 0 18 0;
#X connect 41 1 16 0;
#X connect 42 0 8 0;
#X coords 0 -1 1 1 250 310 1 0 0;
