#N canvas 293 186 1920 997 12;
#X obj 169 82 loadbang;
#X floatatom 169 134 5 0 0 0 - - - 0;
#X obj 112 29 inlet~;
#X floatatom 145 312 5 0 0 0 - - - 0;
#X obj 189 311 hsl 162 19 0 1 0 0 empty empty empty -2 -10 0 12 #fcfcfc #000000 #000000 0 1;
#X msg 145 289 78;
#X floatatom 358 311 5 0 0 0 - - - 0;
#X obj 392 103 loadbang;
#X floatatom 392 150 5 0 100 0 - - - 0;
#X floatatom 487 312 5 0 0 0 - - - 0;
#X obj 104 514 *~;
#X obj 443 526 *~;
#X obj 104 579 +~;
#X obj 443 579 +~;
#X obj 104 337 alternateAPF~ apf1;
#X obj 442 341 alternateAPF~ apf2;
#X obj 111 58 s~ in;
#X obj 121 549 r~ in;
#X obj 204 936 outlet~;
#X obj 443 930 outlet~;
#X obj 203 904 +~;
#X obj 220 733 delread~ dline2 47.9;
#X obj 461 552 r~ in;
#X msg 392 127 65;
#X msg 169 111 31.17;
#X obj 104 237 vibrato~ a1;
#X obj 441 260 vibrato~ a2;
#X obj 203 686 delread~ dline1 18.7;
#X obj 103 408 rpole~;
#X obj 443 410 rpole~;
#X obj 103 374 *~;
#X obj 442 372 *~;
#X obj 139 362 expr 1 - $f1;
#X obj 104 467 delread~ dline1 86;
#X obj 443 476 delread~ dline2 79;
#X obj 203 711 *~ 0.16;
#X obj 220 757 *~ 0.16;
#X obj 252 814 *~ -0.16;
#X floatatom 711 297 5 0 0 0 - - - 0;
#X obj 755 297 hsl 162 19 0 1 0 0 empty empty empty -2 -10 0 12 #fcfcfc #000000 #000000 0 1;
#X msg 711 274 78;
#X floatatom 924 297 5 0 0 0 - - - 0;
#X obj 959 91 loadbang;
#X floatatom 958 138 5 0 100 0 - - - 0;
#X floatatom 1047 306 5 0 0 0 - - - 0;
#X obj 670 512 *~;
#X obj 1009 524 *~;
#X obj 670 577 +~;
#X obj 1009 577 +~;
#X obj 687 547 r~ in;
#X obj 1027 550 r~ in;
#X obj 669 409 rpole~;
#X obj 1009 398 rpole~;
#X obj 669 362 *~;
#X obj 1008 360 *~;
#X obj 708 363 expr 1 - $f1;
#X obj 202 58 s decay;
#X obj 122 491 r decay;
#X obj 463 502 r decay;
#X obj 688 484 r decay;
#X obj 1027 497 r decay;
#X obj 386 58 s damping;
#X obj 708 386 r damping;
#X obj 1048 375 r damping;
#X obj 482 386 r damping;
#X obj 142 385 r damping;
#X obj 481 364 expr 1 - $f1;
#X obj 1038 354 expr 1 - $f1;
#X obj 494 58 s vibratoMod;
#X obj 141 206 r vibratoMod;
#X obj 478 237 r vibratoMod;
#X obj 615 58 s vibratoDepth;
#X obj 193 236 r vibratoDepth;
#X obj 536 259 r vibratoDepth;
#X obj 670 325 alternateAPF~ apf3;
#X obj 1006 329 alternateAPF~ apf4;
#X msg 958 115 75;
#X msg 752 273 0.58;
#X msg 186 287 0.508;
#X obj 670 455 delread~ dline3 76;
#X obj 1009 464 delread~ dline4 81;
#X obj 278 860 *~ -0.16;
#X obj 278 838 delread~ dline4 72.9;
#X obj 442 902 +~;
#X obj 442 709 *~ 0.16;
#X obj 459 755 *~ 0.16;
#X obj 491 812 *~ -0.16;
#X obj 517 858 *~ -0.16;
#X obj 442 684 delread~ dline3 18.7;
#X msg 1047 283 56;
#X msg 487 289 56;
#X obj 441 210 modAPF~ 65 8.87 0.78 0.71;
#X obj 1005 201 modAPF~ 75 9.45 0.25 1.17;
#X obj 671 171 modAPF~ 75 32.37 0.58 1.12;
#X obj 103 183 modAPF~ 65 31.17 0.78 0.73;
#X obj 145 265 loadbang;
#X obj 711 251 loadbang;
#X obj 442 446 delwrite~ dline2 100;
#X obj 104 443 delwrite~ dline1 100;
#X obj 669 431 delwrite~ dline3 100;
#X obj 1008 434 delwrite~ dline4 100;
#X obj 459 731 delread~ dline4 46.9;
#X obj 487 784 delread~ dline1 37.9;
#X obj 517 837 delread~ dline2 59.9;
#X text 210 655 L output taps read;
#X text 439 655 R output taps read;
#X obj 248 786 delread~ dline3 36.97;
#X obj 202 29 inlet;
#X obj 386 29 inlet;
#X obj 494 29 inlet;
#X obj 615 29 inlet;
#X connect 0 0 24 0;
#X connect 1 0 94 2;
#X connect 2 0 16 0;
#X connect 3 0 14 1;
#X connect 4 0 6 0;
#X connect 4 0 14 2;
#X connect 4 0 15 2;
#X connect 5 0 3 0;
#X connect 7 0 23 0;
#X connect 8 0 91 1;
#X connect 8 0 94 1;
#X connect 9 0 15 1;
#X connect 10 0 12 0;
#X connect 11 0 13 0;
#X connect 12 0 91 0;
#X connect 13 0 93 0;
#X connect 14 0 30 0;
#X connect 15 0 31 0;
#X connect 17 0 12 1;
#X connect 20 0 18 0;
#X connect 21 0 36 0;
#X connect 22 0 13 1;
#X connect 23 0 8 0;
#X connect 24 0 1 0;
#X connect 25 0 14 0;
#X connect 26 0 15 0;
#X connect 27 0 35 0;
#X connect 28 0 98 0;
#X connect 29 0 97 0;
#X connect 30 0 28 0;
#X connect 31 0 29 0;
#X connect 32 0 30 1;
#X connect 33 0 10 0;
#X connect 34 0 11 0;
#X connect 35 0 20 0;
#X connect 36 0 20 1;
#X connect 37 0 20 1;
#X connect 38 0 74 1;
#X connect 39 0 41 0;
#X connect 39 0 74 2;
#X connect 39 0 75 2;
#X connect 40 0 38 0;
#X connect 42 0 76 0;
#X connect 43 0 92 1;
#X connect 43 0 93 1;
#X connect 44 0 75 1;
#X connect 45 0 47 0;
#X connect 46 0 48 0;
#X connect 47 0 92 0;
#X connect 48 0 94 0;
#X connect 49 0 47 1;
#X connect 50 0 48 1;
#X connect 51 0 99 0;
#X connect 52 0 100 0;
#X connect 53 0 51 0;
#X connect 54 0 52 0;
#X connect 55 0 53 1;
#X connect 57 0 10 1;
#X connect 58 0 11 1;
#X connect 59 0 45 1;
#X connect 60 0 46 1;
#X connect 62 0 51 1;
#X connect 62 0 55 0;
#X connect 63 0 52 1;
#X connect 63 0 67 0;
#X connect 64 0 29 1;
#X connect 64 0 66 0;
#X connect 65 0 28 1;
#X connect 65 0 32 0;
#X connect 66 0 31 1;
#X connect 67 0 54 1;
#X connect 69 0 25 1;
#X connect 70 0 26 1;
#X connect 72 0 25 2;
#X connect 73 0 26 2;
#X connect 74 0 53 0;
#X connect 75 0 54 0;
#X connect 76 0 43 0;
#X connect 77 0 39 0;
#X connect 78 0 4 0;
#X connect 79 0 45 0;
#X connect 80 0 46 0;
#X connect 81 0 20 1;
#X connect 82 0 81 0;
#X connect 83 0 19 0;
#X connect 84 0 83 0;
#X connect 85 0 83 1;
#X connect 86 0 83 1;
#X connect 87 0 83 1;
#X connect 88 0 84 0;
#X connect 89 0 44 0;
#X connect 90 0 9 0;
#X connect 91 0 26 0;
#X connect 92 0 75 0;
#X connect 93 0 74 0;
#X connect 94 0 25 0;
#X connect 95 0 90 0;
#X connect 95 0 78 0;
#X connect 95 0 5 0;
#X connect 96 0 40 0;
#X connect 96 0 77 0;
#X connect 96 0 89 0;
#X connect 101 0 85 0;
#X connect 102 0 86 0;
#X connect 103 0 87 0;
#X connect 106 0 37 0;
#X connect 107 0 56 0;
#X connect 108 0 61 0;
#X connect 109 0 68 0;
#X connect 110 0 71 0;
