#N canvas 821 0 1920 997 12;
#X obj 169 82 loadbang;
#X floatatom 169 134 5 0 0 0 - - - 0;
#X obj 112 -11 inlet~;
#X floatatom 145 312 5 0 0 0 - - - 0;
#X obj 189 311 hsl 162 19 0 1 0 0 empty empty empty -2 -10 0 12 #fcfcfc #000000 #000000 0 1;
#X msg 145 289 78;
#X floatatom 358 311 5 0 0 0 - - - 0;
#X obj 392 103 loadbang;
#X floatatom 392 150 5 0 100 0 - - - 0;
#X floatatom 487 312 5 0 0 0 - - - 0;
#X obj 104 514 *~;
#X obj 205 1 hsl 162 19 0 1 0 0 empty empty decay -2 -10 0 12 #fcfcfc #000000 #000000 0 1;
#X obj 443 526 *~;
#X obj 104 579 +~;
#X obj 443 579 +~;
#X obj 104 337 alternateAPF~ apf1;
#X obj 442 341 alternateAPF~ apf2;
#X obj 111 18 s~ in;
#X obj 121 549 r~ in;
#X obj 310 944 outlet~;
#X obj 589 914 outlet~;
#X obj 309 912 +~;
#X obj 326 741 delread~ dline2 47.9;
#X obj 461 552 r~ in;
#X msg 392 127 65;
#X msg 169 111 31.17;
#X obj 104 237 vibrato~ a1;
#X obj 441 260 vibrato~ a2;
#X obj 309 694 delread~ dline1 18.7;
#X obj 103 408 rpole~;
#X obj 443 410 rpole~;
#X obj 103 374 *~;
#X obj 442 372 *~;
#X obj 139 362 expr 1 - $f1;
#X obj 104 443 delwrite~ dline1 200;
#X obj 104 467 delread~ dline1 86;
#X obj 442 446 delwrite~ dline2 500;
#X obj 443 476 delread~ dline2 79;
#X obj 309 719 *~ 0.16;
#X obj 326 765 *~ 0.16;
#X obj 358 822 *~ -0.16;
#X floatatom 761 327 5 0 0 0 - - - 0;
#X obj 805 327 hsl 162 19 0 1 0 0 empty empty empty -2 -10 0 12 #fcfcfc #000000 #000000 0 1;
#X msg 761 304 78;
#X floatatom 974 327 5 0 0 0 - - - 0;
#X obj 1008 121 loadbang;
#X floatatom 1008 168 5 0 100 0 - - - 0;
#X floatatom 1097 336 5 0 0 0 - - - 0;
#X obj 720 542 *~;
#X obj 1059 554 *~;
#X obj 720 607 +~;
#X obj 1059 607 +~;
#X obj 737 577 r~ in;
#X obj 1077 580 r~ in;
#X obj 719 439 rpole~;
#X obj 1059 428 rpole~;
#X obj 719 392 *~;
#X obj 1058 390 *~;
#X obj 758 393 expr 1 - $f1;
#X obj 202 27 s decay;
#X obj 122 491 r decay;
#X obj 463 502 r decay;
#X obj 738 514 r decay;
#X obj 1077 527 r decay;
#X obj 389 8 hsl 162 19 0 0.99 0 0 empty empty damping -2 -10 0 12 #fcfcfc #000000 #000000 0 1;
#X obj 386 32 s damping;
#X obj 758 416 r damping;
#X obj 1098 405 r damping;
#X obj 482 386 r damping;
#X obj 142 385 r damping;
#X obj 481 364 expr 1 - $f1;
#X obj 1088 384 expr 1 - $f1;
#X obj 630 6 hsl 100 19 0.1 3 0 0 empty empty vibrato\ mod -2 -10 0 12 #fcfcfc #000000 #000000 0 1;
#X floatatom 742 6 5 0 0 0 - - - 0;
#X msg 574 6 0.5;
#X obj 627 33 s vibratoMod;
#X obj 141 206 r vibratoMod;
#X obj 478 237 r vibratoMod;
#X floatatom 741 75 5 0 0 0 - - - 0;
#X obj 628 75 hsl 100 19 0 10 0 0 empty empty vibrato\ depth -2 -10 0 12 #fcfcfc #000000 #000000 0 1;
#X obj 625 102 s vibratoDepth;
#X msg 588 75 0;
#X obj 193 236 r vibratoDepth;
#X obj 536 259 r vibratoDepth;
#X obj 720 355 alternateAPF~ apf3;
#X obj 1056 359 alternateAPF~ apf4;
#X msg 1007 145 75;
#X msg 802 303 0.58;
#X msg 186 287 0.508;
#X obj 719 461 delwrite~ dline3 200;
#X obj 720 485 delread~ dline3 76;
#X obj 1058 464 delwrite~ dline4 500;
#X obj 1059 494 delread~ dline4 81;
#X obj 354 794 delread~ dline3 47.9;
#X obj 384 868 *~ -0.16;
#X obj 384 846 delread~ dline4 72.9;
#X obj 588 886 +~;
#X obj 588 693 *~ 0.16;
#X obj 605 739 *~ 0.16;
#X obj 637 796 *~ -0.16;
#X obj 663 842 *~ -0.16;
#X obj 588 668 delread~ dline3 18.7;
#X obj 605 715 delread~ dline4 47.9;
#X obj 633 768 delread~ dline1 47.9;
#X obj 663 821 delread~ dline2 72.9;
#X msg 1097 313 56;
#X msg 487 289 56;
#X obj 441 210 modAPF~ 65 8.87 0.78 0.71;
#X obj 1055 231 modAPF~ 75 9.45 0.25 1.17;
#X obj 721 201 modAPF~ 75 32.37 0.58 1.12;
#X obj 103 183 modAPF~ 65 31.17 0.78 0.73;
#X obj 145 265 loadbang;
#X obj 761 281 loadbang;
#X connect 0 0 25 0;
#X connect 1 0 110 2;
#X connect 2 0 17 0;
#X connect 3 0 15 1;
#X connect 4 0 6 0;
#X connect 4 0 15 2;
#X connect 4 0 16 2;
#X connect 5 0 3 0;
#X connect 7 0 24 0;
#X connect 8 0 107 1;
#X connect 8 0 110 1;
#X connect 9 0 16 1;
#X connect 10 0 13 0;
#X connect 11 0 59 0;
#X connect 12 0 14 0;
#X connect 13 0 107 0;
#X connect 14 0 109 0;
#X connect 15 0 31 0;
#X connect 16 0 32 0;
#X connect 18 0 13 1;
#X connect 21 0 19 0;
#X connect 22 0 39 0;
#X connect 23 0 14 1;
#X connect 24 0 8 0;
#X connect 25 0 1 0;
#X connect 26 0 15 0;
#X connect 27 0 16 0;
#X connect 28 0 38 0;
#X connect 29 0 34 0;
#X connect 30 0 36 0;
#X connect 31 0 29 0;
#X connect 32 0 30 0;
#X connect 33 0 31 1;
#X connect 35 0 10 0;
#X connect 37 0 12 0;
#X connect 38 0 21 0;
#X connect 39 0 21 1;
#X connect 40 0 21 1;
#X connect 41 0 84 1;
#X connect 42 0 44 0;
#X connect 42 0 84 2;
#X connect 42 0 85 2;
#X connect 43 0 41 0;
#X connect 45 0 86 0;
#X connect 46 0 108 1;
#X connect 46 0 109 1;
#X connect 47 0 85 1;
#X connect 48 0 50 0;
#X connect 49 0 51 0;
#X connect 50 0 108 0;
#X connect 51 0 110 0;
#X connect 52 0 50 1;
#X connect 53 0 51 1;
#X connect 54 0 89 0;
#X connect 55 0 91 0;
#X connect 56 0 54 0;
#X connect 57 0 55 0;
#X connect 58 0 56 1;
#X connect 60 0 10 1;
#X connect 61 0 12 1;
#X connect 62 0 48 1;
#X connect 63 0 49 1;
#X connect 64 0 65 0;
#X connect 66 0 54 1;
#X connect 66 0 58 0;
#X connect 67 0 55 1;
#X connect 67 0 71 0;
#X connect 68 0 30 1;
#X connect 68 0 70 0;
#X connect 69 0 29 1;
#X connect 69 0 33 0;
#X connect 70 0 32 1;
#X connect 71 0 57 1;
#X connect 72 0 73 0;
#X connect 72 0 75 0;
#X connect 74 0 72 0;
#X connect 76 0 26 1;
#X connect 77 0 27 1;
#X connect 79 0 78 0;
#X connect 79 0 80 0;
#X connect 81 0 79 0;
#X connect 82 0 26 2;
#X connect 83 0 27 2;
#X connect 84 0 56 0;
#X connect 85 0 57 0;
#X connect 86 0 46 0;
#X connect 87 0 42 0;
#X connect 88 0 4 0;
#X connect 90 0 48 0;
#X connect 92 0 49 0;
#X connect 93 0 40 0;
#X connect 94 0 21 1;
#X connect 95 0 94 0;
#X connect 96 0 20 0;
#X connect 97 0 96 0;
#X connect 98 0 96 1;
#X connect 99 0 96 1;
#X connect 100 0 96 1;
#X connect 101 0 97 0;
#X connect 102 0 98 0;
#X connect 103 0 99 0;
#X connect 104 0 100 0;
#X connect 105 0 47 0;
#X connect 106 0 9 0;
#X connect 107 0 27 0;
#X connect 108 0 85 0;
#X connect 109 0 84 0;
#X connect 110 0 26 0;
#X connect 111 0 106 0;
#X connect 111 0 88 0;
#X connect 111 0 5 0;
#X connect 112 0 43 0;
#X connect 112 0 87 0;
#X connect 112 0 105 0;
