#N canvas 953 0 958 988 12;
#X obj 192 439 expr 1 - $f1;
#X obj 159 461 *~;
#X obj 191 491 *~;
#X obj 159 490 +~;
#X floatatom 203 415 5 0 0 0 - - - 0;
#X floatatom 976 58 5 0 99 1 in\ difussion\ 1 - - 0;
#X obj 976 83 * -1;
#X floatatom 975 187 5 0 99 1 in\ difussion\ 2 - - 0;
#X obj 975 212 * -1;
#X obj 791 207 alternateAPF~ APF4 9.3;
#X obj 789 110 alternateAPF~ APF1 4.93;
#X obj 790 171 alternateAPF~ APF3 12.7;
#X obj 790 143 alternateAPF~ APF2 3.6;
#X floatatom 585 320 5 0 99 2 - - - 0;
#X obj 344 343 alternateAPF_modulated~ modAPF1 22.55 0.536 1, f 32;
#X obj 632 346 alternateAPF_modulated~ modAPF2 30.46 0.536 1, f 34;
#X obj 345 430 delread~ dline1 149.4;
#X obj 344 400 delwrite~ dline1 200;
#X obj 344 743 +~;
#X obj 345 584 delwrite~ dline2 200;
#X obj 346 614 delread~ dline2 124.8;
#X obj 632 400 delwrite~ dline3 200;
#X obj 633 586 delwrite~ dline4 200;
#X obj 633 432 delread~ dline3 141.5;
#X obj 597 742 +~;
#X floatatom 843 471 5 0 99 2 decay\ difussion\ 2 - - 0;
#X text 312 430 a;
#X text 313 540 b;
#X text 317 612 c;
#X text 602 434 d;
#X text 603 544 e;
#X text 607 616 f;
#X obj 1030 382 delread~ dline1 8.926;
#X obj 1065 438 delread~ dline1 99.79;
#X obj 1066 504 delread~ dline2 66.94;
#X obj 1066 540 delread~ dline3 66.77;
#X obj 1122 580 delread~ dline4 35.77;
#X obj 1031 438 +~;
#X obj 1031 506 +~;
#X obj 1031 472 -~;
#X obj 1031 540 -~;
#X obj 1031 574 -~;
#X obj 1031 608 -~;
#X obj 345 537 alternateAPF~ APF5 60.4 64.19;
#X obj 567 187 loadbang;
#X obj 976 7 loadbang;
#X msg 976 35 75;
#X obj 975 134 loadbang;
#X msg 567 215 70;
#X obj 816 383 loadbang;
#X msg 816 411 50;
#X msg 975 162 62.5;
#X obj 789 84 lop~;
#X obj 343 488 lop~;
#X obj 633 494 lop~;
#X floatatom 832 66 5 0 0 0 - - - 0;
#X floatatom 552 494 6 0 0 0 - - - 0;
#X obj 634 616 delread~ dline4 105.2;
#X obj 348 645 *~;
#X obj 625 655 *~;
#X floatatom 522 662 6 0 0 0 - - - 0;
#X obj 632 540 alternateAPF~ APF6 89.12 6.281;
#X obj 100 101 cnv 19 300 200 empty empty Dattorro\ Reverb 10 12 0 12 #77ff64 #ffffff 0;
#X obj 115 225 hsl 100 19 0 100 0 0 empty empty decay\ difussion\ 1 -2 -10 0 12 #fcfcfc #000000 #000000 0 1;
#X obj 257 139 hsl 100 19 0 20000 0 0 empty empty Damping -2 -10 0 12 #fcfcfc #000000 #000000 0 1;
#X obj 114 266 hsl 100 19 0 1 0 0 empty empty Decay -2 -10 0 12 #fcfcfc #000000 #000000 0 1;
#X obj -5 302 s Decay;
#X obj 531 611 r Decay;
#X obj 116 139 hsl 100 19 0 20000 0 0 empty empty Bandwidth -2 -10 0 12 #fcfcfc #000000 #000000 0 1;
#X obj -12 163 s Bandwidth;
#X obj 824 37 r Bandwidth;
#X obj 113 182 hsl 100 19 0 100 0 0 empty empty Input\ difussion\ 1 -2 -10 0 12 #fcfcfc #000000 #000000 0 1;
#X obj -3 209 s InDiff1;
#X obj 1067 27 r InDiff1;
#X obj 1055 140 r InDiff2;
#X obj 437 206 s InDiff2;
#X obj 258 181 hsl 100 19 0 100 0 0 empty empty Input\ difussion\ 2 -2 -10 0 12 #fcfcfc #000000 #000000 0 1;
#X obj 107 17 inlet~;
#X obj 160 557 outlet~;
#X obj 256 263 hsl 100 19 0 1 0 0 empty empty Mix -2 -10 0 12 #fcfcfc #000000 #000000 0 1;
#X obj 197 379 r Mix;
#X obj 431 296 s Mix;
#X obj 256 225 hsl 100 19 0 100 0 0 empty empty decay\ difussion\ 2 -2 -10 0 12 #fcfcfc #000000 #000000 0 1;
#X obj -19 247 s DecayDiff1;
#X obj 585 269 r DecayDiff1;
#X obj 433 255 s DecayDiff2;
#X obj 726 485 r DecayDiff2;
#X obj 107 69 send~ hello;
#X obj 710 34 r~ hello;
#X obj 160 327 r~ hello;
#X obj 1031 642 s~ processed;
#X obj 788 237 s~ Diffusers;
#X obj 449 741 r~ Diffusers;
#X obj 437 174 s Damping;
#X obj 520 447 r Damping;
#X obj 209 464 r~ processed;
#X connect 0 0 2 1;
#X connect 1 0 3 0;
#X connect 2 0 3 1;
#X connect 3 0 78 0;
#X connect 5 0 6 0;
#X connect 6 0 12 1;
#X connect 6 0 10 1;
#X connect 7 0 8 0;
#X connect 8 0 9 1;
#X connect 8 0 11 1;
#X connect 9 0 91 0;
#X connect 10 0 12 0;
#X connect 11 0 9 0;
#X connect 12 0 11 0;
#X connect 13 0 14 1;
#X connect 13 0 15 1;
#X connect 14 0 17 0;
#X connect 15 0 21 0;
#X connect 16 0 53 0;
#X connect 18 0 14 0;
#X connect 20 0 58 0;
#X connect 23 0 54 0;
#X connect 24 0 15 0;
#X connect 25 0 43 1;
#X connect 25 0 61 1;
#X connect 32 0 37 0;
#X connect 33 0 37 1;
#X connect 34 0 38 1;
#X connect 35 0 40 1;
#X connect 36 0 42 1;
#X connect 37 0 39 0;
#X connect 38 0 40 0;
#X connect 39 0 38 0;
#X connect 40 0 41 0;
#X connect 41 0 42 0;
#X connect 42 0 90 0;
#X connect 43 0 19 0;
#X connect 43 1 39 1;
#X connect 44 0 48 0;
#X connect 45 0 46 0;
#X connect 46 0 5 0;
#X connect 47 0 51 0;
#X connect 48 0 13 0;
#X connect 49 0 50 0;
#X connect 50 0 25 0;
#X connect 51 0 7 0;
#X connect 52 0 10 0;
#X connect 53 0 43 0;
#X connect 54 0 61 0;
#X connect 57 0 59 0;
#X connect 58 0 18 0;
#X connect 59 0 24 1;
#X connect 61 0 22 0;
#X connect 61 1 41 1;
#X connect 63 0 83 0;
#X connect 64 0 93 0;
#X connect 65 0 66 0;
#X connect 67 0 58 1;
#X connect 67 0 60 0;
#X connect 67 0 59 1;
#X connect 68 0 69 0;
#X connect 70 0 52 1;
#X connect 70 0 55 0;
#X connect 71 0 72 0;
#X connect 73 0 6 0;
#X connect 74 0 8 0;
#X connect 76 0 75 0;
#X connect 77 0 87 0;
#X connect 79 0 81 0;
#X connect 80 0 0 0;
#X connect 80 0 4 0;
#X connect 80 0 1 1;
#X connect 82 0 85 0;
#X connect 84 0 13 0;
#X connect 84 0 14 1;
#X connect 84 0 15 1;
#X connect 86 0 25 0;
#X connect 86 0 61 1;
#X connect 86 0 43 1;
#X connect 88 0 52 0;
#X connect 89 0 1 0;
#X connect 92 0 18 1;
#X connect 92 0 24 0;
#X connect 94 0 53 1;
#X connect 94 0 56 0;
#X connect 94 0 54 1;
#X connect 95 0 2 0;
#X coords 0 -1 1 1 300 200 1 100 100;
