#N canvas 286 173 501 533 12;
#X obj 79 149 inlet~;
#X obj 77 429 outlet~;
#X floatatom 113 97 5 0 0 0 - - - 0;
#X obj 116 50 loadbang;
#X obj 113 73 f \$1;
#X obj 78 204 biquad~;
#X obj 78 229 biquad~;
#X obj 78 254 biquad~;
#X obj 78 279 biquad~;
#X obj 78 304 biquad~;
#X obj 78 329 biquad~;
#X obj 78 354 biquad~;
#X obj 78 379 biquad~;
#X listbox 262 177 20 0 0 0 - - - 0;
#X obj 261 145 pack f 0 f 1 f;
#X text 17 470 A Unit delay ( K=1) APF can be implemented using a simple biquad filter structure \, as done here.The difference equation is simply: y[n] = -a1*y[n-1] + a1*x[n] + 1*x[n-1];
#X obj 261 99 * -1;
#X obj 216 68 t b b;
#X text 43 13 8 cascaded unit allpass filters of coefficient a1;
#X connect 0 0 5 0;
#X connect 2 0 16 0;
#X connect 2 0 14 2;
#X connect 3 0 4 0;
#X connect 3 0 17 0;
#X connect 4 0 2 0;
#X connect 5 0 6 0;
#X connect 6 0 7 0;
#X connect 7 0 8 0;
#X connect 8 0 9 0;
#X connect 9 0 10 0;
#X connect 10 0 11 0;
#X connect 11 0 12 0;
#X connect 12 0 1 0;
#X connect 14 0 5 0;
#X connect 14 0 6 0;
#X connect 14 0 7 0;
#X connect 14 0 8 0;
#X connect 14 0 9 0;
#X connect 14 0 10 0;
#X connect 14 0 11 0;
#X connect 14 0 12 0;
#X connect 14 0 13 0;
#X connect 16 0 14 0;
#X connect 17 0 14 0;
#X connect 17 1 16 0;
