#N canvas 441 72 868 790 12;
#X obj 462 444 output~;
#X msg 101 126 1;
#X msg 103 151 0;
#X obj 157 165 readsf~ 2;
#X obj 391 225 samplerate~ 96000;
#X floatatom 391 249 5 0 0 0 - - - 0;
#X obj 391 202 loadbang;
#X text 150 193 impulse response;
#X obj 280 215 pish~;
#X obj 156 216 Impulse~;
#X obj 558 515 vu 15 120 inmeter empty -1 -8 0 10 #404040 #000000 1 0;
#X obj 557 490 s inmeter;
#X obj 557 467 - 100;
#X obj 557 445 env~ 2048;
#X msg 161 84 open ../../sound/ForMark.wav;
#X msg 152 107 open ../../sound/LittleWaltz.wav;
#X msg 163 61 open ../../sound/DavidCastelloLopezVoix.wav;
#X msg 163 130 open ../../sound/Nocturnal.wav;
#X text 69 150 STOP;
#X obj 154 675 s~ outL;
#X obj 398 671 s~ outR;
#X obj 463 418 r~ outL;
#X obj 521 418 r~ outR;
#X msg 163 32 open ../../sound/funk-kit.wav;
#X msg 158 9 open ../../sound/ericderr.wav;
#X obj 73 60 t b b;
#X obj 75 86 delay 50;
#X obj 156 318 r~ 0$-in;
#X obj 156 285 send~ 0$-in;
#X obj 47 234 adc~;
#X obj 47 258 *~;
#X obj 108 231 tgl 19 0 empty empty empty 0 -10 0 12 #fcfcfc #000000 #000000 0 1;
#X msg 34 202 1;
#X obj 160 355 earlyReflexions3;
#X msg 281 310 20000;
#X connect 1 0 3 0;
#X connect 2 0 3 0;
#X connect 3 0 28 0;
#X connect 4 0 5 0;
#X connect 6 0 4 0;
#X connect 8 0 28 0;
#X connect 9 0 28 0;
#X connect 12 0 11 0;
#X connect 13 0 12 0;
#X connect 14 0 3 0;
#X connect 14 0 25 0;
#X connect 15 0 3 0;
#X connect 15 0 25 0;
#X connect 16 0 3 0;
#X connect 16 0 25 0;
#X connect 17 0 3 0;
#X connect 17 0 25 0;
#X connect 21 0 0 0;
#X connect 21 0 13 0;
#X connect 22 0 0 1;
#X connect 23 0 3 0;
#X connect 23 0 25 0;
#X connect 24 0 3 0;
#X connect 24 0 25 0;
#X connect 25 0 26 0;
#X connect 25 1 3 0;
#X connect 26 0 1 0;
#X connect 27 0 33 0;
#X connect 29 0 30 0;
#X connect 30 0 28 0;
#X connect 31 0 30 1;
#X connect 32 0 29 0;
#X connect 33 0 19 0;
#X connect 33 0 20 0;
#X connect 34 0 33 1;
