#N canvas 252 527 443 335 12;
#X obj 126 188 inlet~;
#X obj 125 255 outlet~;
#X obj 125 221 biquad~;
#X listbox 230 216 20 0 0 0 - - - 0;
#X obj 229 193 pack 0 f f 0 1;
#X floatatom 245 138 5 0 0 0 - - - 0;
#X obj 209 69 loadbang;
#X obj 206 92 f \$1;
#X obj 290 139 * -1;
#X obj 309 87 t b b;
#X text 63 13 Single stretched APF (K = 2);
#X text 76 289 y[n] = -a1*y[n-2] + a1 * x[n] + 1 * x[n-2], f 77;
#X text 8 73 \$1 : filter coeff a1 if a1 < 0 : decreasing freq chirp if a1 > 0 : increasing freq chirp, f 21;
#X connect 0 0 2 0;
#X connect 2 0 1 0;
#X connect 4 0 2 0;
#X connect 4 0 3 0;
#X connect 5 0 8 0;
#X connect 5 0 4 2;
#X connect 6 0 7 0;
#X connect 6 0 9 0;
#X connect 7 0 5 0;
#X connect 8 0 4 1;
#X connect 9 0 4 0;
#X connect 9 1 8 0;
