#N canvas 241 392 443 488 12;
#X obj 31 159 inlet~;
#X obj 27 438 outlet~;
#X obj 30 192 biquad~;
#X listbox 108 200 20 0 0 0 - - - 0;
#X obj 108 169 pack 0 f f 0 1;
#X floatatom 85 90 5 0 0 0 - - - 0;
#X obj 88 43 loadbang;
#X obj 85 66 f \$1;
#X obj 233 92 * -1;
#X obj 188 61 t b b;
#X obj 29 220 biquad~;
#X obj 29 246 biquad~;
#X obj 28 274 biquad~;
#X obj 28 300 biquad~;
#X obj 27 328 biquad~;
#X obj 27 354 biquad~;
#X obj 26 382 biquad~;
#X text 40 12 8 cascaded stretched APF (K = 2);
#X text 111 225 y[n] = -a1*y[n-2] + a1 * x[n] + 1 * x[n-2];
#X connect 0 0 2 0;
#X connect 2 0 10 0;
#X connect 4 0 2 0;
#X connect 4 0 3 0;
#X connect 4 0 10 0;
#X connect 4 0 11 0;
#X connect 4 0 12 0;
#X connect 4 0 13 0;
#X connect 4 0 14 0;
#X connect 4 0 15 0;
#X connect 4 0 16 0;
#X connect 5 0 8 0;
#X connect 5 0 4 2;
#X connect 6 0 7 0;
#X connect 6 0 9 0;
#X connect 7 0 5 0;
#X connect 8 0 4 1;
#X connect 9 0 4 0;
#X connect 9 1 8 0;
#X connect 10 0 11 0;
#X connect 11 0 12 0;
#X connect 12 0 13 0;
#X connect 13 0 14 0;
#X connect 14 0 15 0;
#X connect 15 0 16 0;
#X connect 16 0 1 0;
