#N canvas 470 24 1920 1041 12;
#X obj 273 672 output~;
#X obj 280 372 r~ in;
#X msg 12 74 1;
#X msg 23 110 0;
#X msg 82 43 open ../sound/LittleWaltz.wav;
#X msg 83 66 open ../sound/ForMark.wav;
#X obj 66 111 readsf~ 2;
#X obj 375 45 samplerate~ 96000;
#X floatatom 375 72 5 0 0 0 - - - 0;
#X msg 85 88 open ../sound/Nocturnal.wav;
#X msg 80 18 open ../sound/DavidCastelloLopezVoix.wav;
#X obj 375 16 loadbang;
#X text 334 133 impulse response;
#X obj 340 228 send~ in;
#X obj 465 153 pish~;
#X obj 341 155 Impulse~;
#X obj 154 741 vu 15 120 inmeter empty -1 -8 0 10 #404040 #000000 1 0;
#X obj 150 714 s inmeter;
#X obj 151 692 - 100;
#X obj 151 671 env~ 2048;
#X connect 2 0 6 0;
#X connect 3 0 6 0;
#X connect 4 0 6 0;
#X connect 4 0 2 0;
#X connect 5 0 6 0;
#X connect 5 0 2 0;
#X connect 6 0 13 0;
#X connect 7 0 8 0;
#X connect 9 0 6 0;
#X connect 9 0 2 0;
#X connect 10 0 6 0;
#X connect 10 0 2 0;
#X connect 11 0 7 0;
#X connect 14 0 13 0;
#X connect 15 0 13 0;
#X connect 18 0 17 0;
#X connect 19 0 18 0;
