#N canvas 349 79 465 370 12;
#X obj 41 251 +~ 1;
#X obj 165 228 * 2;
#X obj 200 259 +;
#X floatatom 200 284 5 0 0 0 - - - 0;
#X floatatom 150 136 5 0 0 0 - - - 0;
#X obj 30 103 delwrite~ 0$-vibrato 100;
#X obj 41 275 vd~ 0$-vibrato;
#X obj 40 321 outlet~;
#X obj 31 74 inlet~;
#X obj 103 136 inlet;
#X text 191 136 rate (Hz);
#X text 34 51 Audio in;
#X text 31 8 simple Vibrato delayLine;
#X text 168 178 Depth;
#X obj 165 203 inlet;
#X obj 41 203 osc~ \$1;
#X obj 41 227 *~ \$2;
#X text 244 215 \$1 rate(Hz);
#X text 244 233 \$2 Depth (excursion);
#X connect 0 0 6 0;
#X connect 1 0 2 0;
#X connect 1 0 0 1;
#X connect 2 0 3 0;
#X connect 6 0 7 0;
#X connect 8 0 5 0;
#X connect 9 0 4 0;
#X connect 9 0 15 0;
#X connect 14 0 1 0;
#X connect 14 0 16 1;
#X connect 14 0 2 1;
#X connect 15 0 16 0;
#X connect 16 0 0 0;
