#N canvas 696 148 1920 997 12;
#X msg 197 313 \; pd dsp 1;
#X msg 284 311 \; pd dsp 0;
#X obj 188 289 dac~;
#X obj 181 90 osc~ 440;
#X obj 197 214 *~;
#X obj 269 183 line~;
#X msg 321 62 0.1 2000;
#X msg 321 119 0.5 1000;
#X msg 321 96 0.2 10, f 9;
#X connect 3 0 4 0;
#X connect 4 0 2 0;
#X connect 4 0 2 1;
#X connect 5 0 4 1;
#X connect 6 0 5 0;
#X connect 7 0 5 0;
#X connect 8 0 5 0;
