#N canvas 54 308 1600 817 12;
#X text 510 120 ADSR;
#X obj 546 241 inlet;
#X obj 852 354 inlet;
#X obj 918 354 inlet;
#X obj 988 354 inlet;
#X obj 1055 354 inlet;
#X text 546 201 trigger;
#X obj 960 523 inlet;
#X obj 691 599 line~;
#X obj 691 628 outlet~;
#X text 918 311 2 attack;
#X text 988 311 3 decay;
#X text 1055 311 4 sustain;
#X text 960 480 5 release;
#X obj 521 471 f \$1;
#X obj 691 460 delay \$2;
#X obj 691 487 f \$4;
#X obj 691 514 * 0.01;
#X obj 745 514 * \$1;
#X obj 691 541 pack 0 \$3;
#X obj 900 560 pack 0 \$5;
#X obj 546 283 sel 0;
#X msg 546 325 stop;
#X obj 521 502 pack 0 \$2;
#X obj 721 372 t b;
#X text 851 310 1 peak level;
#X connect 1 0 21 0;
#X connect 2 0 14 1;
#X connect 2 0 18 1;
#X connect 3 0 15 1;
#X connect 3 0 23 1;
#X connect 5 0 16 1;
#X connect 7 0 20 1;
#X connect 8 0 9 0;
#X connect 14 0 23 0;
#X connect 15 0 16 0;
#X connect 16 0 17 0;
#X connect 17 0 18 0;
#X connect 18 0 19 0;
#X connect 19 0 8 0;
#X connect 20 0 8 0;
#X connect 21 0 20 0;
#X connect 21 0 22 0;
#X connect 21 1 24 0;
#X connect 22 0 15 0;
#X connect 23 0 8 0;
#X connect 24 0 14 0;
#X connect 24 0 15 0;
