#N canvas 529 42 1600 817 12;
#X obj 131 582 output~;
#X obj 132 536 line~;
#X msg 145 469 1 2;
#X msg 190 468 0 2;
#X floatatom 211 306 5 0 0 0 - - - 0;
#X obj 145 367 metro;
#X obj 145 437 bng 19 250 50 0 empty empty empty 0 -10 0 12 #fcfcfc #000000 #000000;
#X obj 190 436 bng 19 250 50 0 empty empty empty 0 -10 0 12 #fcfcfc #000000 #000000;
#X obj 222 365 / 2;
#X obj 253 539 vline~;
#X obj 252 582 output~;
#X obj 190 400 delay;
#X text 269 306 sets metro period time;
#X text 254 394 using a simple delay the period is shifted \, pipe object would bang at halve the time period which would not be the desired effect;
#X text 327 536 comparing line and vline objects;
#X text 1031 239 ALTERNATIVE SOLUTION USING SELECT OBJECT;
#X obj 1037 566 output~;
#X obj 1038 520 line~;
#X msg 1051 453 1 2;
#X msg 1096 452 0 2;
#X obj 1159 523 vline~;
#X obj 1158 566 output~;
#X text 1233 520 comparing line and vline objects;
#X floatatom 1120 283 5 0 0 0 - - - 0;
#X obj 1054 344 metro;
#X obj 1050 418 select 0 1;
#X obj 1054 380 tgl 19 0 empty empty empty 0 -10 0 12 #fcfcfc #000000 #000000 0 1;
#X obj 1054 263 loadbang;
#X obj 1057 312 bng 19 250 50 0 empty empty empty 0 -10 0 12 #fcfcfc #000000 #000000;
#X obj 144 267 loadbang;
#X obj 147 316 bng 19 250 50 0 empty empty empty 0 -10 0 12 #fcfcfc #000000 #000000;
#X connect 1 0 0 0;
#X connect 2 0 1 0;
#X connect 2 0 9 0;
#X connect 3 0 1 0;
#X connect 3 0 9 0;
#X connect 4 0 5 1;
#X connect 4 0 8 0;
#X connect 5 0 6 0;
#X connect 5 0 11 0;
#X connect 6 0 2 0;
#X connect 7 0 3 0;
#X connect 8 0 11 1;
#X connect 9 0 10 0;
#X connect 11 0 7 0;
#X connect 17 0 16 0;
#X connect 18 0 17 0;
#X connect 18 0 20 0;
#X connect 19 0 17 0;
#X connect 19 0 20 0;
#X connect 20 0 21 0;
#X connect 23 0 24 1;
#X connect 24 0 26 0;
#X connect 25 0 18 0;
#X connect 25 1 19 0;
#X connect 26 0 25 0;
#X connect 27 0 28 0;
#X connect 28 0 24 0;
#X connect 29 0 30 0;
#X connect 30 0 5 0;
