#N canvas 109 197 1600 817 12;
#X floatatom 171 156 5 0 0 0 - - - 0;
#X floatatom 229 156 5 0 0 0 - - - 0;
#X floatatom 168 67 5 0 0 0 - - - 0;
#X obj 170 108 plusminus 5;
#X connect 2 0 3 0;
#X connect 3 0 0 0;
#X connect 3 1 1 0;
