#N canvas 78 78 1600 817 12;
#X obj 550 251 bng 19 250 50 0 empty empty empty 0 -10 0 12 #fcfcfc #000000 #000000;
#X obj 593 250 bng 19 250 50 0 empty empty empty 0 -10 0 12 #fcfcfc #000000 #000000;
#X obj 572 462 line~;
#X msg 475 333 10 200;
#X obj 550 358 delay 200;
#X msg 550 381 1 2500;
#X msg 647 402 0 500;
#X msg 593 273 stop;
#X text 521 229 attack;
#X text 593 229 release;
#X text 716 406 release time;
#X text 536 191 ADSR ENVELOPPE GENERATOR;
#X obj 573 563 *~;
#X obj 643 531 osc~ 440;
#X obj 572 599 output~;
#X text 645 327 attack time;
#X text 648 377 decay time;
#X text 628 461 sustain is maintained as long as release bang is not pressed;
#X connect 0 0 3 0;
#X connect 0 0 4 0;
#X connect 1 0 6 0;
#X connect 1 0 7 0;
#X connect 2 0 12 0;
#X connect 3 0 2 0;
#X connect 4 0 5 0;
#X connect 5 0 2 0;
#X connect 6 0 2 0;
#X connect 7 0 4 0;
#X connect 12 0 14 0;
#X connect 13 0 12 1;
