#N canvas 597 404 789 318 12;
#X obj 109 92 partial_risset 1 1 0.56 0;
#X floatatom 457 114 5 0 0 0 - - - 0;
#X obj 457 138 mtof;
#X floatatom 457 163 5 0 0 0 - - - 0;
#X obj 506 162 s frequency;
#X floatatom 454 217 5 0 0 0 - - - 0;
#X obj 454 241 * 100;
#X obj 454 266 s duration;
#X obj 293 242 bng 30 250 50 0 empty empty empty 0 -10 0 20 #fcfcfc #000000 #000000;
#X obj 293 278 s trigger;
#X obj 109 217 catch~ sum;
#X obj 109 242 output~;
#X obj 109 117 partial_risset 0.67 0.9 0.56 1;
#X obj 109 142 partial_risset 1 0.65 0.92 0;
#X obj 109 167 partial_risset 1.8 0.55 0.92 1.7;
#X obj 109 192 partial_risset 2.67 0.325 1.19 0;
#X text 111 42 RISSET'S BELL WITH 5 PARTIALS;
#X text 452 92 frequency;
#X text 454 197 duration in tenth of a second;
#X connect 1 0 2 0;
#X connect 2 0 3 0;
#X connect 2 0 4 0;
#X connect 5 0 6 0;
#X connect 6 0 7 0;
#X connect 8 0 9 0;
#X connect 10 0 11 0;
