#N canvas 182 182 1600 817 12;
#X obj 500 307 osc~;
#X floatatom 500 220 5 0 0 0 - - - 0;
#X obj 543 307 osc~;
#X obj 585 307 osc~;
#X obj 634 307 osc~;
#X obj 680 307 osc~;
#X obj 543 362 *~;
#X obj 586 362 *~;
#X obj 635 362 *~;
#X obj 680 362 *~;
#X obj 561 336 tgl 19 0 empty empty empty 0 -10 0 12 #fcfcfc #000000 #000000 0 1;
#X obj 604 336 tgl 19 0 empty empty empty 0 -10 0 12 #fcfcfc #000000 #000000 0 1;
#X obj 653 336 tgl 19 0 empty empty empty 0 -10 0 12 #fcfcfc #000000 #000000 0 1;
#X obj 698 336 tgl 19 0 empty empty empty 0 -10 0 12 #fcfcfc #000000 #000000 0 1;
#X obj 499 491 output~;
#X obj 543 278 * 1;
#X obj 585 278 * 2;
#X obj 634 278 * 3;
#X obj 680 278 * 4;
#X obj 500 278 * 0;
#X obj 500 363 *~;
#X obj 518 336 tgl 19 0 empty empty empty 0 -10 0 12 #fcfcfc #000000 #000000 0 1;
#X obj 500 180 r freq;
#X obj 500 403 *~ 1;
#X text 508 132 RING MODULATION AND SPECTRUM;
#X text 555 222 fundamental frequency;
#X text 740 276 multiplyer;
#X text 741 336 partials selector;
#X text 550 401 suming all the sinusoid;
#X connect 0 0 20 0;
#X connect 1 0 15 0;
#X connect 1 0 16 0;
#X connect 1 0 17 0;
#X connect 1 0 18 0;
#X connect 1 0 19 0;
#X connect 2 0 6 0;
#X connect 3 0 7 0;
#X connect 4 0 8 0;
#X connect 5 0 9 0;
#X connect 6 0 23 0;
#X connect 7 0 23 0;
#X connect 8 0 23 0;
#X connect 9 0 23 0;
#X connect 10 0 6 1;
#X connect 11 0 7 1;
#X connect 12 0 8 1;
#X connect 13 0 9 1;
#X connect 15 0 2 0;
#X connect 16 0 3 0;
#X connect 17 0 4 0;
#X connect 18 0 5 0;
#X connect 19 0 0 0;
#X connect 20 0 23 0;
#X connect 21 0 20 1;
#X connect 22 0 1 0;
#X connect 23 0 14 0;
