#N canvas 104 104 1600 817 12;
#X obj 410 221 phasor~;
#X obj 409 298 cos~;
#X floatatom 410 181 5 0 0 0 - - - 0;
#X obj 409 349 output~;
#X obj 602 184 phasor~;
#X floatatom 602 151 5 0 0 0 - - - 0;
#X obj 409 266 +~;
#X obj 753 178 / 100;
#X floatatom 753 152 5 0 0 0 - - - 0;
#X obj 603 266 *~;
#X obj 753 205 pack 0 50;
#X obj 753 242 line~;
#X obj 602 225 cos~;
#X obj 965 459 phasor~;
#X floatatom 965 426 5 0 0 0 - - - 0;
#X obj 965 500 cos~;
#X text 947 395 Is equivalent to a osc~ object;
#X text 262 220 carrier phase -->;
#X text 751 121 a : Modualtion index;
#X text 551 123 fm : Modulation frequency;
#X text 406 159 fc : carrier frequecny;
#X text 481 79 Is equivalent to : x(n) = cos(a*cos(wm*n) + wc*n);
#X connect 0 0 6 0;
#X connect 1 0 3 0;
#X connect 1 0 3 1;
#X connect 2 0 0 0;
#X connect 4 0 12 0;
#X connect 5 0 4 0;
#X connect 6 0 1 0;
#X connect 7 0 10 0;
#X connect 8 0 7 0;
#X connect 9 0 6 1;
#X connect 10 0 11 0;
#X connect 11 0 9 1;
#X connect 12 0 9 0;
#X connect 13 0 15 0;
#X connect 14 0 13 0;
