#N canvas 449 0 967 988 12;
#X obj 128 516 delwrite~ delay1 1000;
#X obj 129 485 +~;
#X obj 137 900 output~;
#X obj 414 264 delread~ delay1;
#X floatatom 414 239 5 0 0 2 Delay\ Time\ (ms) - - 0;
#X obj 414 362 *~;
#X floatatom 432 313 5 0 100 2 Gain\ (%) - - 0;
#X obj 432 338 / 100;
#X text 439 196 delay line;
#X msg 92 81 open sound/DavidCastelloLopezVoix.wav;
#X msg 148 225 1;
#X msg 193 227 0;
#X obj 88 448 switchSig~;
#X obj 120 322 hip~ 48;
#X obj 120 370 lop~ 6600;
#X obj 413 445 lop~;
#X floatatom 459 390 5 10 70 2 LPF\ corner\ freq - - 0;
#X obj 459 415 * 100;
#X obj 155 408 hradio 19 1 0 8 empty empty empty 0 -10 0 12 #fcfcfc #000000 #000000 0;
#X obj 120 349 lop~ 6600;
#X obj 413 502 hip~ 20;
#X obj 170 619 vsl 19 60 0 1 0 1 empty empty Wet\ Dry\  0 -9 0 12 #fcfcfc #000000 #000000 2400 1;
#X obj 170 690 expr 1 - $f1;
#X obj 135 716 *~;
#X obj 170 717 *~;
#X obj 135 745 +~;
#X text 214 338 analog anti-aliasing;
#X text 201 642 <-- wet / dry Contol;
#X text 370 573 writing to delay buffer;
#X text 478 474 <-- Digital LPF in order to loos high frequency components \, as it usually happens in BBD delays;
#X msg 133 111 open LittleWaltz.wav;
#X floatatom 198 661 5 0 0 0 - - - 0;
#X obj 412 471 lop~;
#X obj 137 869 switchSig~;
#X obj 169 772 hip~ 48;
#X obj 169 820 lop~ 6600;
#X obj 169 799 lop~ 6600;
#X obj 204 843 hradio 19 1 0 8 empty empty empty 0 -10 0 12 #fcfcfc #000000 #000000 0;
#X obj 89 271 readsf~ 2;
#X msg 150 151 open sound/ForMark.wav;
#X connect 1 0 0 0;
#X connect 3 0 5 0;
#X connect 4 0 3 0;
#X connect 5 0 15 0;
#X connect 6 0 7 0;
#X connect 7 0 5 1;
#X connect 9 0 38 0;
#X connect 10 0 38 0;
#X connect 11 0 38 0;
#X connect 12 0 1 0;
#X connect 12 0 23 0;
#X connect 13 0 19 0;
#X connect 14 0 12 1;
#X connect 15 0 32 0;
#X connect 16 0 17 0;
#X connect 17 0 15 1;
#X connect 17 0 32 1;
#X connect 18 0 12 2;
#X connect 19 0 14 0;
#X connect 20 0 1 1;
#X connect 20 0 24 1;
#X connect 21 0 22 0;
#X connect 21 0 23 1;
#X connect 21 0 31 0;
#X connect 22 0 24 0;
#X connect 23 0 25 0;
#X connect 24 0 25 1;
#X connect 25 0 33 0;
#X connect 25 0 34 0;
#X connect 30 0 38 0;
#X connect 32 0 20 0;
#X connect 33 0 2 0;
#X connect 33 0 2 1;
#X connect 34 0 36 0;
#X connect 35 0 33 1;
#X connect 36 0 35 0;
#X connect 37 0 33 2;
#X connect 38 0 13 0;
#X connect 38 0 12 0;
#X connect 38 2 10 0;
#X connect 39 0 38 0;
