#N canvas 265 4 1920 997 12;
#X obj 129 485 +~;
#X obj 137 900 output~;
#X floatatom 418 137 5 0 0 2 Delay\ Time\ (ms) - - 0;
#X obj 418 316 *~;
#X floatatom 437 260 5 0 100 2 Gain\ (%) - - 0;
#X msg 148 225 1;
#X msg 193 227 0;
#X obj 88 448 switchSig~;
#X obj 421 480 lop~;
#X floatatom 466 458 5 0 100 2 LPF\ corner\ freq - - 0;
#X obj 466 483 * 100;
#X obj 155 408 hradio 19 1 0 8 empty empty empty 0 -10 0 12 #fcfcfc #000000 #000000 0;
#X obj 421 537 hip~ 20;
#X obj 174 605 vsl 19 60 0 1 0 1 empty empty Wet\ Dry\  0 -9 0 12 #fcfcfc #000000 #000000 0 1;
#X obj 170 690 expr 1 - $f1;
#X obj 135 716 *~;
#X obj 170 717 *~;
#X obj 135 745 +~;
#X text 214 338 analog anti-aliasing;
#X text 201 642 <-- wet / dry Contol;
#X text 178 492 writing to delay buffer;
#X text 539 692 <-- Digital LPF in order to loos high frequency components \, as it usually happens in BBD delays;
#X floatatom 198 661 5 0 0 0 - - - 0;
#X obj 420 506 lop~;
#X obj 137 869 switchSig~;
#X obj 204 843 hradio 19 1 0 8 empty empty empty 0 -10 0 12 #fcfcfc #000000 #000000 0;
#X obj 89 271 readsf~ 2;
#X obj 169 799 lop~ 6900;
#X obj 169 820 lop~ 6900;
#X obj 120 349 lop~ 6900;
#X obj 120 370 lop~ 6900;
#X obj 169 772 hip~ 19;
#X obj 120 322 hip~ 48;
#X obj 155 538 delwrite~ tap2 1000;
#X obj 155 561 delwrite~ tap3 1000;
#X obj 418 215 delread~ tap1;
#X obj 155 515 delwrite~ tap1 1000;
#X floatatom 555 139 5 0 0 2 Delay\ Time\ (ms) - - 0;
#X obj 555 317 *~;
#X floatatom 573 268 5 0 100 2 Gain\ (%) - - 0;
#X text 558 101 delay line 2;
#X text 421 99 delay line 1;
#X floatatom 679 138 5 0 0 2 Delay\ Time\ (ms) - - 0;
#X obj 679 316 *~;
#X floatatom 697 267 5 0 100 2 Gain\ (%) - - 0;
#X text 682 100 delay line 3;
#X obj 488 350 +~;
#X obj 488 377 +~;
#X msg 488 267 0;
#X msg 624 266 0;
#X msg 745 270 0;
#X obj 580 381 vsl 19 60 0 2 0 1 empty empty overall\ FB\  0 -9 0 12 #fcfcfc #000000 #000000 2800 1;
#X obj 490 414 *~;
#X obj 437 291 / 300;
#X obj 697 293 / 300;
#X obj 573 293 / 300;
#X obj 601 168 * 3;
#X obj 479 174 * 1.5;
#X obj 557 219 delread~ tap1;
#X obj 679 216 delread~ tap1;
#X obj 856 405 vsl 19 60 0 0.3 0 1 empty empty Gain\ Tap1 0 -9 0 12 #fcfcfc #000000 #000000 5500 1;
#X obj 949 400 vsl 19 60 0 0.3 0 1 empty empty Gain\ Tap2 0 -9 0 12 #fcfcfc #000000 #000000 3667 1;
#X obj 1044 401 vsl 19 60 0 0.3 0 1 empty empty Gain\ Tap3 0 -9 0 12 #fcfcfc #000000 #000000 2444 1;
#X msg 92 81 open sound/DavidCastelloLopezVoix.wav;
#X msg 150 151 open sound/ForMark.wav;
#X msg 133 111 open sound/LittleWaltz.wav;
#X obj 1029 501 expr ($f1-$f2)/2;
#X obj 900 499 expr (0.3- $f1);
#X obj 983 573 expr $f1/1.5;
#X obj 853 571 expr $f1/1.5;
#X connect 0 0 33 0;
#X connect 0 0 34 0;
#X connect 0 0 36 0;
#X connect 2 0 35 0;
#X connect 2 0 56 0;
#X connect 2 0 57 0;
#X connect 3 0 46 0;
#X connect 4 0 53 0;
#X connect 5 0 26 0;
#X connect 6 0 26 0;
#X connect 7 0 0 0;
#X connect 7 0 15 0;
#X connect 8 0 23 0;
#X connect 9 0 10 0;
#X connect 10 0 8 1;
#X connect 10 0 23 1;
#X connect 11 0 7 2;
#X connect 12 0 0 1;
#X connect 12 0 16 1;
#X connect 13 0 14 0;
#X connect 13 0 15 1;
#X connect 13 0 22 0;
#X connect 14 0 16 0;
#X connect 15 0 17 0;
#X connect 16 0 17 1;
#X connect 17 0 24 0;
#X connect 17 0 31 0;
#X connect 23 0 12 0;
#X connect 24 0 1 0;
#X connect 24 0 1 1;
#X connect 25 0 24 2;
#X connect 26 0 7 0;
#X connect 26 0 32 0;
#X connect 26 2 5 0;
#X connect 27 0 28 0;
#X connect 28 0 24 1;
#X connect 29 0 30 0;
#X connect 30 0 7 1;
#X connect 31 0 27 0;
#X connect 32 0 29 0;
#X connect 35 0 3 0;
#X connect 37 0 58 0;
#X connect 38 0 46 1;
#X connect 39 0 55 0;
#X connect 42 0 59 0;
#X connect 43 0 47 1;
#X connect 44 0 54 0;
#X connect 46 0 47 0;
#X connect 47 0 52 0;
#X connect 48 0 53 0;
#X connect 49 0 55 0;
#X connect 50 0 54 0;
#X connect 51 0 52 1;
#X connect 52 0 8 0;
#X connect 56 0 42 0;
#X connect 57 0 37 0;
#X connect 58 0 38 0;
#X connect 59 0 43 0;
#X connect 60 0 3 1;
#X connect 60 0 69 0;
#X connect 61 0 38 1;
#X connect 61 0 68 0;
#X connect 62 0 43 1;
#X connect 64 0 26 0;
#X connect 65 0 26 0;
#X connect 65 0 5 0;
#X connect 68 0 62 0;
#X connect 69 0 61 0;
