#N canvas 156 156 1600 817 12;
#X obj 644 213 sqrt;
#X obj 644 237 sqrt;
#X obj 644 301 line~;
#X obj 644 325 *~;
#X obj 644 349 *~;
#X text 699 232 quartic ramp function;
#X obj 712 202 * 0.1;
#X obj 352 80 r trigger;
#X obj 352 113 bng 19 250 50 0 empty empty empty 0 -10 0 12 #fcfcfc #000000 #000000;
#X obj 525 155 t b b;
#X obj 525 187 delay 5;
#X obj 525 214 float \$2;
#X obj 559 244 r duration;
#X msg 525 272 0 \$1;
#X obj 525 244 *;
#X obj 352 213 float \$3;
#X text 663 47 argumnets : \$1 amplitude \$2 relative duration \$3 relative frequecy \$4 detune;
#X obj 352 252 *;
#X obj 352 291 + \$4;
#X obj 352 330 osc~;
#X obj 352 378 *~;
#X obj 353 418 throw~ sum;
#X obj 427 213 r frequency;
#X msg 644 269 \$1 5;
#X obj 644 183 float \$1;
#X text 727 275 \$1 in a message box replaces the parameter with the argument given in the inlet \, it is not the same as the arguments \$1 - 4 of the .pd file;
#X text 399 292 plus detune;
#X text 382 252 relative frequency times frequency;
#X text 542 131 DECAY;
#X text 655 160 ATTACK;
#X text 354 25 RISSET'S BELL PARTIAL ABSTRACTION;
#X text 434 419 add to global summing bus;
#X connect 0 0 1 0;
#X connect 1 0 23 0;
#X connect 2 0 3 0;
#X connect 2 0 3 1;
#X connect 3 0 4 0;
#X connect 3 0 4 1;
#X connect 4 0 20 1;
#X connect 7 0 8 0;
#X connect 8 0 9 0;
#X connect 8 0 15 0;
#X connect 9 0 10 0;
#X connect 9 1 24 0;
#X connect 10 0 11 0;
#X connect 11 0 14 0;
#X connect 12 0 14 1;
#X connect 13 0 2 0;
#X connect 14 0 13 0;
#X connect 15 0 17 0;
#X connect 17 0 18 0;
#X connect 18 0 19 0;
#X connect 19 0 20 0;
#X connect 20 0 21 0;
#X connect 22 0 17 1;
#X connect 23 0 2 0;
#X connect 24 0 0 0;
