#N canvas 940 161 1920 997 12;
#X obj 127 13 pish~;
#X obj 296 137 hsl 162 19 0.1 3 0 0 empty empty empty -2 -10 0 12 #fcfcfc #000000 #000000 0 1;
#X obj 211 196 osc~ 2;
#X obj 211 220 *~ 1;
#X obj 211 244 +~ 1;
#X obj 211 268 vd~ vibrato;
#X obj 338 197 hsl 162 19 0 50 0 0 empty empty empty -2 -10 0 12 #fcfcfc #000000 #000000 0 1;
#X obj 335 221 * 2;
#X obj 335 245 +;
#X floatatom 338 270 5 0 0 0 - - - 0;
#X floatatom 293 161 5 0 0 0 - - - 0;
#X obj 181 366 output~;
#X msg 636 158 1;
#X msg 638 182 0;
#X obj 692 197 readsf~ 2;
#X msg 696 116 open ../../sound/ForMark.wav;
#X msg 698 139 open ../../sound/LittleWaltz.wav;
#X msg 698 93 open ../../sound/DavidCastelloLopezVoix.wav;
#X msg 698 162 open ../../sound/Nocturnal.wav;
#X text 604 182 STOP;
#X msg 698 64 open ../../sound/funk-kit.wav;
#X msg 693 41 open ../../sound/ericderr.wav;
#X obj 608 92 t b b;
#X obj 610 118 delay 50;
#X obj 111 98 delwrite~ vibrato 100;
#X connect 0 0 24 0;
#X connect 1 0 2 0;
#X connect 1 0 10 0;
#X connect 2 0 3 0;
#X connect 3 0 4 0;
#X connect 4 0 5 0;
#X connect 5 0 11 0;
#X connect 5 0 11 1;
#X connect 6 0 7 0;
#X connect 6 0 8 1;
#X connect 6 0 3 1;
#X connect 7 0 8 0;
#X connect 7 0 4 1;
#X connect 8 0 9 0;
#X connect 12 0 14 0;
#X connect 13 0 14 0;
#X connect 14 0 24 0;
#X connect 15 0 14 0;
#X connect 15 0 22 0;
#X connect 16 0 14 0;
#X connect 16 0 22 0;
#X connect 17 0 14 0;
#X connect 17 0 22 0;
#X connect 18 0 14 0;
#X connect 18 0 22 0;
#X connect 20 0 14 0;
#X connect 20 0 22 0;
#X connect 21 0 14 0;
#X connect 21 0 22 0;
#X connect 22 0 23 0;
#X connect 22 1 14 0;
#X connect 23 0 12 0;
